<?xml version="1.0" encoding="utf-8"?>
<!-- Generator: Adobe Illustrator 21.1.0, SVG Export Plug-In . SVG Version: 6.00 Build 0)  -->
<svg version="1.1" id="Layer_1" xmlns="http://www.w3.org/2000/svg" xmlns:xlink="http://www.w3.org/1999/xlink" x="0px" y="0px"
	 viewBox="0 0 58 61" style="enable-background:new 0 0 58 61;" xml:space="preserve">
<style type="text/css">
	.st0{fill:#12B1EE;}
</style>
<g>
	<path class="st0" d="M27.5,18.2c1.4,0,2.6,0.7,3.5,1.7c1.9-2.8,5.1-4.9,8.3-6c4.3-1.4,6.8-3.8,7.4-6.8c0-0.5,0.1-0.9,0.1-1.4
		C46.8,4.8,46,4,45,4h-3c-3.3,0-6.2-0.6-8.6-1.8c-3.4-1.7-7.3-2.2-11.2-1.4c-6.9,1.3-12.4,7-13.8,14c-1,5.3,0.4,10.6,3.8,14.7
		c0.7,0.8,1.3,1.8,1.7,2.8h9.3l1.2-1.2c-1.4-1.3-2.3-3.4-2.3-5.8C22.2,21.3,24.5,18.2,27.5,18.2L27.5,18.2z"/>
	<path class="st0" d="M48.5,29.9l-5.5-8.2c0.2-1.2,0.4-2.3,0.4-3.5c0-0.7,0-1.3-0.1-2c-1.6,0.8-2.6,1-3.5,1.4
		c-3.5,1.4-6.9,4.5-6.9,7.6v1.3c0,1-0.8,1.8-1.8,1.8s-1.8-0.8-1.8-1.8v-1.3c0-2.1-1-3.5-1.8-3.5s-1.8,1.4-1.8,3.5s1,3.5,1.8,3.5
		c0.7,0,1.4,0.4,1.6,1.1c0.3,0.7,0.1,1.4-0.4,1.9l-3.5,3.5c-0.3,0.3-0.8,0.5-1.2,0.5H15c0.7,4.8-0.9,5.8-7.5,13.8
		c0.1,0,0.1-0.1,0.2-0.1c3.1-1.9,6.9-3,10.9-3c4,0,7.8,1,10.9,3c1.1,0.7,2.2,1.5,3,2.4v-1c0-2.3,1.2-3.6,3.6-4.1c0.1,0,0.1,0,0.2,0
		c3.7-0.8,8.6-4.1,8.6-8.6v-0.6h-1.8c-1.8,0-3.5,0.7-4.8,2l-1,1c-0.7,0.7-1.8,0.7-2.5,0c-0.7-0.7-0.7-1.8,0-2.5l1-1
		c1.9-1.9,4.5-3,7.2-3H45v-1.8l1.7,0c0.4,0,0.7-0.1,1-0.3C48.5,31.5,48.7,30.7,48.5,29.9L48.5,29.9z"/>
	<path class="st0" d="M6.5,60.5c-1.2,0-2-1.1-1.7-2.2c1.3-4.6,6.9-8.3,13.9-8.3c7,0,12.6,3.7,13.9,8.3c0.3,1.1-0.5,2.2-1.7,2.2H6.5z
		"/>
	<path class="st0" d="M50.3,49.8c-2.9,0-5.3-2.4-5.3-5.3c0-0.7,0.2-2,2-5.1c0.9-1.6,1.8-2.9,1.8-2.9c0.3-0.5,0.9-0.8,1.4-0.8
		s1.1,0.3,1.4,0.8c0,0.1,0.9,1.3,1.8,2.9c1.8,3.1,2,4.4,2,5.1C55.6,47.4,53.2,49.8,50.3,49.8z"/>
</g>
</svg>
