<?xml version="1.0" encoding="utf-8"?>
<!-- Generator: Adobe Illustrator 21.1.0, SVG Export Plug-In . SVG Version: 6.00 Build 0)  -->
<svg version="1.1" id="Layer_1" xmlns="http://www.w3.org/2000/svg" xmlns:xlink="http://www.w3.org/1999/xlink" x="0px" y="0px"
	 viewBox="0 0 6 12" style="enable-background:new 0 0 6 12;" xml:space="preserve">
<style type="text/css">
	.st0{fill:#516385;}
</style>
<g>
	<g>
		<path class="st0" d="M5.8,5.5L1.3,0.2C1.2,0.1,1,0,0.9,0S0.6,0.1,0.5,0.2L0.2,0.6C0,0.8,0,1.3,0.2,1.5L4,6l-3.8,4.5
			C0.1,10.6,0,10.8,0,11c0,0.2,0.1,0.3,0.2,0.5l0.3,0.4C0.6,11.9,0.7,12,0.9,12s0.3-0.1,0.4-0.2l4.5-5.3C5.9,6.3,6,6.2,6,6
			C6,5.8,5.9,5.7,5.8,5.5z"/>
	</g>
</g>
</svg>
