<?xml version="1.0" encoding="utf-8"?>
<!-- Generator: Adobe Illustrator 21.1.0, SVG Export Plug-In . SVG Version: 6.00 Build 0)  -->
<svg version="1.1" id="Layer_1" xmlns="http://www.w3.org/2000/svg" xmlns:xlink="http://www.w3.org/1999/xlink" x="0px" y="0px"
	 viewBox="0 0 50 68" style="enable-background:new 0 0 50 68;" xml:space="preserve">
<style type="text/css">
	.st0{fill:#12B1EE;}
</style>
<path class="st0" d="M50,21.2L40,1.7c-0.2-0.3-0.4-0.5-0.8-0.6s-0.7-0.1-1,0.1l-27,13.9C4.4,18.6,0.2,25.6,0.2,33.3v33.4
	c0,0.7,0.6,1.3,1.3,1.3h22.7c0.7,0,1.3-0.6,1.3-1.3V42.2c0-4.6,2.6-8.7,6.7-10.8l17.2-8.5c0.3-0.2,0.5-0.4,0.7-0.8
	C50.2,21.8,50.2,21.5,50,21.2z M6,27.2c0.6-2.5,3-4.2,3.3-4.4c0.6-0.4,1.4-0.3,1.8,0.3l4.2,5.8c0.2,0.3,0.3,0.8,0.2,1.2
	c-0.1,0.4-0.4,0.7-0.8,0.8L7.8,33c-0.1,0-0.3,0.1-0.4,0.1c-0.2,0-0.4-0.1-0.6-0.2c-0.3-0.2-0.5-0.4-0.6-0.8C6.1,32,5.4,29.5,6,27.2z
	 M16.7,43.3v20.8c0,0.7-0.6,1.3-1.3,1.3h-5.1c-0.7,0-1.3-0.6-1.3-1.3V43.5c-1.7-0.6-2.9-2.3-2.9-4.2c0-2.5,2-4.5,4.6-4.5
	c0.8,0,1.6,0.2,2.3,0.6c0.9-0.9,2.1-1.4,3.4-1.4c2.6,0,4.7,2.1,4.7,4.7C21,41,19.1,43,16.7,43.3z M43.3,16.3l-18.6,9
	c0.1,0.3,0.1,0.6,0.1,0.9c0,2.3-1.9,4.2-4.3,4.2c-2.3,0-4.3-1.9-4.3-4.2c0-0.4,0-0.7,0.1-1.1c-1.2-0.6-2.1-1.9-2.1-3.4
	c0-2.1,1.7-3.7,3.8-3.7c0.9,0,1.8,0.3,2.5,0.9l19.4-9.4c0.3-0.2,0.7-0.2,1-0.1c0.3,0.1,0.6,0.3,0.8,0.7l2.2,4.4
	C44.2,15.2,43.9,16,43.3,16.3z"/>
</svg>
