<?xml version="1.0" encoding="utf-8"?>
<!-- Generator: Adobe Illustrator 21.1.0, SVG Export Plug-In . SVG Version: 6.00 Build 0)  -->
<svg version="1.1" id="Layer_1" xmlns="http://www.w3.org/2000/svg" xmlns:xlink="http://www.w3.org/1999/xlink" x="0px" y="0px"
	 viewBox="0 0 58 61" style="enable-background:new 0 0 58 61;" xml:space="preserve">
<style type="text/css">
	.st0{fill:#12B1EE;}
</style>
<path class="st0" d="M55.8,36.8c0.1,0.3,0.1,0.7,0.1,1c0,1.7-1,3.3-2.4,4.1c0.2,0.6,0.4,1.2,0.4,1.8c0,2-1.3,3.8-3.1,4.5
	c0.1,0.3,0.1,0.6,0.1,0.9c0,2.1-1.3,3.8-3.2,4.5c-1.4-1.2-2.8-2.6-3.4-3.7c0,0,0-0.1,0-0.1c0,0,0-0.1-0.1-0.1
	C44.1,49.5,44,49.2,44,49c-0.1-1.7,1.5-3.6,2.1-4.2c0.5-0.5,0.5-1.2,0-1.7c-0.5-0.5-1.2-0.5-1.7,0c-0.1,0.1-2.2,2.2-2.7,4.7
	c-0.4-0.2-1-0.3-1.6-0.4c-3-0.5-5.3,1.6-5.4,1.7c-0.5,0.5-0.5,1.2-0.1,1.7c0.5,0.5,1.2,0.5,1.7,0.1c0,0,1.5-1.4,3.3-1.1
	c1.7,0.3,2.4,1.2,2.4,1.3c0,0,0,0.1,0.1,0.1c0.9,1.6,2.5,3.2,3.8,4.3c-0.7,1.8-2.4,3.1-4.5,3.1c-0.5,0-1-0.1-1.5-0.2
	c-0.8,1.6-2.4,2.8-4.3,2.8c-2.6,0-4.8-2.1-4.8-4.7c0,0,0,0,0,0c0,0,0,0,0,0V33.8c0.9,0.5,2.1,1,3.2,1.3c0.5,1,1.1,2.6,1.1,3.7
	c0,0.7,0.5,1.2,1.2,1.2c0.7,0,1.2-0.5,1.2-1.2c0-1.4-0.6-3-1-4.1c1.4-0.7,2.4-1.7,2.5-1.8c0.5-0.5,0.4-1.3-0.1-1.7
	c-0.5-0.5-1.3-0.4-1.7,0.1c0,0-1,1-2.2,1.4c0,0-0.1,0-0.1,0c-0.1,0-0.1,0-0.2,0c-0.8-0.1-2.4-0.8-3.7-1.6c-0.1,0-0.1-0.1-0.2-0.1
	v-8.9c1.6-0.2,3.8-0.9,5.1-2.8c0.4-0.6,0.2-1.3-0.4-1.7c-0.6-0.4-1.3-0.2-1.7,0.4c-0.6,1-1.9,1.4-3,1.7V5.4c0-0.1,0-0.2,0-0.2
	c0-0.2,0-0.3,0-0.5C31,2.1,33.1,0,35.8,0c1.4,0,2.6,0.6,3.5,1.6c0,0,0,0,0,0c1.6,0,3,0.8,3.9,2c-0.9,0.9-2.1,2.1-2.8,3.3
	c-0.9-0.2-2.2-0.4-3.6-0.1c-0.7,0.2-1,0.8-0.9,1.5c0.2,0.6,0.8,1,1.5,0.9c0.9-0.2,1.7-0.1,2.2,0c0,0.8,0.4,1.6,0.7,2.3
	c0.5,1,1,2.1,1,3.9c0,0.7,0.5,1.2,1.2,1.2c0,0,0,0,0,0c0.7,0,1.2-0.5,1.2-1.2c0-2.3-0.7-3.9-1.2-5c-0.4-0.9-0.6-1.3-0.4-1.6
	c0.4-0.9,1.8-2.4,3-3.6c1.8,0.6,3.1,2.4,3.2,4.4c2.6,0,4.7,2.2,4.7,4.7c0,0.7-0.1,1.3-0.4,1.9c1.7,0.7,2.8,2.4,2.8,4.3
	c0,0.3,0,0.6-0.1,0.9c-1.3,0.5-3.3,1.2-4.6,1.2c-1.1,0-1.9-1.5-2.1-2c-0.3-0.6-1-0.9-1.6-0.7c-0.6,0.3-0.9,1-0.7,1.6
	c0,0.1,0.6,1.5,1.8,2.5c0,0,0,0-0.1,0.1c-0.8,0.7-1.6,2.1-1.6,2.2c-0.3,0.6-0.1,1.3,0.5,1.6C47,28,47.2,28,47.4,28
	c0.4,0,0.8-0.2,1.1-0.6c0.2-0.3,0.7-1.2,1.2-1.6c0.3-0.3,0.9-0.6,1.3-0.8c1.4-0.1,3.3-0.6,4.5-1.1c0.3,0.6,0.5,1.3,0.5,2
	c0,1-0.3,1.9-0.9,2.7c0.9,0.9,1.4,2.1,1.4,3.3c0,0.9-0.2,1.7-0.7,2.4c-1.2,0-3.9-0.2-5.9-0.7c-0.6-0.2-1.3,0.2-1.5,0.8
	c-0.2,0.6,0.2,1.3,0.8,1.5C51.5,36.7,54.5,36.8,55.8,36.8z M27,33.8c-0.9,0.5-2.1,1-3.2,1.3c-0.5,1-1.1,2.6-1.1,3.7
	c0,0.7-0.5,1.2-1.2,1.2s-1.2-0.5-1.2-1.2c0-1.4,0.6-3,1-4.1c-1.4-0.7-2.4-1.7-2.5-1.8c-0.5-0.5-0.4-1.3,0.1-1.7
	c0.5-0.5,1.3-0.4,1.7,0.1c0,0,1,1,2.2,1.4c0,0,0.1,0,0.1,0c0.1,0,0.1,0,0.2,0c0.8-0.1,2.4-0.8,3.7-1.6c0.1,0,0.1-0.1,0.2-0.1v-8.9
	c-1.6-0.2-3.8-0.9-5.1-2.8c-0.4-0.6-0.2-1.3,0.4-1.7c0.6-0.4,1.3-0.2,1.7,0.4c0.6,1,1.9,1.4,3,1.7V5.4c0-0.1,0-0.2,0-0.2
	c0-0.2,0-0.3,0-0.5C27,2.1,24.9,0,22.2,0c-1.4,0-2.6,0.6-3.5,1.6c0,0,0,0,0,0c-1.6,0-3,0.8-3.9,2c0.9,0.9,2.1,2.1,2.8,3.3
	c0.9-0.2,2.2-0.4,3.6-0.1c0.7,0.2,1,0.8,0.9,1.5c-0.2,0.6-0.8,1-1.5,0.9c-0.9-0.2-1.7-0.1-2.2,0c0,0.8-0.4,1.6-0.7,2.3
	c-0.5,1-1,2.1-1,3.9c0,0.7-0.5,1.2-1.2,1.2c0,0,0,0,0,0c-0.7,0-1.2-0.5-1.2-1.2c0-2.3,0.7-3.9,1.2-5c0.4-0.9,0.6-1.3,0.4-1.6
	c-0.4-0.9-1.8-2.4-3-3.6c-1.8,0.6-3.1,2.4-3.2,4.4c-2.6,0-4.7,2.2-4.7,4.7c0,0.7,0.1,1.3,0.4,1.9c-1.7,0.7-2.8,2.4-2.8,4.3
	c0,0.3,0,0.6,0.1,0.9c1.3,0.5,3.3,1.2,4.6,1.2c1.1,0,1.9-1.5,2.1-2c0.3-0.6,1-0.9,1.6-0.7c0.6,0.3,0.9,1,0.7,1.6
	c0,0.1-0.6,1.5-1.8,2.5c0,0,0,0,0.1,0.1c0.8,0.7,1.6,2.1,1.6,2.2c0.3,0.6,0.1,1.3-0.5,1.6C11,28,10.8,28,10.6,28
	c-0.4,0-0.8-0.2-1.1-0.6c-0.2-0.4-0.8-1.2-1.2-1.6C8,25.5,7.4,25.2,7,25c-1.4-0.1-3.3-0.6-4.5-1.1C2.2,24.6,2,25.2,2,26
	c0,1,0.3,1.9,0.9,2.7C2,29.5,1.5,30.7,1.5,32c0,0.9,0.2,1.7,0.7,2.4c1.2,0,3.9-0.2,5.9-0.7c0.6-0.2,1.3,0.2,1.5,0.8
	c0.2,0.6-0.2,1.3-0.8,1.5c-2.2,0.6-5.2,0.8-6.5,0.8c-0.1,0.3-0.1,0.7-0.1,1c0,1.7,1,3.3,2.4,4.1c-0.2,0.6-0.4,1.2-0.4,1.8
	c0,2,1.3,3.8,3.1,4.5c-0.1,0.3-0.1,0.6-0.1,0.9c0,2.1,1.3,3.8,3.2,4.5c1.4-1.2,2.8-2.6,3.4-3.7c0,0,0-0.1,0-0.1c0,0,0-0.1,0.1-0.1
	c0.1-0.3,0.2-0.5,0.2-0.7c0.1-2-2.1-4.2-2.1-4.2c-0.5-0.5-0.5-1.2,0-1.7c0.5-0.5,1.2-0.5,1.7,0c0.1,0.1,2.2,2.2,2.7,4.7
	c0.4-0.2,1-0.3,1.6-0.4c3-0.5,5.3,1.6,5.4,1.7c0.5,0.5,0.5,1.2,0.1,1.7c-0.5,0.5-1.2,0.5-1.7,0.1c0,0-1.5-1.4-3.3-1.1
	C16.5,50,15.8,51,15.8,51c0,0,0,0.1-0.1,0.1c-0.9,1.6-2.5,3.1-3.8,4.2c0.7,1.8,2.4,3.1,4.5,3.1c0.5,0,1-0.1,1.5-0.2
	c0.8,1.6,2.4,2.8,4.3,2.8c2.6,0,4.8-2.1,4.8-4.7c0,0,0,0,0,0c0,0,0,0,0,0L27,33.8L27,33.8z"/>
</svg>
