<svg width="28" height="28" viewBox="0 0 28 28" fill="none" xmlns="http://www.w3.org/2000/svg">
  <path d="M8.09731 13.6818H6.82316C6.49332 13.6818 6.22591 13.9871 6.22591 14.3636C6.22591 14.7402 6.49332 15.0455 6.82316 15.0455H8.09731C8.42716 15.0455 8.69457 14.7402 8.69457 14.3636C8.69457 13.9871 8.42716 13.6818 8.09731 13.6818Z" fill="#019867"/>
  <path d="M8.09731 16.5909H6.82316C6.49332 16.5909 6.22591 16.8962 6.22591 17.2727C6.22591 17.6493 6.49332 17.9545 6.82316 17.9545H8.09731C8.42716 17.9545 8.69457 17.6493 8.69457 17.2727C8.69457 16.8962 8.42716 16.5909 8.09731 16.5909Z" fill="#019867"/>
  <path d="M8.09731 19.5H6.82316C6.49332 19.5 6.22591 19.8053 6.22591 20.1818C6.22591 20.5584 6.49332 20.8636 6.82316 20.8636H8.09731C8.42716 20.8636 8.69457 20.5584 8.69457 20.1818C8.69457 19.8053 8.42716 19.5 8.09731 19.5Z" fill="#019867"/>
  <path d="M13.1939 13.6818H11.9198C11.5899 13.6818 11.3225 13.9871 11.3225 14.3636C11.3225 14.7402 11.5899 15.0455 11.9198 15.0455H13.1939C13.5237 15.0455 13.7912 14.7402 13.7912 14.3636C13.7912 13.9871 13.5237 13.6818 13.1939 13.6818Z" fill="#019867"/>
  <path d="M13.1939 16.5909H11.9198C11.5899 16.5909 11.3225 16.8962 11.3225 17.2727C11.3225 17.6493 11.5899 17.9545 11.9198 17.9545H13.1939C13.5237 17.9545 13.7912 17.6493 13.7912 17.2727C13.7912 16.8962 13.5237 16.5909 13.1939 16.5909Z" fill="#019867"/>
  <path d="M13.1939 19.5H11.9198C11.5899 19.5 11.3225 19.8053 11.3225 20.1818C11.3225 20.5584 11.5899 20.8636 11.9198 20.8636H13.1939C13.5237 20.8636 13.7912 20.5584 13.7912 20.1818C13.7912 19.8053 13.5237 19.5 13.1939 19.5Z" fill="#019867"/>
  <path d="M18.2905 13.6818H17.0163C16.6865 13.6818 16.4191 13.9871 16.4191 14.3636C16.4191 14.7402 16.6865 15.0455 17.0163 15.0455H18.2905C18.6203 15.0455 18.8877 14.7402 18.8877 14.3636C18.8877 13.9871 18.6203 13.6818 18.2905 13.6818Z" fill="#019867"/>
  <path d="M18.2905 16.5909H17.0163C16.6865 16.5909 16.4191 16.8962 16.4191 17.2727C16.4191 17.6493 16.6865 17.9545 17.0163 17.9545H18.2905C18.6203 17.9545 18.8877 17.6493 18.8877 17.2727C18.8877 16.8962 18.6203 16.5909 18.2905 16.5909Z" fill="#019867"/>
  <path d="M18.2905 19.5H17.0163C16.6865 19.5 16.4191 19.8053 16.4191 20.1818C16.4191 20.5584 16.6865 20.8636 17.0163 20.8636H18.2905C18.6203 20.8636 18.8877 20.5584 18.8877 20.1818C18.8877 19.8053 18.6203 19.5 18.2905 19.5Z" fill="#019867"/>
  <path d="M20.9582 5.31818H19.5248V4.18182C19.5248 3.80527 19.2574 3.5 18.9276 3.5C18.5977 3.5 18.3303 3.80527 18.3303 4.18182V5.31818H13.1541V4.18182C13.1541 3.80527 12.8867 3.5 12.5568 3.5C12.227 3.5 11.9596 3.80527 11.9596 4.18182V5.31818H6.78335V4.18182C6.78335 3.80527 6.51593 3.5 6.18609 3.5C5.85625 3.5 5.58883 3.80527 5.58883 4.18182V5.31818H4.15542C3.16744 5.31818 2.36365 6.23577 2.36365 7.36364V22.4545C2.36365 23.5824 3.16744 24.5 4.15542 24.5H20.9582C21.9462 24.5 22.75 23.5824 22.75 22.4545C22.75 22.0145 22.75 7.74659 22.75 7.36364C22.75 6.23577 21.9462 5.31818 20.9582 5.31818ZM3.55816 7.36364C3.55816 6.98768 3.82609 6.68182 4.15542 6.68182H5.58883V7.81818C5.58883 8.19473 5.85625 8.5 6.18609 8.5C6.51593 8.5 6.78335 8.19473 6.78335 7.81818V6.68182H11.9596V7.81818C11.9596 8.19473 12.227 8.5 12.5568 8.5C12.8867 8.5 13.1541 8.19473 13.1541 7.81818V6.68182H18.3303V7.81818C18.3303 8.19473 18.5977 8.5 18.9276 8.5C19.2574 8.5 19.5248 8.19473 19.5248 7.81818V6.68182H20.9582C21.2876 6.68182 21.5555 6.98768 21.5555 7.36364V10.0455H3.55816V7.36364ZM20.9582 23.1364H4.15542C3.82609 23.1364 3.55816 22.8305 3.55816 22.4545V11.4091H21.5555V22.4545C21.5555 22.8305 21.2876 23.1364 20.9582 23.1364Z" fill="#019867"/>
</svg>
