<svg width="42" height="40" viewBox="0 0 42 40" fill="none" xmlns="http://www.w3.org/2000/svg">
  <path d="M19.2495 39.2226C8.63608 39.2226 0 30.5868 0 19.9734C0 9.35999 8.63608 0.723907 19.2495 0.723907C22.9402 0.723907 26.5308 1.77554 29.6335 3.76698C30.2426 4.15918 30.4211 4.97114 30.0289 5.58186C29.6354 6.19259 28.8251 6.36915 28.2143 5.97727C25.5369 4.25691 22.4361 3.34883 19.2495 3.34883C10.0831 3.34883 2.62492 10.807 2.62492 19.9734C2.62492 29.1395 10.0831 36.5977 19.2495 36.5977C28.4156 36.5977 35.8738 29.1395 35.8738 19.9734C35.8738 19.4255 35.8475 18.883 35.7969 18.3495C35.727 17.6266 36.2554 16.9861 36.9764 16.9162C37.7008 16.8496 38.3394 17.3748 38.4096 18.0957C38.4689 18.7135 38.4987 19.3399 38.4987 19.9734C38.4987 30.5868 29.8629 39.2226 19.2495 39.2226Z" fill="#019867"/>
  <path d="M21.4367 24.3482C21.1009 24.3482 20.7648 24.2203 20.5094 23.9633L12.6347 16.0886C12.122 15.5756 12.122 14.7444 12.6347 14.2317C13.1473 13.719 13.9785 13.719 14.4912 14.2317L21.4386 21.1791L39.7586 2.85887C40.2716 2.3462 41.1028 2.3462 41.6155 2.85887C42.1281 3.37155 42.1281 4.20274 41.6155 4.71541L22.366 23.9649C22.1087 24.2203 21.7729 24.3482 21.4367 24.3482Z" fill="#019867"/>
</svg>
