<svg width="21" height="21" viewBox="0 0 21 21" fill="none" xmlns="http://www.w3.org/2000/svg">
  <path d="M0.29751 1.75216C-0.0962402 1.35841 -0.0962402 0.703074 0.29751 0.295557C0.705027 -0.0981934 1.34659 -0.0981934 1.75411 0.295557L10.4946 9.05076L19.2498 0.295557C19.6436 -0.0981934 20.2989 -0.0981934 20.6917 0.295557C21.0993 0.703074 21.0993 1.35932 20.6917 1.75216L11.9512 10.4936L20.6917 19.2488C21.0993 19.6425 21.0993 20.2979 20.6917 20.7054C20.298 21.0991 19.6427 21.0991 19.2498 20.7054L10.4946 11.9502L1.75411 20.7054C1.34659 21.0991 0.705027 21.0991 0.29751 20.7054C-0.0962402 20.2979 -0.0962402 19.6416 0.29751 19.2488L9.03803 10.4936L0.29751 1.75216Z" fill="#333333"/>
</svg>
