<svg width="10" height="10" viewBox="0 0 10 10" fill="none" xmlns="http://www.w3.org/2000/svg">
  <path d="M0.141708 0.834488C-0.0457916 0.646988 -0.0457916 0.334925 0.141708 0.140869C0.335764 -0.0466309 0.641271 -0.0466309 0.835327 0.140869L4.99748 4.31001L9.16662 0.140869C9.35412 -0.0466309 9.66618 -0.0466309 9.85325 0.140869C10.0473 0.334925 10.0473 0.647425 9.85325 0.834488L5.6911 4.99708L9.85325 9.16622C10.0473 9.35372 10.0473 9.66578 9.85325 9.85984C9.66575 10.0473 9.35368 10.0473 9.16662 9.85984L4.99748 5.69069L0.835327 9.85984C0.641271 10.0473 0.335764 10.0473 0.141708 9.85984C-0.0457916 9.66578 -0.0457916 9.35328 0.141708 9.16622L4.30386 4.99708L0.141708 0.834488Z" fill="#333333"/>
</svg>
