<?xml version="1.0" encoding="utf-8"?>
<!-- Generator: Adobe Illustrator 21.1.0, SVG Export Plug-In . SVG Version: 6.00 Build 0)  -->
<svg version="1.1" id="Layer_5" xmlns="http://www.w3.org/2000/svg" xmlns:xlink="http://www.w3.org/1999/xlink" x="0px" y="0px"
	 viewBox="0 0 512 512" style="enable-background:new 0 0 512 512;" xml:space="preserve">
<style type="text/css">
	.st0{fill:#FFFFFF;}
</style>
<g>
	<path class="st0" d="M384,200H272c-2.7,0-5.4,0.3-8,0.8V128c0-22.1-17.9-40-40-40h-8V27.7L184,6.4l-24,16l-24-16l-24,16l-24-16
		L56,27.7V88h-8c-22.1,0-40,17.9-40,40v145.9l0.8,1.7c9.9,19.8,15.2,42,15.2,64.2V448c0,22.1,17.9,40,40,40h144
		c10.2,0,19.5-4,26.6-10.3C240.2,493,254.8,504,272,504h112c22.1,0,40-17.9,40-40V240C424,217.9,406.1,200,384,200z M384,216
		c13.2,0,24,10.8,24,24v24H248v-24c0-13.2,10.8-24,24-24H384z M368,392c4.4,0,8,3.6,8,8s-3.6,8-8,8s-8-3.6-8-8S363.6,392,368,392z
		 M361.4,376h-67.7l-10.7-32h84.7L361.4,376z M296,400c0,4.4-3.6,8-8,8s-8-3.6-8-8s3.6-8,8-8S296,395.6,296,400z M377.4,296l-6.4,32
		H260.9l16.8,50.4c-8.1,3.9-13.7,12.1-13.7,21.6c0,13.2,10.8,24,24,24s24-10.8,24-24c0-2.8-0.6-5.5-1.5-8h35c-0.9,2.5-1.5,5.2-1.5,8
		c0,13.2,10.8,24,24,24s24-10.8,24-24c0-9.9-6-18.4-14.6-22.1l13.2-65.9H408v128H248V280h160v16H377.4z M72,36.3l16-10.7l24,16
		l24-16l24,16l24-16l16,10.7V88H72V36.3z M208,472H64c-13.2,0-24-10.8-24-24V339.8c0-24-5.5-48-16-69.6V128c0-13.2,10.8-24,24-24
		h176c13.2,0,24,10.8,24,24v80.2c-9.7,7.3-16,18.8-16,31.8V120H40v144h192v184C232,461.2,221.2,472,208,472L208,472z M216,136v112
		H56V136H216z M384,488H272c-13.2,0-24-10.8-24-24v-8h160v8C408,477.2,397.2,488,384,488z"/>
	<path class="st0" d="M320,232h48v16h-48V232z"/>
	<path class="st0" d="M288,232h16v16h-16V232z"/>
	<path class="st0" d="M56,456h160V344H56V456z M72,424h32v16H72V424z M152,392v16h-32v-16H152z M120,376v-16h32v16H120z M168,392h32
		v16h-32V392z M152,424v16h-32v-16H152z M104,408H72v-16h32V408z M168,440v-16h32v16H168z M200,376h-32v-16h32V376z M104,360v16H72
		v-16H104z"/>
	<path class="st0" d="M136,328c13.2,0,24-10.8,24-24s-10.8-24-24-24s-24,10.8-24,24S122.8,328,136,328z M136,296c4.4,0,8,3.6,8,8
		s-3.6,8-8,8s-8-3.6-8-8S131.6,296,136,296z"/>
	<path class="st0" d="M208,280h-16c-8.8,0-16,7.2-16,16v16c0,8.8,7.2,16,16,16h16c8.8,0,16-7.2,16-16v-16
		C224,287.2,216.8,280,208,280z M192,312v-16h16l0,16H192z"/>
	<path class="st0" d="M80,328c8.8,0,16-7.2,16-16v-16c0-8.8-7.2-16-16-16H64c-8.8,0-16,7.2-16,16v16c0,8.8,7.2,16,16,16H80z M64,296
		h16l0,16H64V296z"/>
	<path class="st0" d="M88,56h96v16H88V56z"/>
	<path class="st0" d="M352,184c6.4,0,12.4-2.5,17-7c9.4-9.4,9.4-24.6,0-33.9c-9.1-9.1-24.9-9.1-33.9,0c-9.4,9.4-9.4,24.6,0,33.9
		C339.6,181.5,345.6,184,352,184z M346.3,154.3c1.5-1.5,3.5-2.3,5.7-2.3s4.1,0.8,5.7,2.3c3.1,3.1,3.1,8.2,0,11.3c-3,3-8.3,3-11.3,0
		C343.2,162.5,343.2,157.5,346.3,154.3z"/>
	<path class="st0" d="M352,72h-8v48h8c22.1,0,40,17.9,40,40v8h48v-8C440,111.5,400.5,72,352,72z M407.4,152
		c-3.5-24.5-22.9-43.9-47.4-47.4V88.4c33.3,3.7,59.9,30.2,63.6,63.6L407.4,152L407.4,152z"/>
	<path class="st0" d="M352,8h-8v48h8c57.3,0,104,46.7,104,104v8h48v-8C504,76.2,435.8,8,352,8z M471.7,152
		c-4-59.8-51.9-107.8-111.7-111.7v-16c68.6,4,123.8,59.1,127.8,127.8H471.7z"/>
</g>
</svg>
