<?xml version="1.0" encoding="utf-8"?>
<!-- Generator: Adobe Illustrator 21.1.0, SVG Export Plug-In . SVG Version: 6.00 Build 0)  -->
<svg version="1.1" id="Layer_1" xmlns="http://www.w3.org/2000/svg" xmlns:xlink="http://www.w3.org/1999/xlink" x="0px" y="0px"
	 viewBox="0 0 49 53" style="enable-background:new 0 0 49 53;" xml:space="preserve">
<style type="text/css">
	.st0{fill:#12B1EE;}
</style>
<path class="st0" d="M33.8,3.6C33.8,3.6,33.8,3.6,33.8,3.6c-0.1,0.5-1.4,4.9-8.8,4.9c-7.4,0-8.7-4.4-8.8-4.9c0,0,0,0,0,0
	c0,0,0,0,0,0c0,0,0,0,0,0c0-0.1,0-0.1,0-0.2c0,0,0,0,0,0c0-0.1,0-0.1,0-0.2c0,0,0,0,0,0c0-0.1,0-0.1,0.1-0.2c0,0,0,0,0,0
	c0-0.1,0.1-0.1,0.1-0.2c0,0,0,0,0,0c0,0,0,0,0,0c0,0,0,0,0-0.1C16.6,2.5,19,0,21.9,0c1.5,0,2.5,0.3,3.1,0.6C25.6,0.3,26.6,0,28.1,0
	c2.9,0,5.4,2.5,5.5,2.6c0,0,0,0,0,0.1c0,0,0,0,0,0c0,0,0,0,0,0c0,0.1,0.1,0.1,0.1,0.2c0,0,0,0,0,0c0,0.1,0,0.1,0.1,0.2c0,0,0,0,0,0
	c0,0.1,0,0.1,0,0.2c0,0,0,0,0,0C33.8,3.4,33.8,3.5,33.8,3.6C33.8,3.5,33.8,3.6,33.8,3.6C33.8,3.6,33.8,3.6,33.8,3.6z M49,27.5
	l-0.7,4.2c-0.9,5-6.9,10.5-11.8,13.7c-5.4,3.6-10.8,7.4-10.8,7.4C25.4,52.9,25.2,53,25,53c-0.2,0-0.4-0.1-0.6-0.2
	c-0.1,0-5.4-3.9-10.8-7.4c-4.9-3.2-11-8.7-11.8-13.7L1,27.5c-0.1-0.4,0.1-0.8,0.4-1c0.3-0.2,0.7-0.3,1-0.2c0,0,2.2,0.8,4.4,0.8
	c1.5,0,2.5-0.4,3-1.2c1.4-2.4,1.5-10.6,1.4-14.1c-0.5-0.5-1.5-1.6-2.3-2.6c-1-1.3-3.1-5.1-3.1-5.3C5.4,3.4,5.6,2.8,6.1,2.5
	c0.5-0.3,1.1-0.1,1.4,0.4c0,0,2.1,3.8,3,5c0.8,1.1,2.1,2.4,2.3,2.6c0,0,0,0,0,0c1.1,1,4.3,3.7,5.7,4.4c1.1,0.6,3.8,0.8,6,0.8
	c0.2,0,0.4,0,0.4,0c0,0,0,0,0,0c0,0,0.1,0,0.4,0c2.2,0,4.9-0.2,6-0.8c1.5-0.8,4.7-3.5,5.7-4.4c0.1-0.1,0.1-0.1,0.2-0.1
	c0.4-0.4,1.5-1.5,2.2-2.4c0.9-1.2,2.9-5,3-5c0.3-0.5,0.9-0.7,1.4-0.4c0.5,0.3,0.7,0.9,0.4,1.4c-0.1,0.2-2.1,4-3.1,5.3
	c-0.7,1-1.8,2-2.3,2.6c-0.1,3.5,0.1,11.7,1.4,14.1c0.5,0.8,1.4,1.2,3,1.2c2.1,0,4.3-0.8,4.4-0.8c0.3-0.1,0.7-0.1,1,0.2
	C48.9,26.7,49,27.1,49,27.5z M22.3,32.5c-0.4-0.4-1.1-0.4-1.5,0c0,0-1.2,0.7-5,0.3c-4.5-0.5-8.9-2.2-8.9-2.2
	c-0.5-0.2-1.1,0.1-1.3,0.6c-0.2,0.5,0.1,1.2,0.6,1.4c0.2,0.1,4.7,1.8,9.4,2.3c0.9,0.1,1.7,0.1,2.4,0.1c2.9,0,4-0.8,4.3-1.1
	C22.7,33.6,22.7,32.9,22.3,32.5z M44.5,31.2c-0.2-0.5-0.8-0.8-1.3-0.6c0,0-4.4,1.7-8.9,2.2c-3.7,0.4-4.9-0.3-5-0.3
	c-0.4-0.4-1.1-0.4-1.5,0c-0.4,0.4-0.4,1.1,0,1.5c0.3,0.3,1.3,1.1,4.3,1.1c0.7,0,1.5,0,2.4-0.1c4.8-0.5,9.2-2.2,9.4-2.3
	C44.4,32.4,44.7,31.8,44.5,31.2z"/>
</svg>
