<?xml version="1.0" encoding="utf-8"?>
<!-- Generator: Adobe Illustrator 21.1.0, SVG Export Plug-In . SVG Version: 6.00 Build 0)  -->
<svg version="1.1" id="Layer_1" xmlns="http://www.w3.org/2000/svg" xmlns:xlink="http://www.w3.org/1999/xlink" x="0px" y="0px"
	 viewBox="0 0 58 61" style="enable-background:new 0 0 58 61;" xml:space="preserve">
<style type="text/css">
	.st0{fill:#12B1EE;}
</style>
<path class="st0" d="M57.7,28.9c-10.4-11.1-22.2-15.2-35-12.1C12.8,19.3,5,25.5,1.2,29c-1.4,1.3-1.6,3.4-0.4,4.9
	C1.9,35.3,4,35.8,5.6,35l1.2-0.6c7.4,6.5,15.1,9.8,22.9,9.8c0.5,0,1,0,1.6,0c12.8-0.7,21-9.8,21.4-10.2c0.3-0.4,0.3-1-0.1-1.3
	c-0.4-0.3-1-0.3-1.3,0.1c-0.1,0.1-8.1,8.9-20.1,9.6c-8,0.4-15.9-2.8-23.6-9.7c-0.3-0.3-0.7-0.3-1-0.2l-1.8,0.8
	c-0.9,0.4-2,0.2-2.6-0.6C1.7,32,1.8,31,2.5,30.4c6.8-6.3,30.7-24.9,53.9-0.1c0.4,0.4,0.9,0.4,1.3,0C58.1,29.9,58.1,29.3,57.7,28.9z"
	/>
<path class="st0" d="M50.6,31c0.2,0,0.5-0.1,0.7-0.3c0.4-0.4,0.4-1,0-1.3c-5.1-5.2-10.3-8-15.2-9.1c-4.6-1.3-9.4-1.1-14.4,0.6
	C13,23.6,7,29.3,6.9,29.4c-0.4,0.4-0.4,1,0,1.3c0.4,0.4,1,0.4,1.3,0c0,0,3.9-3.7,9.8-6.4c-0.4,1.3-0.7,2.6-0.7,3.9
	c0,6.7,5.5,12.2,12.2,12.2s12.2-5.5,12.2-12.2c0-1.4-0.3-2.8-0.7-4.1c3.1,1.5,6,3.7,8.9,6.6C50.1,30.9,50.3,31,50.6,31z M29.5,38.4
	c-5.6,0-10.2-4.6-10.2-10.2c0-1.6,0.4-3.2,1.1-4.6c2.1-0.9,4.2-1.5,6.3-1.8c-1.1,0.5-2.1,1.2-2.8,2.2c1.3,0,2.3,1,2.3,2.3
	c0,1.3-1,2.3-2.3,2.3c-0.5,0-1-0.2-1.4-0.5c0,0,0,0,0,0c0,3.9,3.1,7,7,7c3.9,0,7-3.1,7-7c0-3-1.9-5.6-4.6-6.6
	c2.2,0.2,4.4,0.8,6.5,1.7c0.8,1.5,1.2,3.2,1.2,4.9C39.7,33.8,35.1,38.4,29.5,38.4z"/>
</svg>
