<?xml version="1.0" encoding="utf-8"?>
<!-- Generator: Adobe Illustrator 21.1.0, SVG Export Plug-In . SVG Version: 6.00 Build 0)  -->
<svg version="1.1" id="Layer_1" xmlns="http://www.w3.org/2000/svg" xmlns:xlink="http://www.w3.org/1999/xlink" x="0px" y="0px"
	 viewBox="0 0 512 512" style="enable-background:new 0 0 512 512;" xml:space="preserve">
<style type="text/css">
	.st0{fill:#12B1EE;}
</style>
<path class="st0" d="M426.6,75.4h-67.3c-52.4,0-95,42.6-95,95v56.8h-53.3c-5.5,0-10,4.5-10,10v76.9c0,5.5,4.5,10,10,10h53.3V492H30
	c-5.5,0-10-4.5-10-10V30c0-5.5,4.5-10,10-10h20c5.5,0,10-4.5,10-10S55.5,0,50,0H30C13.5,0,0,13.5,0,30v452c0,16.5,13.5,30,30,30
	h244.2c5.5,0,10-4.5,10-10V314.2c0-5.5-4.5-10-10-10H221v-56.9h53.3c5.5,0,10-4.5,10-10v-66.8c0-41.4,33.7-75,75-75h57.3v56.9h-57.3
	c-9.8,0-18.1,8.3-18.1,18.1v66.8c0,5.5,4.5,10,10,10h64l-7.5,56.9h-56.5c-5.5,0-10,4.5-10,10V502c0,5.5,4.5,10,10,10H382
	c5.5,0,10-4.5,10-10s-4.5-10-10-10h-20.8V324.2h55.3c5,0,9.3-3.7,9.9-8.7l10.1-76.9c0.4-2.9-0.5-5.7-2.4-7.9
	c-1.9-2.2-4.6-3.4-7.5-3.4h-65.4v-54.9h65.4c5.5,0,10-4.5,10-10V85.4C436.6,79.9,432.1,75.4,426.6,75.4z"/>
<path class="st0" d="M482,0H130c-5.5,0-10,4.5-10,10s4.5,10,10,10h352c5.5,0,10,4.5,10,10v452c0,5.5-4.5,10-10,10h-20
	c-5.5,0-10,4.5-10,10s4.5,10,10,10h20c16.5,0,30-13.5,30-30V30C512,13.5,498.5,0,482,0z"/>
<path class="st0" d="M422,492L422,492c-5.5,0-10,4.5-10,10s4.5,10,10,10s10-4.5,10-10S427.5,492,422,492z"/>
<path class="st0" d="M90,20c5.5,0,10-4.5,10-10S95.5,0,90,0h0c-5.5,0-10,4.5-10,10S84.5,20,90,20z"/>
</svg>
