<?xml version="1.0" encoding="utf-8"?>
<!-- Generator: Adobe Illustrator 21.1.0, SVG Export Plug-In . SVG Version: 6.00 Build 0)  -->
<svg version="1.1" id="Layer_1" xmlns="http://www.w3.org/2000/svg" xmlns:xlink="http://www.w3.org/1999/xlink" x="0px" y="0px"
	 viewBox="0 0 50 71" style="enable-background:new 0 0 50 71;" xml:space="preserve">
<style type="text/css">
	.st0{fill:#12B1EE;}
</style>
<path class="st0" d="M42.3,58.5c-2.5,4.5-5.1,8.1-7.1,9.8c-2.1,1.8-4.4,2.7-7,2.7c-5.1,0-11.1-3.6-18.2-11
	c-6.7-6.9-8.8-14.9-9.4-20.4C0,33.4,1.1,27.2,3.4,23.9c0,0,0.1-0.1,0.1-0.1c0.1-0.1,0.3-0.3,0.6-0.7c4.7,1.1,12.1,3.7,16.8,9.3
	c4.2,5,6.1,9.7,7.6,13.5c1.3,3.2,2.4,5.9,4.4,7.9C35.7,56.5,39.6,57.8,42.3,58.5z M23.1,30.6c3.6,4.3,5.6,8.4,7.1,11.8
	c2.1-0.4,7.1-1.8,11.1-6c3.2-3.3,4.9-8.9,5.8-12.9c-1.4-2.1-3.2-3.1-5-3.8c-0.4-0.2-0.7-0.3-0.9-0.4c-0.7-0.4-1.1-3.5-0.3-8.2
	c0.4-2.2,0.8-3,0.8-3c0.2-0.4,0.2-0.8,0-1.2c-0.2-0.4-0.5-0.7-1-0.8l-3.8-0.8c-0.7-0.2-1.5,0.3-1.6,1c-0.9,3.8-2.8,10.3-3.8,11.6
	c-0.1,0.1-0.3,0.3-0.5,0.3c-0.4,0-1.2-0.8-1.2-1.9C29.7,14.5,30.4,5,30.7,1.5c0-0.4-0.1-0.8-0.4-1c-0.3-0.3-0.6-0.4-1-0.4h-3.2
	c-0.7,0-1.3,0.6-1.4,1.3c0,0.1-0.7,10.4-1.4,13.8c-0.3,1.4-0.8,4.3-1.7,4.3c-0.1,0-0.3,0-0.7-0.2c-1.6-0.7-2.9-6.3-3.3-8.3
	c-0.7-2.9-0.7-5.7-0.7-5.8c0-0.4-0.2-0.8-0.5-1.1c-0.3-0.3-0.8-0.3-1.2-0.2l-3.9,1c-0.7,0.2-1.2,0.9-1,1.7c0,0,0.9,3.5,1.5,6.7
	c0.4,1.9-0.5,3.9-2.1,5c-0.4,0.2-0.7,0.5-1.1,0.7c-0.6,0.4-1.4,1.2-2.2,2C11.3,22.2,18.3,25,23.1,30.6z M43.3,38.4
	c-4.3,4.4-9.4,6-12.1,6.6c1.2,2.9,2.1,5.2,3.7,6.8c2.5,2.5,6.3,3.6,8.7,4.2c3.3-6.7,6-14.9,5.9-21.9c0-2.5-0.3-4.5-0.7-6.2
	C47.7,31.6,46,35.7,43.3,38.4z"/>
</svg>
