<?xml version="1.0" encoding="utf-8"?>
<!-- Generator: Adobe Illustrator 21.1.0, SVG Export Plug-In . SVG Version: 6.00 Build 0)  -->
<svg version="1.1" id="_x33_0" xmlns="http://www.w3.org/2000/svg" xmlns:xlink="http://www.w3.org/1999/xlink" x="0px" y="0px"
	 viewBox="0 0 512 512" style="enable-background:new 0 0 512 512;" xml:space="preserve">
<style type="text/css">
	.st0{fill:#FFFFFF;}
</style>
<g>
	<path class="st0" d="M464,104c0-52.9-43.1-96-96-96c-32,0-60.4,15.8-77.8,40H139.9L56,165.4V504h336V196.8
		C433.3,186.1,464,148.6,464,104z M152,96h120.4c-0.2,2.6-0.4,5.3-0.4,8c0,14.3,3.2,27.8,8.8,40H152V96z M275.2,80H152V64h128.8
		C278.5,69.1,276.6,74.5,275.2,80z M136,81v79H79.5L136,81z M376,488H72V176h80v-16h138.2c17.4,24.2,45.8,40,77.8,40
		c2.7,0,5.4-0.2,8-0.4L376,488z M368,184c-44.1,0-80-35.9-80-80s35.9-80,80-80s80,35.9,80,80S412.1,184,368,184z"/>
	<path class="st0" d="M120,408h208V200H120V408z M136,392V256h176v136H136z M312,216v24H136v-24H312z"/>
	<path class="st0" d="M120,424h96v16h-96V424z"/>
	<path class="st0" d="M232,424h96v16h-96V424z"/>
	<path class="st0" d="M120,456h112v16H120V456z"/>
	<path class="st0" d="M248.6,272c-8,0-18,7.2-25,13c-6.6-5.9-16.1-13-24.2-13c-16.3,0-32.5,11.7-37.7,27.2
		c-5.2,15.5,1,31.3,16.9,43.2c31,23.2,39.8,31.4,39.9,31.5l5.5,5l5.4-5c0.1-0.1,8.9-8.2,39.9-31.5c15.9-11.9,22-27.7,16.9-43.2
		C281.1,283.7,264.9,272,248.6,272L248.6,272z M259.8,329.6c-19.2,14.4-30.1,23.1-35.8,27.9c-5.7-4.8-16.6-13.5-35.8-27.9
		c-10.3-7.8-14.2-16.5-11.3-25.3c3-9.1,12.9-16.3,22.4-16.3c2.9,0.2,11.6,6.7,18.3,13.6l5.6,5.7l5.8-5.5c7.3-7,16.6-13.6,19.6-13.8
		c9.6,0,19.4,7.1,22.5,16.3C274,313.1,270.1,321.8,259.8,329.6L259.8,329.6z"/>
	<path class="st0" d="M248,456h80v16h-80V456z"/>
	<path class="st0" d="M168,112h88v16h-88V112z"/>
</g>
</svg>
