<?xml version="1.0" encoding="utf-8"?>
<!-- Generator: Adobe Illustrator 22.1.0, SVG Export Plug-In . SVG Version: 6.00 Build 0)  -->
<svg version="1.1" id="Слой_1" xmlns="http://www.w3.org/2000/svg" xmlns:xlink="http://www.w3.org/1999/xlink" x="0px" y="0px"
	 viewBox="0 0 7 12" style="enable-background:new 0 0 7 12;" xml:space="preserve">
<style type="text/css">
	.st0{fill:#585858;}
</style>
<g>
	<g>
		<path class="st0" d="M0,6c0,0.2,0.1,0.3,0.2,0.5l5.3,5.3C5.6,11.9,5.8,12,6,12c0.2,0,0.3-0.1,0.5-0.2l0.4-0.4
			C6.9,11.3,7,11.1,7,10.9c0-0.2-0.1-0.3-0.2-0.5L2.4,6l4.5-4.5c0.3-0.3,0.3-0.7,0-0.9L6.4,0.2C6.3,0.1,6.1,0,6,0
			C5.8,0,5.6,0.1,5.5,0.2L0.2,5.5C0.1,5.7,0,5.8,0,6z"/>
	</g>
</g>
</svg>
