<?xml version="1.0" encoding="utf-8"?>
<!-- Generator: Adobe Illustrator 21.1.0, SVG Export Plug-In . SVG Version: 6.00 Build 0)  -->
<svg version="1.1" id="Layer_1" xmlns="http://www.w3.org/2000/svg" xmlns:xlink="http://www.w3.org/1999/xlink" x="0px" y="0px"
	 viewBox="0 0 58 61" style="enable-background:new 0 0 58 61;" xml:space="preserve">
<style type="text/css">
	.st0{fill:#12B1EE;}
</style>
<path class="st0" d="M36.5,36.5c-0.3,2.9-2,5.5-4.6,7c-7.1,4.3-19.3,11.6-21.4,13c-0.7,0.5-1.5,0.7-2.3,0.7c-2.7,0-4.5-2.6-4.6-6.7
	c-0.1-3.7-0.8-6.3-1.5-9.3c-0.6-2.3-1.2-4.6-1.7-7.8C-0.1,30.5-1.1,20.6,5,14.2c3.5-3.7,8.7-5.6,15.4-5.6c0.3,0,0.6,0,0.9,0
	c4.4,0.1,7.8,1.5,10.4,4.2C37.5,19,37.2,30.3,36.5,36.5z M57.3,17.3c-3.2-4-17.4-4.2-17.5-4.2c-1.1,0-1.4,0-1.7,0.3
	c-0.3,0.2-0.5,0.4-0.7,0.8c-0.2,0.3-0.2,0.7,0,1c2.8,6.3,2.7,14.5,2.3,18.8c0,0.5-0.1,1-0.2,1.5c-0.1,0.3,0,0.7,0.2,1
	c0.2,0.3,0.5,0.5,0.8,0.5c0.1,0,0.2,0,0.3,0c0,0,0,0,0,0c3,0,8.3-5,9.8-6.5c3.1-3.1,6.7-7.5,7.3-10.5C58.1,19.1,57.9,18.1,57.3,17.3
	z"/>
</svg>
