<?xml version="1.0" encoding="utf-8"?>
<!-- Generator: Adobe Illustrator 21.1.0, SVG Export Plug-In . SVG Version: 6.00 Build 0)  -->
<svg version="1.1" id="Layer_1" xmlns="http://www.w3.org/2000/svg" xmlns:xlink="http://www.w3.org/1999/xlink" x="0px" y="0px"
	 viewBox="0 0 55 53" style="enable-background:new 0 0 55 53;" xml:space="preserve">
<style type="text/css">
	.st0{fill:#12B1EE;}
</style>
<path class="st0" d="M52.3,21.7c-4.3-9.5-9.7-15.2-14.4-15.2c-0.9,0-1.8,0.2-2.6,0.7c-3.8,2.3-4,9.7-4,10.5c0,0.3-0.1,2.3-0.1,5.1
	l-1.5-0.6V1.1c0-0.6-0.5-1.1-1.1-1.1h-2.2c-0.6,0-1.1,0.5-1.1,1.1v21.2l-1.5,0.6c0-2.8-0.1-4.8-0.1-5.1c0-0.8-0.2-8.2-4-10.5
	c-0.8-0.5-1.6-0.7-2.6-0.7c-4.7,0-10.1,5.7-14.4,15.2C-3,34.3,2.1,51.5,2.3,52.2c0.1,0.5,0.6,0.8,1,0.8c0.1,0,0.2,0,0.2,0
	c0.2,0,4.7-1.1,9.3-2.8c6.6-2.4,10.1-4.8,10.5-7.3c0.5-3.1,0.5-11.5,0.5-17.7l2.9-1.1h1.5l2.9,1.1c-0.1,6.3-0.1,14.7,0.5,17.7
	c0.4,2.5,3.9,4.9,10.5,7.3c4.7,1.7,9.1,2.8,9.3,2.8c0.1,0,0.2,0,0.2,0c0.5,0,0.9-0.3,1-0.8C52.9,51.5,58,34.3,52.3,21.7z M20.8,26.5
	l-7.6,3.9v3.2l0.6,1.8l1.4,1.4c0.4,0.4,0.4,1.1,0,1.5c-0.2,0.2-0.5,0.3-0.8,0.3c-0.3,0-0.5-0.1-0.7-0.3l-1.6-1.5l-1.8,2
	c-0.2,0.2-0.5,0.4-0.8,0.4c-0.3,0-0.5-0.1-0.7-0.3c-0.4-0.4-0.5-1.1-0.1-1.5l2.2-2.5v-3.3l-4.2,2.2c-0.2,0.1-0.3,0.1-0.5,0.1
	c-0.4,0-0.8-0.2-0.9-0.6c-0.3-0.5-0.1-1.2,0.5-1.4l0.9-0.5L5.2,30c-0.5-0.4-0.5-1-0.2-1.5c0.4-0.5,1-0.5,1.5-0.2l2.4,1.9l5.8-3
	l-5-3.8c-0.5-0.4-0.6-1-0.2-1.5c0.4-0.5,1-0.6,1.5-0.2l1.6,1.2l0.1-1.2c0.1-0.6,0.6-1,1.2-0.9c0.6,0.1,1,0.6,0.9,1.2l-0.3,2.5
	l2.2,1.7l3-1.5c0.5-0.3,1.2-0.1,1.4,0.5C21.5,25.6,21.3,26.3,20.8,26.5z M49.8,30l-1.7,1.3l0.9,0.5c0.5,0.3,0.7,0.9,0.5,1.4
	c-0.2,0.4-0.6,0.6-0.9,0.6c-0.2,0-0.3,0-0.5-0.1l-4.2-2.2v3.3l2.2,2.5c0.4,0.4,0.4,1.1-0.1,1.5c-0.2,0.2-0.5,0.3-0.7,0.3
	c-0.3,0-0.6-0.1-0.8-0.4l-1.8-2l-1.6,1.5c-0.2,0.2-0.5,0.3-0.7,0.3c-0.3,0-0.6-0.1-0.8-0.3c-0.4-0.4-0.4-1.1,0-1.5l1.4-1.4l0.6-1.8
	v-3.2l-7.6-3.9c-0.5-0.3-0.7-0.9-0.5-1.4c0.3-0.5,0.9-0.7,1.4-0.5l3,1.5l2.2-1.7L40.1,22c-0.1-0.6,0.4-1.1,0.9-1.2
	c0.6-0.1,1.1,0.4,1.2,0.9l0.1,1.2l1.6-1.2c0.5-0.4,1.1-0.3,1.5,0.2c0.4,0.5,0.3,1.1-0.2,1.5l-5,3.8l5.8,3l2.4-1.9
	c0.5-0.4,1.1-0.3,1.5,0.2C50.4,29,50.3,29.6,49.8,30z"/>
</svg>
