<svg width="58" height="64" viewBox="0 0 58 64" fill="none" xmlns="http://www.w3.org/2000/svg">
  <path opacity="0.7" d="M53.6822 14.848L53.36 15.296C53.5533 14.016 53.2955 12.224 52.9733 11.2C52.5222 12.864 51.6844 14.336 50.5244 15.744L50.46 14.912C49.1067 17.024 47.4311 18.752 45.5622 19.584C45.5622 19.264 45.4978 18.88 45.3689 18.624C42.92 21.824 36.9911 21.056 37.6355 27.52C38.9889 27.328 39.6333 28.672 38.4733 29.952C37.9578 29.952 37.4422 29.76 36.9911 29.504L37.2489 29.12L36.2178 28.608C36.4755 28.544 36.7333 28.416 36.9911 28.288C35.4444 27.52 35.96 26.048 34.1555 25.28C33.8333 24.96 33.5755 24.512 33.3822 24.064C33.3178 23.744 33.2533 23.36 33.1889 22.976C33.1889 22.208 33.1889 21.76 33.3822 21.44L33.5111 21.632C33.9622 20.608 34.5422 19.84 35.3155 19.392C37.4422 19.456 38.6667 19.328 39.0533 18.048C38.9244 18.112 38.86 18.112 38.7955 18.112C38.7311 17.984 38.6667 17.92 38.6022 17.856C39.1178 17.664 39.8911 17.984 40.0844 17.984C40.02 17.344 39.7622 17.152 39.6333 16.896L40.3422 16.384C42.1467 16.96 43.6933 15.616 44.7889 16.192L45.1755 14.848C43.5644 14.08 42.5978 15.104 41.2444 15.104C41.6311 14.272 41.6955 13.504 41.3733 12.736L39.9555 12.288C38.2155 12.8 38.28 14.4 38.9244 15.488C38.5378 15.872 38.1511 16.064 37.8933 16.192L37.4422 16.256C37.4422 16.256 37.3778 15.68 36.6044 15.488V15.104C37.5711 14.336 37.6355 13.568 37.4422 13.12C37.2489 12.672 36.7333 12.416 36.2822 12.544L35.6378 12.736L35.5733 12.608C35.6378 12.544 35.6378 12.48 35.6378 12.416C35.6378 12.288 35.5733 12.16 35.5089 12.096H35.5733L35.5089 11.84L35.7667 11.904V11.008L35.5089 11.072L35.5733 10.816H34.6711L34.7355 11.072L34.4778 11.008V11.904L34.7355 11.84L34.4778 12.16H34.6067C34.5422 12.224 34.4778 12.352 34.4778 12.48C34.4778 12.544 34.4778 12.672 34.5422 12.736L34.4778 12.864L33.8333 12.672C33.3822 12.544 32.8667 12.736 32.6733 13.248C32.48 13.696 32.5444 14.4 33.5111 15.232V15.744C33.2533 15.744 32.9955 15.744 32.8022 15.744C32.0289 15.296 31.3844 14.528 31.1911 13.568C31.7067 13.504 32.0933 13.312 32.4155 12.992V11.648C34.4778 10.112 35.0578 8.06401 33.2533 7.16801C32.2222 6.65601 30.9333 7.10401 30.2889 7.61601C30.16 7.42401 29.9667 7.23201 29.7733 7.16801C29.7733 6.97601 29.7089 6.78401 29.5155 6.59201H29.6444L29.5155 6.14401L29.9667 6.27201V4.86401L29.5155 4.99201L29.6444 4.54401H28.2267L28.3555 4.99201L27.9044 4.86401V6.27201L28.3555 6.14401L28.2267 6.59201H28.3555C28.2267 6.72001 28.0978 6.91201 28.0978 7.16801V7.23201C27.9689 7.29601 27.7755 7.48801 27.6467 7.61601C27.0022 7.10401 25.7133 6.65601 24.7467 7.16801C22.9422 8.06401 23.5222 10.112 25.5844 11.648V12.992C25.9067 13.312 26.3578 13.504 26.8089 13.568C26.6155 14.464 25.9711 15.232 25.1978 15.744C25.0044 15.744 24.7467 15.744 24.4889 15.744V15.168C25.4555 14.4 25.52 13.632 25.3267 13.184C25.1333 12.736 24.6178 12.48 24.1667 12.608L23.5222 12.8L23.4578 12.672C23.5222 12.608 23.5222 12.544 23.5222 12.48C23.5222 12.352 23.4578 12.224 23.3933 12.16H23.4578L23.3933 11.904L23.6511 11.968V11.072L23.3933 11.136L23.4578 10.88H22.5555L22.62 11.136L22.3622 11.072V11.968L22.62 11.904V12.16H22.7489C22.6844 12.224 22.62 12.352 22.62 12.48C22.62 12.544 22.62 12.672 22.6844 12.736L22.62 12.864L21.9755 12.672C21.5244 12.544 21.0089 12.736 20.8155 13.248C20.6222 13.696 20.6867 14.4 21.6533 15.232V15.616C20.88 15.808 20.8155 16.448 20.8155 16.448H20.4933C20.2355 16.32 19.6555 15.936 19.2689 15.552C19.9133 14.4 19.9133 12.992 18.2378 12.48L16.7555 12.8C16.4333 13.568 16.4978 14.272 16.8844 15.104C15.5311 15.104 14.5644 14.08 12.9533 14.848L13.34 16.192C14.4355 15.616 15.9822 16.96 17.7867 16.384L18.4955 16.896C18.2378 17.216 17.98 17.536 17.9155 18.112C18.3667 17.856 18.8178 17.792 19.5267 17.92C19.2689 17.92 19.2044 18.048 19.2044 18.112C19.2689 18.176 19.3333 18.176 19.3333 18.176C19.2689 18.176 19.0755 18.112 18.8822 18.112C19.2689 19.328 20.5578 19.456 22.6844 19.392C23.4578 19.776 23.9733 20.544 24.4889 21.632L24.6178 21.44C24.7467 21.824 24.8111 22.208 24.8111 22.976C24.8111 23.424 24.7467 23.744 24.6178 24.064C24.36 24.512 24.1022 24.96 23.8444 25.28C22.04 26.048 22.5555 27.52 21.0089 28.224C21.2667 28.416 21.46 28.544 21.7822 28.544L20.7511 29.056L21.0089 29.44C20.5578 29.696 20.1067 29.888 19.5267 29.888C18.3022 28.608 18.9467 27.328 20.3644 27.456C21.0089 20.992 15.08 21.824 12.6311 18.56C12.5667 18.816 12.5022 19.2 12.4378 19.52C10.5689 18.688 8.89332 16.96 7.53999 14.848L7.47555 15.68C6.37999 14.272 5.54221 12.736 5.02666 11.136C4.70444 12.16 4.44666 13.952 4.63999 15.232L4.31777 14.784C3.67332 17.216 3.73777 18.816 5.0911 20.928C5.28444 22.272 5.86444 23.616 6.50888 24.64C6.12221 24.576 5.86444 24.512 5.47777 24.512C6.18666 25.856 7.02444 27.136 7.79777 27.968L6.70221 28.288C7.66888 29.76 8.76444 30.72 10.0533 31.552C9.47332 31.68 9.21555 31.872 8.76444 32.192C9.60221 33.088 10.3111 33.536 11.4711 33.856C10.5689 34.176 10.1822 34.56 9.92444 35.264C11.0844 35.648 12.3733 35.904 13.6622 35.84C12.8889 36.288 12.18 36.8 11.7933 37.504L11.5355 37.376C11.4067 37.312 11.3422 37.312 11.2133 37.312C10.9555 37.312 10.6333 37.504 10.5689 37.76C10.5689 37.824 10.5044 37.888 10.5044 37.888V38.016C10.44 38.08 10.3111 38.144 10.2467 38.208L9.92444 38.08C9.79555 38.016 9.66666 38.016 9.53777 38.016C9.21555 38.016 8.89332 38.208 8.76444 38.528C8.5711 38.976 8.76444 39.424 9.1511 39.68L9.40888 39.808H9.47332C9.47332 39.936 9.47332 40 9.47332 40.128L9.40888 40.256C9.40888 40.32 9.34444 40.32 9.34444 40.384C9.27999 40.576 9.27999 40.768 9.34444 40.96C9.40888 41.152 9.53777 41.28 9.7311 41.408L10.2467 41.664L10.1178 41.6L10.3755 41.728L11.2778 42.176L11.3422 42.24C10.6978 43.008 9.92444 43.456 9.02221 43.456C8.89332 43.456 8.76444 43.456 8.5711 43.456L8.37777 43.328H8.31332C7.92666 43.264 7.53999 43.136 7.15332 42.944L6.70221 42.688L6.8311 43.2C7.08888 44.416 8.18444 45.632 9.85999 46.72C11.4711 47.68 13.2111 48.256 14.6933 48.256C15.4667 48.256 16.1111 48.064 16.5622 47.744L17.0133 47.424L16.4978 47.296C16.1111 47.168 15.7244 46.976 15.4667 46.784L15.2089 46.72L15.0155 46.528C14.1133 45.696 14.1133 44.48 14.3711 43.584H14.4355L15.3378 44.032L15.5955 44.16L15.66 44.032L17.5289 44.928C17.4644 47.808 16.5622 49.6 14.8867 51.456H14.8222C14.5644 51.52 14.3711 51.776 14.3067 52.032C14.2422 52.096 14.1778 52.16 14.1133 52.224C14.1133 52.224 14.1133 52.224 14.0489 52.224C13.92 52.032 13.7267 51.904 13.4689 51.904C13.4044 51.904 13.34 51.904 13.2755 51.968L12.9533 52.096C12.76 52.16 12.6311 52.288 12.5667 52.416C12.5022 52.544 12.5022 52.672 12.5022 52.864C12.4378 52.864 12.3089 52.928 12.2444 52.928C12.1155 52.672 11.8578 52.48 11.6 52.48C11.5355 52.48 11.4711 52.48 11.3422 52.544L11.1489 52.608C10.7622 52.736 10.5689 53.056 10.6978 53.44C9.85999 53.696 9.02221 54.016 8.24888 54.208C8.37777 56.192 9.02221 57.856 10.3111 59.392C12.3089 58.432 14.2422 57.472 16.1111 56.576C16.1755 56.64 16.3044 56.704 16.4333 56.704C16.4978 56.704 16.5622 56.704 16.6267 56.64L16.8844 56.576C17.2067 56.448 17.5933 56.128 17.7867 55.808C20.4933 54.528 23.0067 53.376 25.1978 52.416C25.2622 53.184 25.3267 53.888 25.5844 54.4C26.1 54.208 26.5511 54.08 27.0022 53.696C27.0022 53.952 27.1311 54.208 27.1955 54.528L26.2289 55.552L26.8733 56.192L27.84 55.296C27.9689 56 28.7422 57.024 29.1933 57.28C29.5155 57.024 30.3533 55.936 30.5467 55.296L31.5133 56.192L32.1578 55.552L31.1911 54.528C31.32 54.272 31.3844 54.016 31.3844 53.696C31.8355 54.016 32.2867 54.208 32.8022 54.4C32.9955 53.888 33.1244 53.248 33.1889 52.416L33.4467 52.544L33.5755 52.416L38.2155 54.656L38.6022 54.848L38.7311 55.04L38.7955 55.104H38.86L39.5044 55.424L39.6978 55.488C39.8911 55.808 40.4067 56.64 41.3089 56.576C41.5022 56.576 41.6311 56.512 41.76 56.448L42.4044 56.768L42.6622 56.896L42.7267 56.768L45.1111 57.856L45.0467 57.984L45.3044 58.112L46.2067 58.56L46.4644 58.688L46.5289 58.56L47.2378 58.88C47.0444 58.88 47.1733 58.88 47.2378 58.88C47.4955 58.88 47.8178 58.688 47.8822 58.432C47.8822 58.368 47.9467 58.304 47.9467 58.304V58.176C48.0111 58.112 48.14 58.112 48.2044 57.984H48.2689L48.6555 58.176C48.7844 58.24 48.9133 58.24 49.0422 58.24C49.3644 58.24 49.6867 58.048 49.8155 57.728C50.0089 57.28 49.8155 56.832 49.4289 56.576L49.1067 56.384C49.1067 56.256 49.1067 56.192 49.1067 56.064L49.1711 56C49.2355 55.936 49.2355 55.936 49.2355 55.872C49.3 55.68 49.3 55.488 49.2355 55.296C49.1711 55.104 48.9778 55.104 48.8489 55.04L48.0755 54.656L48.14 54.528L47.8822 54.4L46.98 53.952L46.7222 53.824L46.7867 53.696C46.9155 53.376 46.6578 52.992 46.4644 52.928L46.1422 52.8C45.82 52.672 45.4333 52.8 45.3044 53.12L45.24 53.248L44.9822 53.12L45.0467 52.928C45.1755 52.608 45.0467 52.224 44.66 52.032L44.3378 51.904C44.1444 51.84 43.8867 51.904 43.7578 51.968C41.8244 49.92 40.7933 48.192 40.6644 45.952C43.6933 44.8 47.1089 43.584 50.7178 42.432C50.3311 40.576 49.6222 38.848 48.6555 37.248L47.7533 37.76L46.98 36.288C46.5933 36.544 46.2067 36.736 45.7555 36.992C45.3689 36.608 44.8533 36.224 44.3378 35.968C45.6267 36.032 46.98 35.776 48.0755 35.392C47.7533 34.752 47.3667 34.304 46.5289 33.984C47.6889 33.664 48.4622 33.216 49.2355 32.32C48.7844 32 48.5267 31.808 47.9467 31.68C49.2355 30.848 50.2667 29.888 51.2978 28.416L50.2022 28.096C50.9755 27.264 51.8133 25.984 52.5222 24.64C52.1355 24.64 51.8778 24.64 51.4911 24.768C52.2 23.808 52.7155 22.4 52.9089 21.056C54.2622 18.816 54.3267 17.28 53.6822 14.848ZM34.9289 42.88C34.8644 42.944 34.7355 42.944 34.6711 43.008L34.7355 42.56L34.9289 42.88ZM28.5489 13.824H29H29.4511C29.8378 15.296 30.74 16.32 32.0289 17.152C32.0289 17.152 31.1911 18.368 29.7089 18.88C29.8378 19.072 29.9022 19.072 30.0955 19.2C29.58 19.648 29 20.736 29 20.736V20.8V20.736C29 20.736 28.42 19.648 27.9044 19.2C28.0333 19.072 28.1622 19.072 28.2911 18.88C26.8089 18.368 25.9711 17.152 25.9711 17.152C27.26 16.32 28.2267 15.296 28.5489 13.824ZM23.3289 42.944L23.0711 42.88L23.2644 42.56L23.3289 42.944ZM13.4689 38.208C13.9844 38.144 14.5 38.08 14.9511 37.952C14.6933 38.144 14.4355 38.464 14.3067 38.72L13.4044 38.336L13.4689 38.208ZM18.4311 50.624C19.3333 49.6 20.1711 48.512 20.6867 46.464L23.0711 47.552L23.4578 47.744L23.5867 47.936L23.6511 48H23.7155L24.0378 48.192L21.7822 49.28C20.6867 49.664 19.4622 50.176 18.4311 50.624ZM39.6333 50.688L36.8622 49.408L36.4755 49.216L36.3467 49.024L36.2822 48.96H36.2178L34.8644 48.32C35.6378 48 36.54 47.68 37.4422 47.296C37.9578 48.576 38.6667 49.728 39.6333 50.688ZM43.3711 38.272C43.2422 38.144 43.1133 38.016 42.9844 37.888C43.1778 37.952 43.4356 38.016 43.6933 38.08C43.5644 38.144 43.5 38.208 43.3711 38.272Z" fill="#231F20"/>
  <path d="M20.88 16.64C20.3 16.576 19.6556 16.576 19.2689 16.704C18.7533 16.832 18.3667 17.088 18.1733 17.728C19.7845 17.28 19.9133 18.176 21.3956 18.496C20.9444 18.688 19.7845 18.688 19.14 18.304C19.5911 19.008 20.1711 19.2 22.2978 19.136C21.5889 18.56 21.9756 17.28 20.88 16.64Z" fill="#FCD015"/>
  <path d="M19.4622 18.112C19.8489 18.176 19.7844 18.432 20.4289 18.432C20.3 18.304 19.72 17.856 19.4622 18.112Z" fill="#FCD015"/>
  <path d="M36.9911 16.64C37.5711 16.576 38.2156 16.576 38.6023 16.704C39.1178 16.832 39.5045 17.088 39.6978 17.728C38.0867 17.28 37.9578 18.176 36.4756 18.496C36.9267 18.688 38.0867 18.688 38.7311 18.304C38.28 19.008 37.7 19.2 35.5734 19.136C36.2823 18.56 35.96 17.28 36.9911 16.64Z" fill="#FCD015"/>
  <path d="M38.4733 18.112C38.0867 18.176 38.1511 18.432 37.5067 18.432C37.6355 18.304 38.2155 17.856 38.4733 18.112Z" fill="#FCD015"/>
  <path d="M28.9355 46.4L30.74 50.048L29.1933 50.688L27.4533 46.976L28.9355 46.4Z" fill="#221F1F"/>
  <path d="M27.26 54.784L26.4866 55.552L26.7444 55.808L27.4533 55.104C27.4533 54.976 27.3244 54.848 27.26 54.784Z" fill="#221F1F"/>
  <path d="M30.8044 54.784C30.74 54.912 30.6755 54.976 30.5466 55.04L31.2555 55.744L31.5133 55.488L30.8044 54.784Z" fill="#221F1F"/>
  <path d="M21.7178 15.168V15.552C22.6844 15.488 23.4578 15.616 24.36 15.68V15.168C23.5222 15.04 22.62 15.04 21.7178 15.168Z" fill="#FFC112"/>
  <path d="M21.8466 13.056L21.5889 12.864C21.3955 12.864 21.2022 12.992 21.0733 13.184C20.4933 13.888 21.2666 14.656 21.6533 14.976H21.7822C21.9755 14.976 22.2333 14.912 22.4266 14.912C22.4266 14.144 22.2978 13.44 21.8466 13.056Z" fill="#FFC112"/>
  <path d="M24.4888 12.864L24.2311 13.056C23.7799 13.44 23.7155 14.144 23.6511 14.912C23.8444 14.912 24.1022 14.976 24.2955 14.976H24.4244C24.8111 14.656 25.5844 13.888 25.0044 13.184C24.8755 12.928 24.6822 12.864 24.4888 12.864Z" fill="#FFC112"/>
  <path d="M23.0711 12.736C23.2134 12.736 23.3288 12.6214 23.3288 12.48C23.3288 12.3386 23.2134 12.224 23.0711 12.224C22.9287 12.224 22.8133 12.3386 22.8133 12.48C22.8133 12.6214 22.9287 12.736 23.0711 12.736Z" fill="#FFC112"/>
  <path d="M22.62 14.848C22.7489 14.848 22.8778 14.848 23.0711 14.848C23.2 14.848 23.3289 14.848 23.5222 14.848C23.5222 14.016 23.6511 13.248 24.1667 12.864L23.5222 13.056L23.3933 12.864C23.3289 12.928 23.2 12.928 23.1355 12.928C23.0067 12.928 22.9422 12.864 22.8778 12.864L22.7489 13.056L22.1044 12.864C22.4911 13.312 22.62 14.08 22.62 14.848Z" fill="#FFC112"/>
  <path d="M22.8133 11.968H23.2644L23.1999 11.712L23.5222 11.776V11.328L23.1999 11.392L23.2644 11.136H22.8133L22.9422 11.392L22.6199 11.328V11.776L22.9422 11.712L22.8133 11.968Z" fill="#FFC112"/>
  <path d="M35.7666 15.104H35.7022C35.1866 15.04 34.6711 15.04 34.0911 15.104H34.0266C33.8977 15.104 33.7688 15.104 33.64 15.168V15.68C34.4777 15.68 35.2511 15.488 36.2177 15.552V15.168C36.0244 15.104 35.8955 15.104 35.7666 15.104Z" fill="#FFC112"/>
  <path d="M36.8622 13.12C36.7333 12.928 36.54 12.864 36.3466 12.8L36.0889 13.056C35.6377 13.44 35.5733 14.144 35.5089 14.912C35.7022 14.912 35.96 14.976 36.1533 14.976H36.2822C36.6689 14.656 37.4422 13.888 36.8622 13.12Z" fill="#FFC112"/>
  <path d="M33.7044 13.056L33.4466 12.864C33.2533 12.864 33.06 12.928 32.8666 13.184C32.2866 13.888 33.06 14.656 33.4466 14.976H33.5755C33.7689 14.976 34.0266 14.912 34.22 14.912C34.22 14.144 34.1555 13.44 33.7044 13.056Z" fill="#FFC112"/>
  <path d="M34.8644 12.736C35.0068 12.736 35.1222 12.6214 35.1222 12.48C35.1222 12.3386 35.0068 12.224 34.8644 12.224C34.722 12.224 34.6066 12.3386 34.6066 12.48C34.6066 12.6214 34.722 12.736 34.8644 12.736Z" fill="#FFC112"/>
  <path d="M34.4778 13.12L33.8333 12.928C34.3489 13.312 34.4778 14.08 34.4778 14.912C34.6066 14.912 34.7355 14.912 34.9289 14.912C35.0578 14.912 35.1866 14.912 35.38 14.912C35.38 14.08 35.5089 13.312 36.0244 12.928L35.38 13.12L35.2511 12.928C35.1866 12.992 35.0578 12.992 34.9933 12.992C34.8644 12.992 34.8 12.928 34.7355 12.928L34.4778 13.12Z" fill="#FFC112"/>
  <path d="M34.6711 11.968H35.1222L34.9933 11.712L35.3156 11.776V11.328L34.9933 11.392L35.1222 11.136H34.6711L34.7356 11.392L34.4133 11.328V11.776L34.7356 11.712L34.6711 11.968Z" fill="#FFC112"/>
  <path d="M25.2622 8.70404V9.08804L25.5844 9.21604V8.89604L25.2622 8.70404Z" fill="#FFC112"/>
  <path d="M28.9356 10.816C27.1956 10.816 25.7778 11.264 25.7778 11.776V12.608C26.2933 12.096 27.6467 11.904 28.9356 11.904C30.2244 11.904 31.5133 12.16 32.0933 12.608V11.776C32.0933 11.264 30.6756 10.816 28.9356 10.816Z" fill="#FFC112"/>
  <path d="M30.5466 9.08798C30.8044 7.99998 31.7066 7.42398 32.6089 7.23198C31.6422 7.03998 30.5466 7.48798 30.16 8.12798C29.9666 8.44798 29.8378 8.83198 29.7089 9.15198C29.9666 9.02398 30.2889 9.02398 30.5466 9.08798Z" fill="#FFC112"/>
  <path d="M27.3244 9.08802C27.6467 9.02402 27.9044 9.02402 28.1622 9.15202C28.0333 8.76802 27.9044 8.38402 27.7111 8.06402C27.3244 7.48802 26.2289 6.97602 25.2622 7.16802C26.1644 7.42402 27.0667 8.00002 27.3244 9.08802Z" fill="#FFC112"/>
  <path d="M25.9066 12.864C26.0999 13.056 26.4222 13.248 26.8733 13.376C26.9377 13.056 26.9377 12.736 27.0022 12.352C26.4866 12.48 26.0999 12.672 25.9066 12.864Z" fill="#FFC112"/>
  <path d="M29.1289 12.096C29.0644 12.096 29 12.096 28.9356 12.096C28.8711 12.096 28.8067 12.096 28.7422 12.096C28.7422 12.608 28.6778 13.12 28.5489 13.568C28.6778 13.568 28.8067 13.568 28.9356 13.568C29.0644 13.568 29.1933 13.568 29.3222 13.568C29.2578 13.12 29.1933 12.672 29.1289 12.096Z" fill="#FFC112"/>
  <path d="M30.9333 12.352C30.9333 12.736 30.9977 13.056 31.0622 13.376C31.5133 13.248 31.8355 13.056 32.0289 12.864C31.8355 12.672 31.4488 12.48 30.9333 12.352Z" fill="#FFC112"/>
  <path d="M28.9355 7.74404C29.2559 7.74404 29.5155 7.48616 29.5155 7.16804C29.5155 6.84992 29.2559 6.59204 28.9355 6.59204C28.6152 6.59204 28.3555 6.84992 28.3555 7.16804C28.3555 7.48616 28.6152 7.74404 28.9355 7.74404Z" fill="#FFC112"/>
  <path d="M28.5488 6.33601H29.2577L29.0644 5.76001L29.6444 5.95201V5.24801L29.0644 5.44001L29.2577 4.86401H28.5488L28.8066 5.44001L28.1622 5.24801V5.95201L28.8066 5.76001L28.5488 6.33601Z" fill="#FFC112"/>
  <path d="M32.3511 9.21604L32.6733 9.08804V8.70404L32.4155 8.89604L32.3511 9.21604Z" fill="#FFC112"/>
  <path d="M33.7044 7.93601C33.5755 7.68001 33.3822 7.55201 33.1244 7.42401C32.1577 7.48801 31.0622 8.00001 30.8044 9.28001V9.40801L30.6755 9.34401C30.2888 9.21601 29.9666 9.28001 29.6444 9.47201C29.5799 9.72801 29.5155 9.92001 29.5155 10.048C29.4511 10.304 29.1933 10.432 28.9999 10.432C28.8066 10.432 28.5488 10.24 28.4844 10.048C28.4844 9.98401 28.4199 9.79201 28.3555 9.53601C28.0977 9.34401 27.7111 9.34401 27.3244 9.40801L27.1955 9.47201V9.34401C26.9377 8.06401 25.9066 7.55201 24.8755 7.48801C24.6822 7.61601 24.4888 7.80801 24.2955 8.00001C23.3933 9.34401 25.1333 10.944 25.7777 11.456C26.2288 10.88 27.6466 10.624 28.9999 10.624C30.4177 10.624 31.8355 10.944 32.2222 11.456C32.8022 10.88 34.5422 9.28001 33.7044 7.93601ZM25.1333 9.28001L25.0044 9.21601V9.02401V8.70401V8.32001L25.3911 8.51201L25.7133 8.64001L25.8422 8.70401V8.89601V9.21601V9.60001L25.4555 9.40801L25.1333 9.28001ZM25.7133 10.816C25.5844 10.816 25.5199 10.752 25.5199 10.624C25.5199 10.496 25.5844 10.432 25.7133 10.432C25.8422 10.432 25.9066 10.496 25.9066 10.624C25.9066 10.688 25.8422 10.816 25.7133 10.816ZM26.6799 10.432C26.5511 10.432 26.4866 10.368 26.4866 10.24C26.4866 10.112 26.5511 10.048 26.6799 10.048C26.8088 10.048 26.8733 10.112 26.8733 10.24C26.8733 10.304 26.7444 10.432 26.6799 10.432ZM27.6466 10.176C27.5177 10.176 27.4533 10.112 27.4533 9.98401C27.4533 9.85601 27.5177 9.79201 27.6466 9.79201C27.7755 9.79201 27.8399 9.85601 27.8399 9.98401C27.8399 10.112 27.7755 10.176 27.6466 10.176ZM30.2888 10.176C30.1599 10.176 30.0955 10.112 30.0955 9.98401C30.0955 9.85601 30.1599 9.79201 30.2888 9.79201C30.4177 9.79201 30.4822 9.85601 30.4822 9.98401C30.4822 10.112 30.3533 10.176 30.2888 10.176ZM31.2555 10.432C31.1266 10.432 31.0622 10.368 31.0622 10.24C31.0622 10.112 31.1266 10.048 31.2555 10.048C31.3844 10.048 31.4488 10.112 31.4488 10.24C31.4488 10.304 31.3844 10.432 31.2555 10.432ZM32.2222 10.816C32.0933 10.816 32.0288 10.752 32.0288 10.624C32.0288 10.496 32.0933 10.432 32.2222 10.432C32.3511 10.432 32.4155 10.496 32.4155 10.624C32.4155 10.688 32.3511 10.816 32.2222 10.816ZM32.0933 9.60001V9.21601V8.89601V8.70401L32.2222 8.64001L32.5444 8.51201L32.9311 8.32001V8.70401V9.02401V9.21601L32.8022 9.28001L32.4799 9.40801L32.0933 9.60001Z" fill="#FFC112"/>
  <path d="M28.9355 10.176C29.1135 10.176 29.2577 10.0327 29.2577 9.85601C29.2577 9.67928 29.1135 9.53601 28.9355 9.53601C28.7575 9.53601 28.6133 9.67928 28.6133 9.85601C28.6133 10.0327 28.7575 10.176 28.9355 10.176Z" fill="#FFC112"/>
  <path d="M28.5489 9.40801C28.6777 9.28001 28.8066 9.28001 28.9355 9.28001C29.0644 9.28001 29.2577 9.34401 29.3222 9.40801C29.3866 9.02401 29.58 8.44801 29.9022 7.93601C29.9022 7.93601 29.9022 7.87201 29.9666 7.87201C29.9666 7.68001 29.8377 7.55201 29.6444 7.42401C29.5155 7.68001 29.2577 7.93601 28.8711 7.93601C28.5489 7.93601 28.2266 7.74401 28.0977 7.42401C27.9689 7.48801 27.84 7.61601 27.84 7.80801C27.84 7.87201 27.9044 7.87201 27.9044 7.93601C28.2911 8.51201 28.4844 9.02401 28.5489 9.40801Z" fill="#FFC112"/>
  <path d="M46.7866 36.736C40.4066 40.128 34.7999 43.264 29.0644 46.08L29.1933 46.272V46.336C34.9933 43.84 41.1155 41.088 47.4311 37.952C47.3022 37.568 47.0444 37.056 46.7866 36.736Z" fill="#E0E0E0"/>
  <path d="M27.26 47.104L27.1955 46.976C25.9066 47.616 24.5533 48.192 23.2644 48.768C24.5533 48.256 25.9066 47.744 27.26 47.104Z" fill="#E0E0E0"/>
  <path d="M48.3333 37.824C42.2755 40.832 35.8311 43.776 29.3222 46.592L30.8044 49.664C37.2489 46.976 43.8222 44.416 50.1378 42.304C49.88 40.704 49.2355 39.232 48.3333 37.824Z" fill="#E0E0E0"/>
  <path d="M15.9178 51.84L16.24 52.8C16.3044 52.992 16.1111 53.184 16.1111 53.44C16.1755 54.336 15.5955 54.976 15.5955 54.976L15.2733 55.232L15.1444 54.848L14.3066 52.416C14.3066 52.48 14.2422 52.48 14.1778 52.48L14.6933 53.952C14.8866 54.592 14.5644 55.488 14.5 55.488L14.3711 55.744L14.1133 55.68C14.1133 55.68 13.4689 55.232 13.1466 54.4C13.0822 54.272 12.9533 54.272 12.8889 54.144L12.5666 53.12C12.5022 53.12 12.4378 53.184 12.3089 53.184L13.0822 55.488L13.2111 55.872H12.8244C12.76 55.872 12.0511 55.872 11.4711 55.04C11.4066 54.912 11.0844 54.976 11.02 54.784L10.6978 53.76C9.92442 54.016 9.21553 54.272 8.4422 54.528C8.69998 56.256 9.27998 57.792 10.3111 59.008C12.1155 58.112 13.9844 57.216 15.9178 56.32C15.9178 56.256 15.9822 56.128 16.0466 56L16.82 54.72C16.82 54.72 16.6911 54.336 16.7555 53.888C17.3355 54.016 17.7866 54.272 17.98 54.656C18.0444 54.848 18.0444 55.168 17.9155 55.424C21.46 53.76 25.1333 52.16 28.8066 50.624L27.3889 47.36C23.5866 48.96 19.72 50.496 15.9178 51.84Z" fill="#E0E0E0"/>
  <path d="M15.1444 46.976C15.1444 46.976 15.08 46.976 15.1444 46.976C14.5 46.912 13.92 46.848 13.34 46.72L13.4044 46.464C13.8555 46.592 14.3066 46.656 14.8222 46.72C13.92 45.888 13.7911 44.672 14.1133 43.456L11.6 42.24C10.8266 43.328 9.79553 43.776 8.57108 43.584C9.66664 44.736 10.8911 45.632 12.3733 46.144L12.3089 46.4C10.6977 45.824 9.34441 44.864 8.18441 43.52C7.79775 43.456 7.41108 43.264 7.02441 43.072C7.66886 46.08 14.0489 49.088 16.3044 47.488C15.8533 47.36 15.4666 47.168 15.1444 46.976Z" fill="#E2E2E2"/>
  <path d="M10.0533 38.4L9.73106 38.272C9.40884 38.144 9.08662 38.272 8.95773 38.528C8.82884 38.848 8.95773 39.168 9.21551 39.296L9.47329 39.424C9.60217 39.168 9.79551 39.04 10.0533 39.04C9.98884 38.848 9.98884 38.592 10.0533 38.4Z" fill="#A5A5A5"/>
  <path d="M49.3 56.96L48.9777 56.768C48.8488 56.96 48.6555 57.152 48.3977 57.152C48.5266 57.344 48.5266 57.6 48.3977 57.792L48.7844 57.984C49.1066 58.112 49.4288 57.984 49.5577 57.728C49.6866 57.472 49.5577 57.088 49.3 56.96Z" fill="#A5A5A5"/>
  <path d="M46.8174 54.2204L45.0717 57.8605L46.0025 58.3008L47.7483 54.6607L46.8174 54.2204Z" fill="#939393"/>
  <path d="M16.2415 39.7067L14.4957 43.3467L15.4266 43.7871L17.1724 40.147L16.2415 39.7067Z" fill="#939393"/>
  <path d="M12.1949 37.8434L10.4491 41.4835L11.38 41.9238L13.1258 38.2837L12.1949 37.8434Z" fill="#939393"/>
  <path d="M19.5266 41.28L23.7155 47.744L24.3599 48.064C24.5533 48 24.6822 47.936 24.8755 47.808L21.1377 42.048L19.5266 41.28Z" fill="#939393"/>
  <path d="M27.0666 44.864L28.0333 46.336C28.291 46.208 28.6133 46.08 28.871 45.952L28.6777 45.632L27.0666 44.864Z" fill="#939393"/>
  <path d="M30.9333 49.856L31.0622 50.112L30.8044 50.24L30.6111 50.304L31.1911 51.264L32.7378 52.032L31.2555 49.728C31.1911 49.792 31.0622 49.856 30.9333 49.856Z" fill="#939393"/>
  <path d="M34.5422 48.384L38.7311 54.848L39.3755 55.168C39.1822 54.656 39.3755 54.272 39.44 54.208L36.1533 49.152L34.5422 48.384Z" fill="#939393"/>
  <path d="M43.3711 52.544L43.1133 52.48L41.9533 55.104L41.8244 54.976L41.3088 56.064L42.2111 56.512L42.7266 55.424C42.6622 55.168 42.4688 54.528 42.7266 54.016L43.3711 52.544Z" fill="#939393"/>
  <path d="M15.9178 43.328L15.66 43.776L23.1355 47.296L22.5555 46.464L15.9178 43.328Z" fill="#DBDBDB"/>
  <path d="M21.3311 44.544L16.4333 42.176L15.9822 43.072L22.2977 46.08L21.3311 44.544Z" fill="#DBDBDB"/>
  <path d="M20.0422 42.56L16.9489 41.088L16.5622 41.984L21.0733 44.096L20.0422 42.56Z" fill="#DBDBDB"/>
  <path d="M19.3333 41.408L19.2689 41.344L17.2711 40.384L17.0778 40.832L19.7844 42.112L19.3333 41.408Z" fill="#DBDBDB"/>
  <path d="M9.53774 40.256L9.47329 40.32C9.3444 40.576 9.47329 40.832 9.73107 40.96L10.2466 41.216L10.44 40.768L9.79552 40.448C9.73107 40.384 9.66663 40.32 9.53774 40.256Z" fill="#DBDBDB"/>
  <path d="M11.8999 41.4231L11.6782 41.8854L14.2963 43.1238L14.518 42.6615L11.8999 41.4231Z" fill="#DBDBDB"/>
  <path d="M9.73104 39.552C9.60216 39.808 9.73104 40.064 9.98882 40.192L10.6333 40.512L11.0199 39.616L10.3755 39.296C10.1177 39.232 9.79549 39.296 9.73104 39.552Z" fill="#DBDBDB"/>
  <path d="M12.4204 40.3349L12.0048 41.2016L14.6229 42.44L15.0385 41.5733L12.4204 40.3349Z" fill="#DBDBDB"/>
  <path d="M10.3111 38.4641C10.1822 38.7201 10.3111 38.9761 10.5688 39.1041L11.1488 39.3601L11.5355 38.4641L10.9555 38.2721C10.6977 38.1441 10.44 38.2081 10.3111 38.4641Z" fill="#DBDBDB"/>
  <path d="M12.9461 39.1629L12.5304 40.0295L15.1485 41.2679L15.5642 40.4013L12.9461 39.1629Z" fill="#DBDBDB"/>
  <path d="M10.7622 37.952C10.8911 37.952 10.9555 37.952 11.0844 38.016L11.6644 38.272L11.8578 37.824L11.3422 37.568C11.0844 37.44 10.8266 37.568 10.6978 37.824C10.7622 37.888 10.7622 37.888 10.7622 37.952Z" fill="#DBDBDB"/>
  <path d="M13.2727 38.4791L13.051 38.9413L15.6691 40.1797L15.8908 39.7175L13.2727 38.4791Z" fill="#DBDBDB"/>
  <path d="M32.5444 51.2L32.9955 51.904L33.06 51.968L38.1511 54.4L37.6355 53.568L32.5444 51.2Z" fill="#DBDBDB"/>
  <path d="M42.7463 55.9997L42.5246 56.4619L44.91 57.5902L45.1317 57.128L42.7463 55.9997Z" fill="#DBDBDB"/>
  <path d="M27.3244 45.696L26.8088 44.992L26.7444 44.864L21.7177 42.496L22.2333 43.328L27.3244 45.696Z" fill="#DBDBDB"/>
  <path d="M48.6555 55.232L47.8822 54.848L47.6888 55.296L48.5911 55.744C48.72 55.808 48.7844 55.872 48.8488 55.936L48.9133 55.872C49.0422 55.616 48.9133 55.36 48.6555 55.232Z" fill="#DBDBDB"/>
  <path d="M47.3666 58.1761L46.5288 57.7921L46.2711 58.2401L46.9799 58.5601C47.2377 58.6881 47.4955 58.5601 47.6244 58.3041C47.6244 58.2401 47.6244 58.2401 47.6888 58.1761C47.56 58.2401 47.4311 58.2401 47.3666 58.1761Z" fill="#DBDBDB"/>
  <path d="M47.8822 57.088L47.0444 56.704L46.6577 57.6L47.4955 57.984C47.7533 58.112 48.0111 57.984 48.14 57.728C48.2044 57.472 48.14 57.216 47.8822 57.088Z" fill="#DBDBDB"/>
  <path d="M48.4622 56.0001L47.5599 55.5521L47.1733 56.4481L48.0755 56.8961C48.3333 57.0241 48.5911 56.8961 48.7199 56.6401C48.8488 56.3841 48.7199 56.1281 48.4622 56.0001Z" fill="#DBDBDB"/>
  <path d="M24.8111 47.2321L25.4555 47.5521C25.8422 47.3601 26.2289 47.232 26.6155 47.04L23.8444 45.696L24.8111 47.2321Z" fill="#DBDBDB"/>
  <path d="M22.4911 43.712L23.4578 45.248L26.8733 46.848C27.1955 46.72 27.4533 46.592 27.7755 46.4L27.5822 46.08L22.4911 43.712Z" fill="#DBDBDB"/>
  <path d="M30.0955 50.5601L30.6111 50.8161L30.3533 50.4321L30.0955 50.5601Z" fill="#DBDBDB"/>
  <path d="M34.3489 48.512C34.1555 48.576 33.9622 48.64 33.7044 48.704L34.8 49.216L34.3489 48.512Z" fill="#DBDBDB"/>
  <path d="M35.0577 49.6641L33.3822 48.8961C32.9955 49.0881 32.6088 49.2161 32.1577 49.4081L36.0244 51.264L35.0577 49.6641Z" fill="#DBDBDB"/>
  <path d="M36.3466 51.648L31.8355 49.536C31.7066 49.6 31.6422 49.6 31.5133 49.664L32.2222 50.816L37.2489 53.184L36.3466 51.648Z" fill="#DBDBDB"/>
  <path d="M41.3733 52.352L41.6311 51.904L36.7333 49.6L37.2488 50.432L41.3733 52.352Z" fill="#DBDBDB"/>
  <path d="M41.3088 52.672L37.571 50.816L38.5377 52.352L41.3088 53.632C41.3088 53.44 41.3733 53.248 41.3733 53.12C41.3088 52.928 41.1799 52.864 41.3088 52.672Z" fill="#DBDBDB"/>
  <path d="M38.7955 52.8L39.5689 54.0161C40.02 53.6321 40.6644 53.6961 40.6644 53.6961L40.4711 54.3361L40.6644 54.7201L41.5022 55.104L41.6955 54.784C41.5666 54.592 41.4378 54.3361 41.3733 53.9521L38.7955 52.8Z" fill="#DBDBDB"/>
  <path d="M41.1799 55.7441L41.3733 55.3601L40.8577 55.1041L41.1799 55.7441Z" fill="#DBDBDB"/>
  <path d="M45.0466 53.504L44.7888 53.376L44.5311 53.888L44.8533 54.016L45.0466 53.504Z" fill="#DBDBDB"/>
  <path d="M44.7244 54.208L44.4666 54.08L44.3377 54.336C44.2733 54.464 44.1444 54.336 43.8866 54.848L44.2733 55.04L44.7244 54.208Z" fill="#DBDBDB"/>
  <path d="M45.7555 55.7441L46.1422 54.9761C46.0777 55.0401 45.8844 54.9761 45.8199 55.1041C45.6911 55.2961 45.4333 55.5521 45.3688 55.5521L45.7555 55.7441Z" fill="#DBDBDB"/>
  <path d="M44.4022 55.8721H44.0155L44.1444 55.4881L44.2089 55.3601L43.8222 55.1041C43.5 55.4881 42.9844 55.8081 42.9844 55.8081L45.3044 56.8961L45.6911 56.0001L45.1111 55.7441C44.7244 55.8081 44.4666 55.8721 44.4022 55.8721Z" fill="#DBDBDB"/>
  <path d="M29.0644 51.712C28.0333 51.712 27.1955 52.544 27.1955 53.568C27.1955 54.592 28.0333 55.424 29.0644 55.424C30.0955 55.424 30.9333 54.592 30.9333 53.568C30.9333 52.544 30.0955 51.712 29.0644 51.712ZM29.5155 52.864C29.6444 52.864 29.6444 52.736 29.5799 52.672C29.6444 52.544 29.7088 52.672 29.7088 52.736C29.7088 52.736 29.8377 52.736 29.8377 52.8C29.8377 52.864 29.7733 52.864 29.7733 52.992C29.7733 52.992 29.6444 52.928 29.7088 52.992C29.7088 52.992 29.6444 52.992 29.6444 52.928C29.6444 52.864 29.7088 52.864 29.7088 52.8C29.7088 52.736 29.5799 52.736 29.5799 52.736C29.6444 52.8 29.6444 52.928 29.5155 52.864C29.5155 52.928 29.5155 52.864 29.5155 52.864ZM29.3222 53.504H28.8711C28.9999 53.376 28.8711 53.056 28.6133 53.056C28.5488 53.056 28.5488 53.12 28.5488 53.12V53.056C28.5488 52.928 28.8711 52.992 28.9999 52.928C28.9999 52.992 28.9355 53.056 28.9355 53.056C28.9999 53.12 29.0644 53.248 29.1288 53.44C29.1288 53.248 29.1933 53.12 29.3222 53.056C29.2577 53.056 29.1933 52.992 29.2577 52.928C29.3866 52.992 29.7088 52.928 29.7088 53.056V53.12C29.7088 53.12 29.7088 53.056 29.6444 53.056C29.3222 53.056 29.1288 53.376 29.3222 53.504ZM29.5155 53.184C29.4511 53.184 29.4511 53.184 29.3866 53.184L29.4511 53.12C29.4511 53.12 29.5155 53.12 29.5155 53.184ZM29.1288 53.952C29.1288 53.952 29.1933 53.888 29.1933 53.952C29.1933 54.016 29.1288 54.016 29.1288 54.016L28.9999 53.632H29.0644C29.0644 53.632 29.1288 53.568 29.1933 53.632V53.696V53.632C29.1933 53.632 29.1933 53.632 29.1933 53.696V53.76C29.2577 53.76 29.2577 53.76 29.2577 53.824C29.2577 53.76 29.1933 53.76 29.1933 53.76C29.1288 53.888 29.1288 53.888 29.1288 53.952ZM28.9355 53.824C28.9355 53.824 28.9355 53.888 28.9355 53.824C28.9355 53.824 28.8711 53.824 28.9355 53.824C28.8711 53.76 28.8711 53.76 28.8711 53.76C28.8711 53.76 28.9355 53.76 28.9355 53.824C28.9355 53.76 28.9999 53.76 28.9999 53.76C28.9355 53.76 28.8711 53.76 28.8711 53.696L28.9355 53.632V53.568L29.1288 54.08C29.0644 54.08 28.9999 54.08 28.9355 54.08C28.9355 54.08 28.8711 54.08 28.8711 54.016C28.8711 54.016 28.8711 54.016 28.8711 53.952C28.8711 53.952 28.9355 53.888 28.9355 53.824ZM28.7422 53.184C28.7422 53.184 28.6777 53.184 28.6133 53.184C28.6133 53.12 28.6133 53.12 28.6777 53.12C28.6777 53.12 28.7422 53.12 28.7422 53.184ZM29.3866 52.608V52.736V52.608ZM29.0644 52.416L29.1288 52.48L29.0644 52.544L28.9999 52.48L29.0644 52.416ZM28.6777 52.608V52.736V52.608ZM28.6777 52.736H28.8066C28.8711 52.736 28.8711 52.736 28.8711 52.8C28.9355 52.8 28.9999 52.736 28.9999 52.672L28.9355 52.608C28.8711 52.544 28.9355 52.48 28.9999 52.48L29.0644 52.608L29.1288 52.48C29.1933 52.48 29.2577 52.544 29.1933 52.608L29.1288 52.672C29.1288 52.736 29.1933 52.8 29.2577 52.8C29.2577 52.736 29.2577 52.736 29.3222 52.736L29.3866 52.8L29.4511 52.736C29.5155 52.736 29.5155 52.736 29.5155 52.8L29.4511 52.864H29.3222C29.1933 52.864 29.1288 52.8 29.1288 52.736H28.9999C28.9999 52.8 28.9355 52.864 28.8066 52.864H28.6777C28.6777 52.864 28.6777 52.8 28.6133 52.8C28.5488 52.8 28.6133 52.736 28.6777 52.736ZM28.3555 52.736C28.4199 52.672 28.4844 52.544 28.4844 52.672C28.4199 52.736 28.4199 52.864 28.5488 52.864C28.4199 52.864 28.4199 52.8 28.4199 52.736C28.4199 52.736 28.2911 52.736 28.2911 52.8C28.2911 52.864 28.3555 52.864 28.3555 52.928C28.3555 52.928 28.3555 52.992 28.2911 52.992C28.2911 52.928 28.2266 52.928 28.2266 52.992C28.2911 52.864 28.1622 52.864 28.1622 52.8C28.2266 52.736 28.3555 52.8 28.3555 52.736ZM27.9044 53.376C27.9688 53.376 28.0333 53.376 27.9688 53.312C27.9044 53.248 27.8399 53.12 27.9044 53.056C27.9044 53.056 28.0977 53.12 28.0333 53.056C27.9688 52.928 27.9688 52.8 28.0333 52.736C28.0333 52.8 28.2911 53.12 28.5488 53.312C28.5488 53.312 28.4844 53.376 28.4844 53.44C28.4844 53.504 28.5488 53.568 28.6133 53.568C28.6777 53.568 28.6777 53.568 28.7422 53.568V53.76C28.7422 53.696 28.6133 53.632 28.5488 53.632C28.5488 53.696 28.4844 53.76 28.4844 53.824C28.4199 53.888 28.3555 53.888 28.2911 53.824C28.2911 53.824 28.3555 53.696 28.2911 53.76C28.2266 53.824 28.1622 53.76 28.0977 53.696C28.1622 53.696 28.1622 53.632 28.0977 53.632C28.0333 53.632 27.9044 53.632 27.9044 53.504C27.9044 53.504 28.0333 53.44 27.9688 53.44C27.9688 53.568 27.9044 53.504 27.9044 53.376ZM29.7088 54.4C29.6444 54.4 29.5799 54.4 29.5799 54.336C29.5155 54.272 29.4511 54.272 29.3222 54.272C29.3866 54.208 29.2577 54.144 29.1933 54.208C29.1288 54.208 29.1288 54.272 29.1288 54.336C29.2577 54.336 29.4511 54.464 29.4511 54.528C29.4511 54.592 29.4511 54.592 29.3866 54.592C29.3866 54.464 29.3222 54.464 29.3222 54.592C29.3222 54.656 29.2577 54.656 29.2577 54.72C29.2577 54.592 29.1933 54.592 29.1933 54.72C29.1933 54.784 29.1288 54.784 29.1288 54.784L29.0644 54.72C29.0644 54.592 28.9999 54.592 28.9999 54.72C28.9355 54.72 28.9355 54.656 28.9355 54.592C28.9355 54.464 28.8711 54.464 28.8711 54.592C28.8066 54.592 28.8066 54.528 28.8066 54.528C28.8711 54.464 28.9999 54.336 29.1288 54.336C29.1288 54.272 29.0644 54.208 29.0644 54.208C28.9999 54.144 28.9355 54.208 28.9355 54.272C28.8711 54.272 28.7422 54.272 28.7422 54.336L28.8066 54.4L28.7422 54.336H28.6777C28.6133 54.336 28.6133 54.272 28.6133 54.272V54.208L28.3555 54.016H28.2911C28.2911 54.016 28.1622 54.016 28.1622 53.952H28.2266C28.2266 53.952 28.1622 53.888 28.2266 53.888C28.2911 53.888 28.3555 53.888 28.3555 53.888V53.824C28.4199 53.824 28.4199 53.952 28.4199 53.952C28.4199 53.952 28.4844 53.952 28.4199 54.016L28.6777 54.272H28.7422C28.8066 54.272 28.9355 54.272 28.9355 54.208C28.8066 54.016 28.9355 53.888 28.9999 53.888V54.016C28.9999 54.08 29.0644 54.08 29.0644 54.08H29.1288C29.1933 54.08 29.2577 54.144 29.2577 54.144C29.2577 54.144 29.3222 54.08 29.3866 54.08H29.4511C29.5155 54.08 29.5155 54.016 29.5155 54.016V53.888C29.6444 53.888 29.7733 54.016 29.5799 54.208L29.7088 54.272C29.7088 54.208 29.7088 54.208 29.7733 54.208L29.8377 54.272L29.9022 54.208C29.9666 54.208 29.9666 54.272 29.9666 54.336C29.8377 54.336 29.7733 54.4 29.7088 54.4ZM29.6444 54.08H29.7733H29.6444ZM30.2244 53.376C30.2244 53.44 30.1599 53.568 30.0955 53.568C29.9666 53.568 30.0955 53.632 30.1599 53.632C30.1599 53.696 30.0955 53.76 29.9666 53.76C29.9022 53.76 29.9022 53.824 29.9666 53.824C29.9022 53.888 29.8377 53.888 29.7733 53.888C29.7088 53.888 29.7733 53.952 29.7733 53.952C29.7088 54.016 29.6444 54.016 29.5799 53.952C29.5155 53.888 29.5155 53.824 29.5155 53.76C29.4511 53.76 29.3866 53.76 29.3222 53.888V53.696C29.3866 53.696 29.4511 53.696 29.4511 53.696C29.5155 53.696 29.5799 53.632 29.5799 53.568C29.5799 53.504 29.5799 53.504 29.5155 53.44C29.7733 53.312 29.9666 52.928 30.031 52.864C30.0955 52.928 30.0955 53.056 30.031 53.184C29.9666 53.248 30.1599 53.184 30.1599 53.184C30.2244 53.248 30.1599 53.376 30.0955 53.44C30.0311 53.376 30.1599 53.376 30.2244 53.376Z" fill="#D0D2D3"/>
  <path d="M17.9155 12.672C17.4 12.8 17.2066 12.864 16.8844 12.992C16.3044 14.4 17.4 16 18.6889 16.768C18.9466 16.64 19.4622 16.384 20.0422 16.448C18.56 15.552 17.3355 14.272 17.9155 12.672Z" fill="#1FC150"/>
  <path d="M40.02 12.672C40.5355 12.8 40.7289 12.864 41.0511 12.992C41.5666 14.4 40.5355 16 39.2466 16.768C38.9889 16.64 38.4733 16.384 37.8933 16.448C39.44 15.552 40.6 14.272 40.02 12.672Z" fill="#1FC150"/>
  <path d="M16.8844 15.424C15.7888 15.424 14.3066 14.336 13.1466 15.04L13.4044 15.936C14.6288 15.424 15.7244 16.704 17.5288 16.256C17.271 15.936 17.0777 15.68 16.8844 15.424Z" fill="#1FC150"/>
  <path d="M18.3021 14.656C18.431 14.912 18.6888 15.168 18.9466 15.36C19.591 14.528 19.3977 12.864 18.1733 12.672V12.736C18.0444 12.992 18.0444 13.248 17.9799 13.44C18.3666 13.76 18.431 14.208 18.3021 14.656Z" fill="#1FC150"/>
  <path d="M41.0511 15.424C40.8577 15.68 40.6644 16 40.4066 16.192C42.2111 16.64 43.3066 15.36 44.5311 15.872L44.7888 14.976C43.6288 14.336 42.1466 15.424 41.0511 15.424Z" fill="#1FC150"/>
  <path d="M39.6333 14.656C39.5044 14.272 39.5688 13.76 39.9555 13.44C39.9555 13.248 39.8911 12.992 39.7622 12.736V12.672C38.5377 12.864 38.4088 14.528 38.9888 15.36C39.2466 15.104 39.5044 14.912 39.6333 14.656Z" fill="#1FC150"/>
  <path d="M25.7133 16.96C27.3888 16.064 28.4199 14.528 28.4844 12.096C28.0333 12.096 27.5821 12.16 27.1955 12.224C27.1955 13.824 26.6799 14.912 25.7133 15.616C25.971 15.552 26.1644 15.488 26.3577 15.424L27.0021 15.104L26.6799 15.744C26.4221 16.384 26.0999 16.768 25.7133 16.96Z" fill="#1FC150"/>
  <path d="M32.1577 16.96C31.8355 16.768 31.4488 16.384 31.191 15.808L30.8688 15.168L31.5133 15.488C31.7066 15.552 31.8999 15.616 32.1577 15.68C31.191 14.976 30.6755 13.888 30.6755 12.288C30.2888 12.224 29.9022 12.16 29.3866 12.16C29.5155 14.528 30.5466 16.128 32.1577 16.96Z" fill="#1FC150"/>
  <path d="M33.7688 28.672L33.5111 28.48V27.776H32.8666L32.6733 27.456C31.9644 26.112 30.6111 25.28 29.1288 25.28H28.8066C27.3244 25.28 25.9066 26.112 25.2622 27.456L25.0688 27.776H24.4888V28.48L24.2311 28.672C22.4266 30.016 21.3955 32.064 21.3955 34.24C21.3955 36.416 22.4266 38.464 24.2311 39.808L24.4888 40V40.704H25.0688L25.2622 41.024C25.9711 42.368 27.3244 43.2 28.8066 43.2H29.1288C30.6111 43.2 32.0288 42.368 32.6733 41.024L32.8666 40.704H33.5111V40L33.7688 39.808C35.5733 38.464 36.6044 36.416 36.6044 34.24C36.6044 32.064 35.5733 30.08 33.7688 28.672ZM31.5133 40.32H26.3577V39.232H26.7444V38.656H27.0022V38.144H27.4533V34.688H26.8088V32.896H27.4533V32.576H27.1955V32.128H26.9377V31.168H27.1955V30.72H27.5177V30.4C27.0666 29.952 26.6155 29.12 27.0666 28.544C27.5177 27.968 28.42 28.352 28.42 28.352C28.42 28.288 28.42 28.096 28.42 28.032H28.3555L28.42 27.904L28.2911 27.968V26.944L28.42 27.008L28.3555 26.88H29.3866L29.3222 27.008L29.4511 26.944V27.968L29.3222 27.904L29.3866 28.032H29.3222C29.3222 28.096 29.3222 28.288 29.3222 28.352C29.3222 28.352 30.2888 27.968 30.6755 28.544C31.1266 29.184 30.6755 29.952 30.2888 30.4V30.72H30.6111V31.168H30.9333V32.128H30.6755V32.576H30.4177V32.896H31.0622V34.688H30.4177V38.144H30.8688V38.656H31.1266V39.232H31.5133V40.32Z" fill="#1FC150"/>
  <path d="M27.7111 30.08H28.3555C28.3555 29.504 28.2266 28.8 27.9044 28.48L27.7111 28.288C27.5178 28.288 27.3889 28.352 27.26 28.544C26.8733 29.12 27.3889 29.824 27.7111 30.08Z" fill="#FFD400"/>
  <path d="M30.4178 30.848H27.4533V31.104H30.4178V30.848Z" fill="#FFD400"/>
  <path d="M30.6111 31.296H27.1956V31.744H30.6111V31.296Z" fill="#FFD400"/>
  <path d="M30.16 32.4481H27.7755V32.8961H30.16V32.4481Z" fill="#FFD400"/>
  <path d="M30.0955 30.272H27.7755V30.656H30.0955V30.272Z" fill="#FFD400"/>
  <path d="M30.0956 30.0801C30.4178 29.7601 30.9333 29.1201 30.5467 28.6081C30.4178 28.4161 30.2889 28.3521 30.0956 28.3521L29.9022 28.5441C29.58 28.8001 29.4511 29.5681 29.4511 30.1441H30.0956V30.0801Z" fill="#FFD400"/>
  <path d="M28.7422 27.648H29.1289L29.0644 27.392L29.2578 27.456V27.136L29.0644 27.2L29.1289 26.944H28.7422L28.8067 27.2L28.5489 27.136V27.456L28.8067 27.392L28.7422 27.648Z" fill="#FFD400"/>
  <path d="M28.9355 28.2881C29.0779 28.2881 29.1933 28.1734 29.1933 28.0321C29.1933 27.8907 29.0779 27.7761 28.9355 27.7761C28.7931 27.7761 28.6777 27.8907 28.6777 28.0321C28.6777 28.1734 28.7931 28.2881 28.9355 28.2881Z" fill="#FFD400"/>
  <path d="M28.5489 30.0801H29.2578C29.2578 29.4401 29.3867 28.6721 29.7733 28.3521L29.2578 28.5441L29.1933 28.3521C29.1289 28.4161 29.0644 28.4161 28.9356 28.4161C28.8711 28.4161 28.7422 28.4161 28.6778 28.3521L28.6133 28.5441L28.0978 28.3521C28.4844 28.6721 28.5489 29.4401 28.5489 30.0801Z" fill="#FFD400"/>
  <path d="M30.4178 32H27.4533V32.256H30.4178V32Z" fill="#FFD400"/>
  <path d="M30.5467 38.4H27.26V38.72H30.5467V38.4Z" fill="#FFD400"/>
  <path d="M30.8689 38.848H27.0022V39.232H30.8689V38.848Z" fill="#FFD400"/>
  <path d="M31.2555 39.424H26.6155V40H31.2555V39.424Z" fill="#FFD400"/>
  <path d="M30.16 38.2081V34.5601H27.7755V38.1441H30.16V38.2081ZM29.58 34.9441H29.7733V37.6961H29.58V34.9441ZM28.8711 34.9441H29.0644V37.6961H28.8711V34.9441ZM28.1622 34.9441H28.3555V37.6961H28.1622V34.9441Z" fill="#FFD400"/>
  <path d="M28.2267 33.792H28.2911V33.664L28.2267 33.792Z" fill="#FFD400"/>
  <path d="M27.0667 33.088V34.368H30.74V33.088H27.0667ZM27.7755 34.048C27.7111 34.048 27.6467 34.048 27.5822 33.984V33.856C27.5822 33.856 27.5822 33.856 27.6467 33.856L27.7111 33.92H27.7755C27.84 33.92 27.9044 33.92 27.9044 33.856C27.9044 33.792 27.9044 33.792 27.7755 33.792H27.7111C27.7755 33.792 27.7755 33.792 27.7755 33.728C27.7755 33.664 27.7111 33.664 27.7111 33.664H27.6467V33.728H27.5822V33.6C27.6467 33.6 27.7111 33.536 27.7755 33.536C27.9044 33.536 27.9689 33.6 27.9689 33.664C27.9689 33.728 27.9689 33.792 27.9044 33.792C27.9689 33.792 27.9689 33.856 27.9689 33.92C27.9689 33.984 27.84 34.048 27.7755 34.048ZM28.6133 33.984H28.3555C28.3555 33.984 28.3555 33.984 28.3555 33.92H28.42L28.3555 33.856H28.1622V33.92H28.2267C28.2267 33.92 28.2267 33.92 28.2267 33.984H28.0333C28.0333 33.984 28.0333 33.984 28.0333 33.92H28.0978L28.2911 33.472H28.3555L28.6133 33.984ZM29.1933 34.048H29L28.8067 33.792V33.92H28.8711C28.8711 33.92 28.8711 33.92 28.8711 33.984H28.6133C28.6133 33.984 28.6133 33.984 28.6133 33.92H28.6778V33.536H28.6133C28.6133 33.536 28.6133 33.536 28.6133 33.472H28.8711C28.8711 33.472 28.8711 33.472 28.8711 33.536H28.8067V33.728L28.9355 33.536C28.9355 33.536 28.9355 33.536 28.9355 33.472H29.1289C29.1289 33.472 29.1289 33.472 29.1289 33.536H29.0644L28.9355 33.664L29.1289 33.92L29.1933 34.048C29.1933 33.984 29.1933 33.984 29.1933 34.048ZM29.4511 34.048C29.2578 34.048 29.1933 33.92 29.1933 33.792C29.1933 33.6 29.2578 33.536 29.4511 33.536C29.6444 33.536 29.7089 33.664 29.7089 33.792C29.7089 33.92 29.58 34.048 29.4511 34.048ZM30.2889 34.048H30.0311C30.0311 34.048 30.0311 34.048 30.0311 33.984H30.0955V33.792H29.9022V33.92H29.9667C29.9667 33.92 29.9667 33.92 29.9667 33.984H29.7089C29.7089 33.984 29.7089 33.984 29.7089 33.92H29.7733V33.536H29.7089C29.7089 33.536 29.7089 33.536 29.7089 33.472H29.9667C29.9667 33.472 29.9667 33.472 29.9667 33.536H29.9022V33.664H30.0955V33.536H30.0311C30.0311 33.536 30.0311 33.536 30.0311 33.472H30.2889C30.2889 33.472 30.2889 33.472 30.2889 33.536H30.2244V33.92L30.2889 34.048C30.2889 33.984 30.2889 33.984 30.2889 34.048Z" fill="#FFD400"/>
  <path d="M29.4511 33.536C29.3866 33.536 29.3222 33.6 29.3222 33.728C29.3222 33.856 29.3866 33.92 29.4511 33.92C29.5155 33.92 29.58 33.792 29.58 33.728C29.5155 33.664 29.5155 33.536 29.4511 33.536Z" fill="#FFD400"/>
  <path d="M43.4355 52.288C43.5 52.288 43.5 52.288 43.4355 52.288C43.3711 52.096 43.3066 52.032 43.1777 51.904C43.1777 51.968 43.2422 52.096 43.1777 52.16L43.4355 52.288Z" fill="#FFE000"/>
  <path d="M25.3911 52.288C25.3911 52.864 25.4555 53.44 25.5844 54.016C26.0355 53.824 26.4866 53.632 26.8733 53.312C26.9377 52.672 27.3244 52.096 27.9044 51.776C27.9688 51.584 28.0333 51.328 28.0977 51.136L25.3911 52.288Z" fill="#FFE000"/>
  <path d="M28.8711 50.752L28.42 50.944C28.3555 51.136 28.2911 51.392 28.2266 51.584C28.4844 51.52 28.7422 51.456 29 51.456C29.2577 51.456 29.5155 51.52 29.7733 51.584C29.7088 51.328 29.6444 51.072 29.58 50.816L29 51.072L28.8711 50.752Z" fill="#FFE000"/>
  <path d="M30.1599 51.712C30.7399 52.032 31.1266 52.608 31.191 53.248C31.5777 53.568 32.0288 53.824 32.4799 53.952C32.6088 53.312 32.7377 52.736 32.6733 52.224L29.9022 50.88C29.9666 51.2 30.031 51.456 30.1599 51.712Z" fill="#FFE000"/>
  <path d="M28.0978 55.488C28.2911 55.936 28.6133 56.576 29 56.896C29.3867 56.576 29.7733 55.936 29.9667 55.488C29.6444 55.808 28.4844 55.808 28.0978 55.488Z" fill="#FFE000"/>
  <path d="M16.9489 54.144L17.2067 55.36L16.8844 54.912L16.24 56C16.0467 56.256 16.1756 56.448 16.4333 56.32L16.6911 56.256C16.9489 56.192 17.3356 55.872 17.4644 55.552L17.5933 55.36C18.1733 54.4 16.9489 54.144 16.9489 54.144Z" fill="#FFE000"/>
  <path d="M11.9222 54.592L12.5022 54.528L11.9866 52.992C11.9222 52.736 11.6644 52.608 11.4066 52.672L11.2133 52.736C10.9555 52.8 10.8266 53.056 10.8911 53.312L11.2133 54.336C11.2777 54.464 11.5999 54.4 11.6644 54.592C12.1155 55.424 12.8244 55.424 12.8244 55.424L12.6311 54.784L11.9222 54.592Z" fill="#FFE000"/>
  <path d="M15.9822 52.736L15.7244 51.904C15.66 51.648 15.4022 51.52 15.1444 51.584L14.9511 51.648C14.6933 51.712 14.5644 51.968 14.6288 52.224L15.08 53.632L15.7244 53.056L15.2088 53.952L15.2733 54.08L15.4666 54.72C15.4666 54.72 16.0466 53.952 15.9177 53.312C15.7889 53.12 16.0466 52.992 15.9822 52.736Z" fill="#FFE000"/>
  <path d="M13.8555 52.416C13.7911 52.224 13.5333 52.096 13.34 52.16L13.0178 52.288C12.8244 52.352 12.6955 52.608 12.76 52.8L13.1467 53.952L14.0489 54.4H13.4689C13.5978 54.976 13.92 55.232 14.3067 55.488C14.3067 55.488 14.6289 54.72 14.4355 54.144L13.8555 52.416Z" fill="#FFE000"/>
  <path d="M40.9222 51.264L41.6955 51.648C41.8244 51.456 42.1466 51.2 42.5977 51.328L42.7911 51.392C42.7911 51.392 42.7911 51.392 42.8555 51.392C41.4377 49.728 40.5355 48.128 40.3422 46.08L37.7644 47.104C37.8933 47.488 38.0866 47.872 38.28 48.256L38.9888 47.424L39.1822 47.616L38.4088 48.512C38.5377 48.704 38.6666 48.896 38.7955 49.088L39.3755 48.384L39.5689 48.576L38.9244 49.344C39.0533 49.536 39.1822 49.728 39.3755 49.856L39.9555 49.216L40.1488 49.408L39.5689 50.112C39.8911 50.56 40.3422 50.944 40.9222 51.264Z" fill="#FFE000"/>
  <path d="M15.3378 51.328C15.5311 51.328 15.7244 51.456 15.8533 51.584L17.6578 50.88C17.98 50.688 18.2378 50.432 18.4955 50.176L17.8511 49.408L18.0444 49.216L18.6889 49.984C18.8178 49.792 18.9467 49.664 19.14 49.472L18.3022 48.64L18.4955 48.448L19.14 49.28C19.2689 49.088 19.3978 48.896 19.5267 48.704L18.6889 47.68L18.8822 47.488L19.6555 48.384C20.0422 47.616 20.3 46.912 20.3644 46.272L17.7222 45.056C17.7222 47.488 16.8844 49.472 15.3378 51.328Z" fill="#FFE000"/>
  <path d="M6.38 17.216V16.512L6.83111 17.088C7.21778 17.6 7.60444 18.048 7.99111 18.432C7.73333 17.856 7.54 17.152 7.47555 16.384C6.31555 14.72 5.34889 13.12 5.02666 11.904C4.31777 15.232 5.22 17.472 6.70222 19.264C6.50889 18.624 6.38 17.984 6.38 17.216Z" fill="#FFE000"/>
  <path d="M12.5666 28.928C12.5022 28.864 12.5022 28.8 12.4377 28.736L12.051 28.16L12.6955 28.352C13.1466 28.48 13.6622 28.544 14.2422 28.544C13.211 28.288 12.1799 27.776 11.471 26.624C9.6666 25.792 7.86216 24.448 6.70216 22.848C6.25105 22.528 5.79994 22.208 5.41327 21.76C6.1866 25.088 9.47327 27.968 12.5666 28.928Z" fill="#FFE000"/>
  <path d="M13.5333 26.24C12.4377 25.792 11.6644 25.024 11.2133 24.256C9.85997 23.552 8.3133 22.4 7.34664 20.736C6.76664 20.288 6.25108 19.776 5.67108 19.136C5.79997 22.4 8.50664 24.896 11.2777 26.24C11.2133 26.176 11.2133 26.112 11.1489 25.984L10.8911 25.408L11.4711 25.664C12.18 25.984 12.8889 26.112 13.5333 26.24Z" fill="#FFE000"/>
  <path d="M11.4067 21.76C11.3422 21.568 11.3422 21.376 11.2778 21.184L11.2133 20.608L11.6644 20.928C12.18 21.312 12.6955 21.568 13.2111 21.824C12.76 21.44 12.3733 20.8 12.3089 19.904C10.0533 18.816 9.02221 17.472 7.60443 15.808C7.79776 18.752 9.47332 20.416 11.4067 21.76Z" fill="#FFE000"/>
  <path d="M16.1755 33.728C16.4333 33.344 16.7555 33.024 17.1422 32.832C16.5622 32.896 15.9822 32.896 15.4022 32.896C13.5333 32.896 11.8577 32.512 10.44 31.808C9.98885 31.936 9.60218 32.064 9.21552 32.32C10.5044 33.728 13.1466 34.304 16.1755 33.728Z" fill="#FFE000"/>
  <path d="M18.1733 34.368C18.0444 34.368 17.8511 34.368 17.6578 34.368C17.2066 34.368 16.7555 34.304 16.24 34.24L15.8533 34.176L15.9822 33.984C15.2733 34.112 14.5644 34.176 13.8555 34.176C13.2111 34.176 12.6311 34.112 12.0511 34.048C11.1489 34.304 10.5044 34.624 10.2466 35.2C13.1466 36.032 15.5955 35.584 18.1733 34.368Z" fill="#FFE000"/>
  <path d="M17.7867 32.448H17.7222C16.9489 32.448 15.9822 32.32 14.8222 32.064L14.4355 32L14.6289 31.68C14.6933 31.552 14.8222 31.424 14.8867 31.296C12.0511 31.168 9.7311 30.144 7.92665 28.224C7.60443 28.288 7.34665 28.416 7.15332 28.416C9.60221 32.256 13.5978 33.024 17.7867 32.448Z" fill="#FFE000"/>
  <path d="M15.1444 31.04C15.2733 30.912 15.4022 30.784 15.531 30.72C14.371 30.464 13.4688 29.952 12.8888 29.248C11.5999 28.928 10.1822 28.224 8.95771 27.2C8.05549 26.496 7.3466 25.728 6.70216 24.896C6.37994 24.832 6.05771 24.768 5.86438 24.768C7.79771 28.672 10.7622 30.912 15.1444 31.04Z" fill="#FFE000"/>
  <path d="M13.92 21.952C16.4977 23.104 18.9466 23.68 19.2688 26.432C18.1733 22.848 14.9511 23.424 11.5355 21.12C11.6644 22.464 12.6311 23.36 14.1133 23.936C15.9822 24.576 17.8511 25.152 18.56 27.008C16.5622 24.128 13.4688 24.96 11.02 23.104C11.3422 24.256 12.4377 25.92 14.6933 26.24C16.3044 26.624 17.1422 26.88 17.98 28.096C16.24 26.304 13.6622 26.816 11.3422 25.856C12.76 29.12 16.1111 28.096 18.0444 29.44C16.3688 28.672 14.0488 29.056 12.6311 28.608C13.34 29.696 14.5 30.272 15.7888 30.528C16.4977 30.08 17.2711 30.08 18.1088 30.016C18.4311 30.016 18.8177 29.952 19.14 29.952C18.1733 28.928 18.3666 27.136 20.0422 27.2C20.2355 21.312 14.7577 21.696 12.6311 19.136C12.4377 20.736 13.2111 21.568 13.92 21.952Z" fill="#FFE000"/>
  <path d="M23.7155 16.896C24.36 17.152 25.7133 17.28 26.4866 15.68C25.9066 16 25.1333 16 24.4888 15.936C23.5866 15.872 22.6844 15.68 21.7177 15.744C21.46 15.744 21.0088 16 20.9444 16.32C22.62 16 23.0711 16.64 23.7155 16.896Z" fill="#FFE000"/>
  <path d="M27.5177 20.544C27.5177 21.056 27.5177 21.568 27.2599 21.952L26.9377 22.464L26.8088 21.888C26.7444 21.696 26.6799 21.504 26.6155 21.312C26.4866 21.696 26.3577 22.08 26.0999 22.4L25.7133 22.976L25.6488 22.272C25.6488 22.144 25.6488 22.08 25.5844 21.952C25.5199 22.208 25.3911 22.464 25.1977 22.72L25.1333 22.848C25.0688 23.296 25.0044 23.744 24.9399 24C25.5199 23.872 26.2288 23.104 26.4866 22.464C26.6155 22.848 26.8733 23.36 27.1311 23.552C27.5822 23.04 27.7111 22.4 27.8399 21.632C28.0977 22.016 28.4199 22.144 28.9999 22.208C29.5799 22.144 29.9022 21.952 30.1599 21.632C30.2244 22.4 30.4177 23.04 30.8688 23.552C31.0622 23.36 31.3844 22.848 31.5133 22.464C31.7711 23.04 32.4799 23.872 33.0599 24C32.9955 23.744 32.9311 23.296 32.8666 22.848L32.8022 22.784C32.6088 22.528 32.4799 22.272 32.4155 22.016C32.4155 22.08 32.4155 22.208 32.3511 22.336L32.2222 22.976L31.8355 22.4C31.5777 22.08 31.4488 21.696 31.3199 21.312C31.2555 21.504 31.1911 21.696 31.1266 21.888L30.9977 22.464L30.6755 21.952C30.4177 21.568 30.4177 21.056 30.4177 20.544C30.0955 20.864 29.7088 21.12 29.3866 21.312C29.3222 21.632 29.1288 21.952 28.9355 22.208C28.7422 21.952 28.6133 21.568 28.4844 21.312C28.2266 21.12 27.8399 20.864 27.5177 20.544Z" fill="#FFE000"/>
  <path d="M25.5844 17.088C24.4889 17.664 23.5866 17.216 23.0711 16.832C22.4266 16.384 21.7822 16.384 21.1378 16.512C22.3622 17.28 21.9111 18.688 22.7489 19.072C23.1355 19.328 24.0378 19.904 24.4244 20.928C24.6178 20.608 24.8111 19.456 23.78 18.176C24.0378 18.304 24.36 18.688 24.36 18.688C25.0044 19.072 25.52 19.52 25.8422 20.032C25.9711 19.264 25.5844 18.56 24.94 17.792C25.9711 19.008 27.1311 19.072 27.9044 18.816C27.0022 18.752 26.0355 17.856 25.5844 17.088ZM21.7178 16.704C21.9111 16.704 22.2978 16.64 22.8778 16.96C22.6844 17.152 22.2333 17.472 21.7178 16.704Z" fill="#FFE000"/>
  <path d="M25.9066 19.008C26.0355 19.328 26.1 19.712 26.0355 20.16L25.9066 20.864L25.52 20.288C25.2622 19.904 24.94 19.584 24.5533 19.328C24.8111 20.096 24.7466 20.672 24.6177 21.056C24.8111 21.568 24.94 22.144 24.94 22.656C25.3266 22.08 25.4555 21.504 25.4555 20.864C25.6488 21.312 25.7777 21.76 25.8422 22.272C26.2288 21.696 26.4222 21.12 26.4866 20.48C26.7444 20.928 26.9377 21.376 27.0022 21.824C27.3244 21.376 27.1955 20.544 27.1311 19.84C27.5822 20.352 28.2911 20.992 28.7422 21.184C28.4844 20.48 27.9688 19.84 27.4533 19.328C27.3888 19.264 26.4866 19.392 25.9066 19.008Z" fill="#FFE000"/>
  <path d="M23.8444 25.472C22.2333 26.304 22.2977 27.904 21.46 28.224C21.6533 28.288 21.7822 28.352 21.9755 28.352C22.1688 28.16 22.2977 27.904 22.4266 27.648C22.9422 26.88 23.5222 25.92 25.0688 25.536C25.0688 25.472 25.0044 25.408 25.0044 25.344C24.7466 25.408 24.5533 25.472 24.36 25.472C24.2955 25.472 24.2311 25.472 24.1666 25.472H23.8444Z" fill="#FFE000"/>
  <path d="M14.1133 24.256C12.8244 23.744 11.9866 23.04 11.6 22.144C10.3111 21.376 9.21553 20.416 8.37776 19.2C7.73331 18.624 7.21776 17.984 6.63776 17.28C6.63776 20.544 8.76442 22.656 11.02 23.872C10.9555 23.68 10.8266 23.424 10.7622 23.232L10.5689 22.464L11.1489 22.912C12.1155 23.616 13.0822 23.936 14.1133 24.256Z" fill="#FFE000"/>
  <path d="M5.4133 19.2V18.432L5.92886 19.008C6.37997 19.584 6.83108 19.968 7.28219 20.352L6.50886 19.392C5.67108 18.368 5.09108 17.216 4.76886 16.064C4.63997 15.808 4.51108 15.552 4.38219 15.296C3.6733 18.688 4.89775 20.352 6.31553 22.016C5.79997 21.184 5.47775 20.224 5.4133 19.2Z" fill="#FFE000"/>
  <path d="M17.5289 39.04C17.2066 39.232 16.8844 39.36 16.4977 39.488L17.3355 39.872C17.3355 39.68 17.4644 39.36 17.5289 39.04Z" fill="#FFE000"/>
  <path d="M19.0111 40.896L19.2689 41.024L19.4622 40.896L19.9133 41.088C19.9133 40.768 19.9133 40.32 19.9133 39.936C19.6556 40.256 19.3333 40.64 19.0111 40.896Z" fill="#FFE000"/>
  <path d="M21.2667 41.728L21.5889 41.856L21.7822 42.176L22.2978 42.432C22.1689 41.92 22.1044 41.28 22.1044 40.704C21.8467 41.088 21.5889 41.408 21.2667 41.728Z" fill="#FFE000"/>
  <path d="M12.1155 37.504L13.0178 37.952C15.0155 37.888 16.6267 37.056 18.2378 36.032V35.968C18.2378 35.392 18.6244 34.688 18.9467 34.24C17.2711 35.136 15.7889 35.648 14.3067 35.84C13.2755 36.352 12.4378 36.864 12.1155 37.504Z" fill="#FFE000"/>
  <path d="M51.1044 17.088L51.5555 16.512V17.216C51.5555 17.984 51.4267 18.624 51.2333 19.264C52.7155 17.472 53.6178 15.232 52.9089 11.904C52.5866 13.12 51.62 14.72 50.46 16.384C50.3955 17.152 50.2022 17.792 49.9444 18.432C50.3311 17.984 50.7178 17.536 51.1044 17.088Z" fill="#FFE000"/>
  <path d="M46.4 26.688C45.6911 27.84 44.66 28.288 43.6288 28.608C44.2088 28.544 44.7888 28.544 45.1755 28.416L45.82 28.224L45.4333 28.8C45.3688 28.864 45.3688 28.928 45.3044 28.992C48.3977 28.032 51.6844 25.152 52.3933 21.888C51.9422 22.272 51.4911 22.656 51.1044 22.976C50.0088 24.576 48.2044 25.856 46.4 26.688Z" fill="#FFE000"/>
  <path d="M46.6577 26.304C49.4289 24.896 52.1355 22.4 52.2644 19.2C51.7489 19.84 51.1689 20.352 50.5889 20.8C49.6222 22.464 48.0111 23.552 46.7222 24.32C46.2711 25.152 45.4977 25.856 44.4022 26.304C45.1111 26.176 45.7555 26.048 46.4644 25.792L47.0444 25.536L46.7866 26.112C46.7222 26.112 46.7222 26.24 46.6577 26.304Z" fill="#FFE000"/>
  <path d="M44.66 21.824C45.1755 21.568 45.6911 21.312 46.2066 20.928L46.6577 20.608L46.5933 21.184C46.5933 21.376 46.5289 21.568 46.4644 21.76C48.4622 20.48 50.0733 18.752 50.2022 15.872C48.8489 17.536 47.8177 18.88 45.4977 19.968C45.4977 20.8 45.1111 21.44 44.66 21.824Z" fill="#FFE000"/>
  <path d="M42.5333 32.896C42.0177 32.896 41.4377 32.896 40.7933 32.832C41.1155 33.024 41.4378 33.344 41.76 33.728C44.7889 34.304 47.4311 33.792 48.72 32.384C48.3333 32.128 47.9466 31.936 47.4955 31.872C46.0777 32.512 44.4022 32.896 42.5333 32.896Z" fill="#FFE000"/>
  <path d="M45.8844 34.048C45.3044 34.176 44.7244 34.176 44.08 34.176C43.3711 34.176 42.6622 34.112 41.9533 33.984L42.0822 34.176L41.6955 34.24C41.18 34.368 40.7289 34.368 40.2778 34.368C40.0844 34.368 39.9555 34.368 39.7622 34.368C42.2755 35.584 44.7889 36.032 47.6244 35.2C47.4311 34.624 46.7867 34.304 45.8844 34.048Z" fill="#FFE000"/>
  <path d="M43.0489 31.296C43.1133 31.424 43.2422 31.552 43.3066 31.68L43.5 32L43.1133 32.064C41.9533 32.32 40.9866 32.448 40.2133 32.448H40.1489C44.2733 33.024 48.3333 32.256 50.7822 28.48C50.5889 28.416 50.2666 28.352 50.0089 28.288C48.14 30.144 45.82 31.168 43.0489 31.296Z" fill="#FFE000"/>
  <path d="M49.0422 27.264C47.8178 28.224 46.4 28.928 45.1111 29.312C44.4666 30.016 43.5644 30.528 42.4689 30.784C42.5978 30.912 42.7266 30.976 42.8555 31.104C47.2378 30.912 50.2022 28.672 52.2 24.896C52.0067 24.896 51.6844 24.96 51.3622 25.024C50.6533 25.792 49.9444 26.56 49.0422 27.264Z" fill="#FFE000"/>
  <path d="M38.7311 29.952C39.1177 30.016 39.4399 30.016 39.7622 30.016C40.5999 30.08 41.3733 30.08 42.0822 30.528C43.3711 30.272 44.5311 29.696 45.2399 28.608C43.8222 29.056 41.5666 28.672 39.8266 29.44C41.7599 28.096 45.1111 29.12 46.4644 25.984C44.1444 26.944 41.5666 26.432 39.8266 28.224C40.6644 27.008 41.5022 26.752 43.1133 26.368C45.4333 25.984 46.4644 24.384 46.7866 23.232C44.3377 25.088 41.2444 24.256 39.2466 27.136C40.0199 25.216 41.8244 24.64 43.6933 24.064C45.1755 23.488 46.1422 22.592 46.2711 21.248C42.8555 23.552 39.6333 22.976 38.5377 26.56C38.8599 23.808 41.3733 23.168 43.8866 22.08C44.5955 21.632 45.3044 20.8 45.1755 19.264C43.0488 21.76 37.5711 21.44 37.7644 27.328C39.5688 27.136 39.7622 28.928 38.7311 29.952Z" fill="#FFE000"/>
  <path d="M34.22 16.896C34.8644 16.576 35.3155 16 36.9911 16.32C36.9266 16 36.54 15.744 36.2177 15.744C35.2511 15.68 34.3489 15.872 33.4466 15.936C32.8022 16 32.0289 16 31.4489 15.68C32.2222 17.28 33.5755 17.152 34.22 16.896Z" fill="#FFE000"/>
  <path d="M30.7399 19.84C30.6755 20.544 30.5466 21.376 30.8688 21.824C30.9977 21.376 31.1911 20.864 31.3844 20.48C31.4488 21.12 31.6422 21.696 32.0288 22.272C32.0933 21.76 32.2222 21.312 32.4155 20.864C32.4155 21.504 32.5444 22.144 32.9311 22.656C32.9311 22.08 32.9955 21.568 33.2533 21.056C33.1244 20.672 33.0599 20.096 33.3177 19.328C32.9311 19.584 32.6088 19.968 32.3511 20.288L31.9644 20.864L31.8355 20.16C31.7711 19.776 31.8355 19.392 31.9644 19.008C31.3844 19.328 30.4822 19.264 30.3533 19.264C29.8377 19.776 29.3866 20.416 29.0644 21.12C29.6444 20.928 30.2888 20.352 30.7399 19.84Z" fill="#FFE000"/>
  <path d="M34.0911 25.472L33.8333 25.536C33.7689 25.536 33.7044 25.536 33.64 25.536C33.4466 25.536 33.1889 25.472 32.9955 25.408C32.9955 25.472 32.9311 25.536 32.9311 25.6C34.4778 25.92 35.0578 26.88 35.5733 27.712C35.7022 27.968 35.8955 28.224 36.0244 28.416C36.2178 28.416 36.3466 28.352 36.54 28.288C35.6378 27.904 35.7022 26.304 34.0911 25.472Z" fill="#FFE000"/>
  <path d="M46.9155 23.872C49.1711 22.592 51.2977 20.48 51.2977 17.28C50.7177 18.048 50.1377 18.624 49.5577 19.2C48.7844 20.48 47.6244 21.44 46.4 22.208C46.0133 23.104 45.1755 23.744 43.9511 24.256H43.8866C44.8533 24 45.8844 23.68 46.7866 22.976L47.3666 22.528L47.1733 23.296C47.1089 23.424 46.98 23.616 46.9155 23.872Z" fill="#FFE000"/>
  <path d="M50.6533 20.352C51.1044 19.968 51.5555 19.52 52.0067 19.008L52.5222 18.432V19.2C52.4578 20.224 52.2 21.248 51.6844 22.144C53.1022 20.416 54.3267 18.816 53.6178 15.424C53.4889 15.68 53.36 15.936 53.2311 16.192C52.9089 17.408 52.3289 18.496 51.4911 19.52L50.6533 20.352Z" fill="#FFE000"/>
  <path d="M45.4978 37.12C45.1111 36.672 44.4022 36.288 43.6289 35.84C42.1467 35.648 40.6644 35.136 38.9889 34.24C39.3756 34.688 39.6978 35.392 39.6978 35.968V36.032C41.1156 36.928 42.5333 37.632 44.2089 37.824C44.5956 37.568 45.0467 37.312 45.4978 37.12Z" fill="#FFE000"/>
  <path d="M41.18 39.424C40.9222 39.296 40.6644 39.168 40.4066 39.04C40.4711 39.296 40.4711 39.552 40.5355 39.744C40.7933 39.68 40.9866 39.552 41.18 39.424Z" fill="#FFE000"/>
  <path d="M38.7956 40.768C38.5378 40.512 38.28 40.256 38.0222 40C38.0867 40.448 38.0867 40.832 38.0222 41.152C38.28 41.024 38.5378 40.896 38.7956 40.768Z" fill="#FFE000"/>
  <path d="M35.5733 42.432C35.96 42.24 36.3466 41.984 36.7977 41.792C36.4755 41.408 36.1533 41.088 35.8955 40.704C35.8311 41.408 35.7666 41.984 35.5733 42.432Z" fill="#FFE000"/>
  <path d="M42.9844 38.464C42.7911 38.208 42.5977 37.952 42.34 37.696C41.3088 37.376 40.4066 36.8 39.44 36.224H39.3755C39.2466 36.224 39.1822 36.224 39.0533 36.224C38.4733 36.224 37.8288 36.032 37.3133 35.712C37.3133 35.84 37.2488 35.904 37.2488 36.032C38.4733 37.44 39.7622 38.656 41.5022 39.296C42.0177 38.976 42.5333 38.72 42.9844 38.464Z" fill="#FFE000"/>
  <path d="M40.2777 39.936C40.2777 39.616 40.2133 39.296 40.0844 38.912C38.9888 38.272 38.0222 37.376 37.1844 36.352C37.0555 36.736 36.9266 37.12 36.7977 37.504C37.3133 38.72 38.0222 39.744 39.0533 40.64C39.44 40.384 39.8911 40.192 40.2777 39.936Z" fill="#FFE000"/>
  <path d="M37.7 39.616C37.2488 39.04 36.9266 38.4 36.6688 37.76C36.3466 38.4 35.96 38.976 35.4444 39.488C35.8311 40.256 36.3466 40.96 36.9911 41.664C37.2488 41.536 37.5066 41.408 37.7644 41.28C37.8288 40.832 37.7644 40.256 37.7 39.616Z" fill="#FFE000"/>
  <path d="M35.5733 40.32C35.4444 40.128 35.3155 39.936 35.2511 39.744C34.9933 40 34.7356 40.256 34.4133 40.448V41.408V41.6C34.6711 41.92 34.9289 42.24 35.1867 42.56C35.5089 42.048 35.6378 41.28 35.5733 40.32Z" fill="#FFE000"/>
  <path d="M33.4466 41.664C33.2533 41.92 33.1244 42.24 32.8666 42.432C33.06 42.752 33.3177 43.136 33.5755 43.456C33.7689 43.328 33.9622 43.264 34.1555 43.136C34.2844 42.816 34.4133 42.496 34.4777 42.048C34.3489 41.92 34.22 41.728 34.1555 41.6H33.4466V41.664Z" fill="#FFE000"/>
  <path d="M32.6733 42.624C32.2866 43.008 31.8355 43.392 31.3199 43.648C31.5777 43.84 31.8355 44.032 32.0933 44.224C32.4155 44.032 32.8022 43.904 33.1244 43.712C33.1244 43.52 33.0599 43.392 32.9955 43.2C32.8666 43.008 32.8022 42.816 32.6733 42.624Z" fill="#FFE000"/>
  <path d="M31.7066 44.416C31.7066 44.352 31.7066 44.288 31.7066 44.288C31.5133 44.16 31.2555 43.968 31.0622 43.776C30.6111 43.968 30.0955 44.096 29.5155 44.16C29.7088 44.544 29.9022 44.864 30.1599 45.184C30.6755 44.928 31.1911 44.672 31.7066 44.416Z" fill="#FFE000"/>
  <path d="M29.2577 44.16C29.1933 44.16 29.1288 44.16 29.1288 44.16H28.8066C28.7422 44.16 28.6777 44.16 28.6777 44.16C28.5488 44.48 28.2911 44.8 28.1622 45.12L28.8711 45.44C28.9355 45.312 28.9999 45.12 28.9999 44.992C29.0644 45.248 29.1288 45.44 29.1933 45.696C29.4511 45.568 29.7088 45.44 29.9666 45.312C29.7088 44.928 29.4511 44.544 29.2577 44.16Z" fill="#FFE000"/>
  <path d="M26.2289 44.352L26.68 44.544L26.8089 44.48L27.84 44.992C28.0333 44.736 28.2267 44.416 28.3556 44.16C27.84 44.096 27.3244 43.968 26.8089 43.776C26.68 43.904 26.4222 44.224 26.2289 44.352Z" fill="#FFE000"/>
  <path d="M26.6155 43.648C26.1 43.392 25.6489 43.072 25.2622 42.624C25.1333 42.816 25.0689 43.008 24.94 43.136C24.94 43.264 24.8111 43.52 24.8111 43.584L26.0355 44.16C26.1644 44.096 26.4222 43.776 26.6155 43.648Z" fill="#FFE000"/>
  <path d="M24.4889 41.664H23.8444C23.7156 41.792 23.6511 41.984 23.5222 42.112C23.5222 42.432 23.5867 42.88 23.6511 43.072L24.4889 43.456C24.6822 43.2 25.0044 42.688 25.1333 42.432C24.8756 42.176 24.6822 41.92 24.4889 41.664Z" fill="#FFE000"/>
  <path d="M23.5866 41.408V40.448C23.2644 40.192 23.0066 39.936 22.7488 39.68C22.6199 39.872 22.4911 40.128 22.3622 40.32C22.2977 41.216 22.3622 42.112 22.6199 42.624L22.7488 42.688C23.0066 42.368 23.3288 41.856 23.5222 41.536V41.408H23.5866Z" fill="#FFE000"/>
  <path d="M21.3311 37.696C21.0089 38.336 20.6867 38.976 20.2355 39.616C20.1711 40.256 20.1067 40.832 20.1711 41.28L21.0089 41.664C21.6533 40.96 22.1689 40.256 22.5555 39.488C22.04 38.912 21.6533 38.336 21.3311 37.696Z" fill="#FFE000"/>
  <path d="M20.7511 36.288C19.8489 37.312 18.8822 38.272 17.7866 38.912C17.6578 39.36 17.5289 39.872 17.5289 40.256L18.8178 40.832C19.9133 39.936 20.6866 38.592 21.2022 37.376C21.0089 37.056 20.88 36.672 20.7511 36.288Z" fill="#FFE000"/>
  <path d="M20.6867 35.968C20.6867 35.904 20.6222 35.776 20.6222 35.712C20.0422 36.032 19.4622 36.288 18.8178 36.288C18.6889 36.288 18.6244 36.288 18.4956 36.288H18.4311C17.5289 36.864 16.5622 37.376 15.5311 37.76C15.2089 38.144 14.7578 38.592 14.5 38.912L15.7889 39.552C17.8511 38.848 19.3978 37.504 20.6867 35.968Z" fill="#FFE000"/>
  <path d="M43.0488 31.872C41.3733 29.312 39.2466 31.104 36.6688 29.504C36.4755 29.632 36.2177 29.632 35.8955 29.696C36.6044 30.656 37.0555 31.744 37.2488 32.832C38.0866 34.112 39.8266 34.304 41.5022 33.984C40.9222 33.024 40.1488 32.704 39.2466 32.512C38.2155 32.192 37.3777 31.808 37.12 30.72C38.0222 32.576 40.7288 32.32 43.0488 31.872Z" fill="#FFE000"/>
  <path d="M39.3755 35.968C39.3755 35.328 38.86 34.432 38.4733 34.176C37.9577 33.984 37.6355 33.728 37.3777 33.344C37.4422 33.664 37.4422 33.984 37.4422 34.24C37.4422 34.624 37.3777 35.072 37.3133 35.456C38.0222 35.84 38.7311 36.032 39.3755 35.968Z" fill="#FFE000"/>
  <path d="M19.3978 34.176C19.0111 34.496 18.56 35.328 18.4955 35.968C19.2044 36.032 19.8489 35.84 20.5578 35.392C20.4933 35.008 20.4933 34.624 20.4933 34.24C20.4933 33.92 20.4933 33.536 20.5578 33.216C20.3 33.664 19.9778 33.92 19.3978 34.176Z" fill="#FFE000"/>
  <path d="M18.56 32.512C17.6578 32.704 16.8844 33.088 16.3044 33.984C18.0444 34.304 19.8489 34.112 20.6867 32.704C20.88 31.616 21.3955 30.592 22.04 29.696C21.7178 29.696 21.46 29.632 21.2667 29.504C18.7533 31.104 16.5622 29.312 14.8867 31.872C17.2067 32.384 19.9133 32.64 20.7511 30.72C20.4289 31.808 19.5911 32.192 18.56 32.512Z" fill="#FFE000"/>
  <path d="M34.4133 28.032C34.9288 28.416 35.3799 28.928 35.7666 29.376C36.1533 29.376 36.4755 29.312 36.7977 29.12C35.0577 28.8 35.3799 26.304 32.7377 25.792L32.6733 25.856C32.9311 26.112 33.1888 26.432 33.3822 26.816H34.1555H34.4133V27.072V28.032Z" fill="#FFE000"/>
  <path d="M22.2333 29.44C22.62 28.928 23.0711 28.48 23.5866 28.096V27.136V26.88H23.8444H24.4889C24.6822 26.496 24.94 26.176 25.1977 25.92L25.1333 25.856C22.4911 26.432 22.8133 28.864 21.0733 29.184C21.46 29.376 21.7822 29.44 22.2333 29.44Z" fill="#FFE000"/>
  <path d="M25.2622 25.28C25.3267 25.408 25.3911 25.536 25.4555 25.664C25.7133 25.408 25.9711 25.216 26.2933 25.024C26.2289 24.896 26.2289 24.704 26.2289 24.512C25.9067 24.896 25.5844 25.152 25.2622 25.28Z" fill="#FFE000"/>
  <path d="M31.7711 24.576C31.7711 24.768 31.7067 24.96 31.7067 25.088C32.0289 25.28 32.2867 25.472 32.5444 25.728C32.6089 25.6 32.6733 25.472 32.7378 25.344C32.3511 25.152 32.0289 24.896 31.7711 24.576Z" fill="#FFE000"/>
  <path d="M28.0978 24.384C28.1622 24.384 28.2911 24.384 28.3556 24.384C28.3556 24.32 28.2911 24.192 28.2911 24.128C28.2267 24.192 28.1622 24.32 28.0978 24.384Z" fill="#FFE000"/>
  <path d="M29.8377 24.384C29.7733 24.32 29.7088 24.192 29.6444 24.064C29.6444 24.192 29.58 24.256 29.58 24.32C29.6444 24.384 29.7733 24.384 29.8377 24.384Z" fill="#FFE000"/>
  <path d="M32.9311 24.256C32.4155 24.128 31.8355 23.616 31.5133 23.104C31.3844 23.36 31.1911 23.616 30.9977 23.808L30.8044 24L30.6111 23.808C30.2244 23.36 30.0311 22.784 29.9022 22.208C29.6444 22.72 28.1622 22.72 27.9689 22.208C27.9044 22.72 27.7111 23.296 27.26 23.808L27.0666 24L26.8733 23.808C26.68 23.68 26.5511 23.424 26.3577 23.104C25.9711 23.616 25.3911 24.192 24.94 24.256L24.7466 24.32C24.6177 24.64 24.4244 24.96 24.1666 25.28C24.8755 25.408 25.9066 24.768 26.4222 23.808C26.4222 24.32 26.4222 24.64 26.4866 24.96C26.8733 24.768 27.26 24.576 27.7111 24.512C27.9688 24.192 28.2266 23.744 28.2911 23.168C28.42 23.808 28.4844 24.128 28.6133 24.384C28.6777 24.384 29.1933 24.384 29.2577 24.384C29.3866 24.128 29.4511 23.744 29.58 23.168C29.6444 23.744 29.9022 24.192 30.16 24.512C30.6111 24.64 30.9977 24.768 31.3844 24.96C31.4489 24.704 31.4489 24.384 31.4489 23.808C32.0289 24.768 32.9955 25.408 33.7044 25.28C33.4466 24.96 33.2533 24.64 33.1244 24.32L32.9311 24.256Z" fill="#FFE000"/>
  <path d="M33.2533 41.408H34.1555V40.32C36.0244 38.912 37.2489 36.736 37.2489 34.24C37.2489 31.808 36.0244 29.568 34.1555 28.16V27.072H33.2533C32.48 25.6 30.9333 24.576 29.1289 24.576H28.8067C27.0022 24.576 25.4555 25.6 24.6822 27.072H23.8444V28.16C21.9755 29.568 20.7511 31.744 20.7511 34.24C20.7511 36.672 21.9755 38.912 23.8444 40.32V41.408H24.6822C25.4555 42.88 27.0022 43.904 28.8067 43.904H29.1289C30.9333 43.904 32.48 42.88 33.2533 41.408ZM29.1289 43.52H28.8067C27.1955 43.52 25.7778 42.624 25.0044 41.216L24.8755 41.024H24.1667V40.192L24.0378 40.064C22.1689 38.656 21.1378 36.544 21.1378 34.304C21.1378 32.064 22.2333 29.952 24.0378 28.544L24.1667 28.416V27.52H24.8755L25.0044 27.328C25.7778 25.92 27.1955 25.024 28.8067 25.024H29.1289C30.74 25.024 32.1578 25.92 32.9311 27.328L33.06 27.52H33.7689V28.352L33.8978 28.48C35.7667 29.888 36.7978 32 36.7978 34.24C36.7978 36.48 35.7022 38.592 33.8978 40L33.7689 40.128V40.96H33.06L32.9311 41.152C32.1578 42.624 30.74 43.52 29.1289 43.52Z" fill="#FFE000"/>
  <path d="M33.06 17.92C32.4155 18.688 32.0289 19.392 32.1578 20.16C32.48 19.648 32.9311 19.2 33.64 18.816C33.64 18.816 33.9622 18.368 34.22 18.304C33.1889 19.584 33.3822 20.672 33.5755 21.056C33.9622 19.968 34.8644 19.392 35.2511 19.2C36.0889 18.816 35.6378 17.344 36.8622 16.64C36.1533 16.512 35.5089 16.512 34.9289 16.96C34.4133 17.344 33.5111 17.792 32.4155 17.216C31.9644 17.92 30.9978 18.88 30.16 19.008C30.8689 19.136 32.0289 19.072 33.06 17.92ZM36.2178 16.704C35.7022 17.408 35.3155 17.088 35.0578 16.96C35.6378 16.704 35.96 16.768 36.2178 16.704Z" fill="#FFE000"/>
  <path d="M40.4067 54.656L40.02 55.04L40.4067 53.824C40.4067 53.824 39.1178 53.952 39.6333 55.04L39.6978 55.232C39.8267 55.552 40.1489 55.872 40.4067 56L40.6 56.128C40.8578 56.256 40.9867 56.128 40.8578 55.808L40.4067 54.656Z" fill="#FFE000"/>
  <path d="M46.2711 53.12L46.0777 53.056C45.82 52.928 45.5622 53.056 45.4333 53.312L44.7244 54.784L45.3044 54.912L44.5955 55.04L44.3377 55.68C44.3377 55.68 45.0466 55.808 45.5622 54.976C45.6911 54.784 45.9488 54.912 46.0133 54.784L46.4644 53.76C46.5933 53.504 46.5288 53.248 46.2711 53.12Z" fill="#FFE000"/>
  <path d="M42.9844 52.288C43.1133 52.032 42.9844 51.776 42.7266 51.648L42.5333 51.52C42.2755 51.392 42.0177 51.52 41.8888 51.776L41.5022 52.544C41.3733 52.8 41.6311 52.928 41.5022 53.184C41.3088 53.824 41.8244 54.592 41.8244 54.592L42.0822 53.952L42.1466 53.824L41.76 52.928L42.34 53.504L42.9844 52.288Z" fill="#FFE000"/>
  <path d="M44.7244 52.928C44.7889 52.736 44.7244 52.48 44.5311 52.416L44.2089 52.288C44.0155 52.224 43.7577 52.288 43.6933 52.48L42.9844 54.08C42.7266 54.656 42.9844 55.488 42.9844 55.488C43.3711 55.232 43.6933 54.976 43.8866 54.464L43.3711 54.4L44.2733 54.08L44.7244 52.928Z" fill="#FFE000"/>
</svg>
