<?xml version="1.0" encoding="utf-8"?>
<!-- Generator: Adobe Illustrator 21.1.0, SVG Export Plug-In . SVG Version: 6.00 Build 0)  -->
<svg version="1.1" id="Layer_1" xmlns="http://www.w3.org/2000/svg" xmlns:xlink="http://www.w3.org/1999/xlink" x="0px" y="0px"
	 viewBox="0 0 58 61" style="enable-background:new 0 0 58 61;" xml:space="preserve">
<style type="text/css">
	.st0{fill:#12B1EE;}
</style>
<path class="st0" d="M44.5,34.1c-0.7-1.9-3.2-8.8-6.8-20C33.6,0.9,30-0.1,29-0.1c-1,0-4.6,1-8.7,14.2c-3.6,11.2-6.1,18.2-6.8,20
	C11,35.2,0.5,40.2,0.4,48c0,2,0.6,3.7,1.9,5.1c2.7,2.8,7.7,3.2,10.4,3.2c0.9,0,1.5,0,1.5-0.1c0.6,0,1.1-0.5,1.1-1.1
	c0.1-0.6-0.3-1.1-0.8-1.3c-1.7-0.6-4.7-2-5.2-3.4c-0.1-0.2-0.2-0.6,0.2-1.1c0.3-0.4,0.7-1,1.9-1c2.3,0,5.4,2.1,6.3,3.4
	c0.3,0.6,0.6,1.1,0.9,1.6c1,1.7,1.9,3.4,4.2,4.8c2.5,1.5,5,1.7,6,1.7c0.1,0,0.2,0,0.2,0c0,0,0.1,0,0.2,0c1,0,3.5-0.2,6-1.7
	c2.3-1.4,3.2-3.1,4.2-4.8c0.3-0.5,0.6-1.1,0.9-1.6c0.8-1.4,3.9-3.4,6.3-3.4c1.2,0,1.7,0.6,1.9,1c0.3,0.5,0.2,0.9,0.2,1.1
	c-0.5,1.4-3.5,2.9-5.2,3.4c-0.6,0.2-0.9,0.7-0.8,1.3c0.1,0.6,0.5,1,1.1,1.1c0,0,0.6,0.1,1.5,0.1c0,0,0,0,0,0c2.7,0,7.7-0.4,10.4-3.2
	c1.3-1.3,2-3,1.9-5.1C57.5,40.2,47,35.2,44.5,34.1z"/>
</svg>
