<?xml version="1.0" encoding="utf-8"?>
<!-- Generator: Adobe Illustrator 21.1.0, SVG Export Plug-In . SVG Version: 6.00 Build 0)  -->
<svg version="1.1" id="Layer_5" xmlns="http://www.w3.org/2000/svg" xmlns:xlink="http://www.w3.org/1999/xlink" x="0px" y="0px"
	 viewBox="0 0 512 512" style="enable-background:new 0 0 512 512;" xml:space="preserve">
<style type="text/css">
	.st0{fill:#FFFFFF;}
</style>
<circle class="st0" cx="208" cy="192" r="8"/>
<circle class="st0" cx="304" cy="192" r="8"/>
<path class="st0" d="M256,272c-8.8,0-16-7.2-16-16h-16c0,17.6,14.4,32,32,32s32-14.4,32-32h-16C272,264.8,264.8,272,256,272z"/>
<path class="st0" d="M406.4,384.8c20.8-16.5,32-35.9,32.6-36.8l4.2-7.3l-7.6-3.8c-26.9-13.4-43.6-40.4-43.6-70.4l0-131.6
	c0-33.9-13.2-65.7-37.2-89.7C330.8,21.2,298.9,8,265,8h-2.1c-32.4,0-62.8,12.6-85.7,35.5l-13.7,13.7C137,68.5,120,94.2,120,123.1
	v143.3c0,30.1-16.7,57.1-43.6,70.5l-7.6,3.8l4.2,7.3c0.5,1,11.8,20.3,32.6,36.8C65.4,407,40,449.2,40,496v8h432v-8
	C472,449.2,446.6,407,406.4,384.8z M262.9,24h2.1c29.7,0,57.6,11.5,78.6,32.5c21,20.9,32.5,48.7,32.5,78.3l0,131.6
	c0,33.1,16.9,63.1,44.6,80.4c-5.5,7.6-16,20.3-30.7,30.3l-79-32.3c-9.1-3.7-14.9-12.4-14.9-22.2v-5.7c39.4-27.2,64-72.3,64-122v-50
	l-91.7-9.2c-41.1-4.1-76.3-31.2-91-69.6l11.2-11.2C208.4,34.9,234.8,24,262.9,24L262.9,24z M320,368c0,13.2-12.6,24-28,24
	c-9.3,0-17.6-3.9-22.7-10c13.1-3.8,24-13,29.9-25.3c1.8,1.1,3.7,2.1,5.7,2.9l14.8,6.1C319.8,366.4,320,367.2,320,368L320,368z
	 M192.3,365.6l14.8-6.1c2-0.8,3.9-1.8,5.7-2.9c5.9,12.3,16.7,21.5,29.9,25.3c-5.1,6.2-13.4,10-22.7,10c-15.4,0-28-10.8-28-24
	C192,367.2,192.2,366.4,192.3,365.6L192.3,365.6z M256,319.5c-52.8-18.8-88-68.5-88-124.7v-16.5c0-13.8,6.9-26.4,18.5-33.7
	l22.3-14.2c16.9,11.5,36.8,19,57.9,21.1l77.3,7.7v35.6C344,251,308.8,300.8,256,319.5z M253.5,335.6l2.5,0.8l2.5-0.8
	c7.6-2.5,14.8-5.6,21.8-9.2c0.6,6.7,2.8,12.9,6.4,18.3c-3.8,13.6-16.2,23.3-30.7,23.3c-14.5,0-26.8-9.7-30.7-23.3
	c3.6-5.4,5.8-11.7,6.4-18.3C238.6,330,245.9,333.1,253.5,335.6L253.5,335.6z M256,390.9c2.2,2.9,4.8,5.4,7.7,7.6l14.8,89.5h-45.1
	l14.8-89.5C251.2,396.3,253.8,393.8,256,390.9z M91.4,346.8c27.7-17.2,44.6-47.3,44.6-80.4V123.1c0-20.1,10.6-38.2,27.6-48.1
	c7.2,17.4,18.2,32.7,31.8,44.9l-17.5,11.1c-16.2,10.3-25.9,28-25.9,47.3v16.5c0,49.6,24.6,94.8,64,122v5.7c0,9.8-5.8,18.5-14.9,22.2
	l-79,32.3C107.5,367.1,96.9,354.4,91.4,346.8L91.4,346.8z M125.1,393.1l51.2-20.9c2.3,20.1,21,35.8,43.8,35.8
	c3.7,0,7.2-0.5,10.7-1.3L217.2,488H136v-48h-16v48H56.3C59.3,446,85.6,409.3,125.1,393.1z M392,488v-48h-16v48h-81.2l-13.5-81.3
	c3.5,0.8,7,1.3,10.7,1.3c22.7,0,41.4-15.7,43.8-35.8l51.2,20.9c39.5,16.1,65.8,52.8,68.8,94.9H392z"/>
<path class="st0" d="M342.8,129.3l15.8-2.6c-1-5.9-2.5-11.7-4.5-17.3l-15.1,5.3C340.7,119.4,342,124.4,342.8,129.3L342.8,129.3z"/>
<path class="st0" d="M332.2,100l13.8-8C327.5,59.9,293,40,256,40v16C287.3,56,316.5,72.9,332.2,100z"/>
</svg>
