<svg width="10" height="14" viewBox="0 0 10 14" fill="none" xmlns="http://www.w3.org/2000/svg">
  <path d="M5.00005 0C6.93027 0 8.5 1.56973 8.5 3.49995C8.5 5.43017 6.93027 6.99989 5.00005 6.99989C3.06983 6.99989 1.50011 5.43017 1.50011 3.49995C1.50011 1.56973 3.06983 0 5.00005 0ZM5.00005 5.24992C5.96516 5.24992 6.75003 4.46506 6.75003 3.49995C6.75003 2.53484 5.96516 1.74997 5.00005 1.74997C4.03494 1.74997 3.25008 2.53484 3.25008 3.49995C3.25008 4.46506 4.03494 5.24992 5.00005 5.24992Z" fill="#019867"/>
  <path d="M0.358914 6.90283C0.701034 6.56071 1.25403 6.56071 1.59615 6.90283C3.47212 8.7788 6.52582 8.7788 8.40266 6.90283C8.74478 6.56071 9.29777 6.56071 9.63989 6.90283C9.98201 7.24495 9.98201 7.79794 9.63989 8.14094C8.55141 9.22942 7.17156 9.84979 5.74883 10.0117L8.24342 12.5062C8.58554 12.8484 8.58554 13.4014 8.24342 13.7435C7.9013 14.0856 7.3483 14.0856 7.00619 13.7435L4.99984 11.7371L2.9935 13.7435C2.82288 13.9141 2.59888 13.9998 2.37488 13.9998C2.15089 13.9998 1.92689 13.9141 1.75627 13.7435C1.41415 13.4014 1.41415 12.8484 1.75627 12.5062L4.25085 10.0117C2.82813 9.84979 1.44827 9.22942 0.359789 8.14094C0.0176697 7.79882 0.0176697 7.24495 0.358914 6.90283Z" fill="#019867"/>
</svg>
