<svg width="10" height="14" viewBox="0 0 10 14" fill="none" xmlns="http://www.w3.org/2000/svg">
  <path d="M5.00005 0C6.93027 0 8.5 1.56973 8.5 3.49995C8.5 5.43017 6.93027 6.99989 5.00005 6.99989C3.06983 6.99989 1.50011 5.43017 1.50011 3.49995C1.50011 1.56973 3.06983 0 5.00005 0ZM5.00005 5.24992C5.96516 5.24992 6.75003 4.46506 6.75003 3.49995C6.75003 2.53484 5.96516 1.74997 5.00005 1.74997C4.03494 1.74997 3.25008 2.53484 3.25008 3.49995C3.25008 4.46506 4.03494 5.24992 5.00005 5.24992Z" fill="white"/>
  <path d="M0.359159 6.90283C0.701278 6.56071 1.25427 6.56071 1.59639 6.90283C3.47236 8.7788 6.52606 8.7788 8.40291 6.90283C8.74503 6.56071 9.29802 6.56071 9.64014 6.90283C9.98226 7.24495 9.98226 7.79794 9.64014 8.14094C8.55166 9.22942 7.1718 9.84979 5.74907 10.0117L8.24366 12.5062C8.58578 12.8484 8.58578 13.4014 8.24366 13.7435C7.90154 14.0856 7.34855 14.0856 7.00643 13.7435L5.00009 11.7371L2.99374 13.7435C2.82312 13.9141 2.59912 13.9998 2.37513 13.9998C2.15113 13.9998 1.92713 13.9141 1.75651 13.7435C1.41439 13.4014 1.41439 12.8484 1.75651 12.5062L4.2511 10.0117C2.82837 9.84979 1.44852 9.22942 0.360033 8.14094C0.0179138 7.79882 0.0179138 7.24495 0.359159 6.90283Z" fill="white"/>
</svg>
