<svg width="12" height="12" viewBox="0 0 12 12" fill="none" xmlns="http://www.w3.org/2000/svg">
  <path d="M11.5 5.49997H6.49999V0.500008C6.49999 0.223857 6.27613 0 5.99998 0C5.72383 0 5.49997 0.223857 5.49997 0.500008V5.5H0.500008C0.223857 5.49997 0 5.72383 0 5.99998C0 6.27613 0.223857 6.49999 0.500008 6.49999H5.5V11.5C5.5 11.7761 5.72386 12 6.00001 12C6.27616 12 6.50002 11.7761 6.50002 11.5V6.49999H11.5C11.7762 6.49999 12 6.27613 12 5.99998C12 5.72383 11.7761 5.49997 11.5 5.49997Z" fill="#333333"/>
</svg>
