<?xml version="1.0" encoding="utf-8"?>
<!-- Generator: Adobe Illustrator 21.1.0, SVG Export Plug-In . SVG Version: 6.00 Build 0)  -->
<svg version="1.1" id="Layer_5" xmlns="http://www.w3.org/2000/svg" xmlns:xlink="http://www.w3.org/1999/xlink" x="0px" y="0px"
	 viewBox="0 0 512 512" style="enable-background:new 0 0 512 512;" xml:space="preserve">
<style type="text/css">
	.st0{fill:#FFFFFF;}
</style>
<g>
	<path class="st0" d="M176,424v-32c0-17.6-14.4-32-32-32h-16c-8.8,0-16-7.2-16-16v-16h32c8.8,0,16,7.2,16,16h16
		c0-17.6-14.4-32-32-32v-16h-16v16H96v32c0,17.6,14.4,32,32,32h16c8.8,0,16,7.2,16,16v16h-32c-8.8,0-16-7.2-16-16H96
		c0,17.6,14.4,32,32,32v16h16v-16H176z"/>
	<path class="st0" d="M341.7,277.6c3.1,1.5,6.6,2.4,10.3,2.4s7.2-0.9,10.3-2.4l16.1,16.1l11.3-11.3l-16.1-16.1
		c1.5-3.1,2.4-6.6,2.4-10.3c0-13.2-10.8-24-24-24s-24,10.8-24,24c0,3.7,0.9,7.2,2.4,10.3l-24.1,24.1l11.3,11.3L341.7,277.6z
		 M352,248c4.4,0,8,3.6,8,8c0,4.4-3.6,8-8,8s-8-3.6-8-8S347.6,248,352,248z"/>
	<path class="st0" d="M208.3,385.2l5.8,37.4c-3.3,3.9-7,7.7-11.2,11.1l10.2,12.3c6-4.9,11.3-10.4,15.8-16.3l2.1-2.7l-6.8-44.2
		L208.3,385.2z"/>
	<path class="st0" d="M173.4,450.1l5.2,15.1c6-2.1,11.8-4.6,17.2-7.5l-7.6-14.1C183.5,446.2,178.5,448.4,173.4,450.1L173.4,450.1z"
		/>
	<path class="st0" d="M352,376c66.2,0,120-53.8,120-120s-53.8-120-120-120s-120,53.8-120,120S285.8,376,352,376z M248.4,248
		c1.7-22.7,10.7-43.3,24.7-59.6l22.3,22.3l11.3-11.3l-22.3-22.3c16.3-14,36.9-23,59.6-24.7V184h16v-31.6
		c22.7,1.7,43.3,10.7,59.6,24.7l-22.3,22.3l11.3,11.3l22.3-22.3c14,16.3,23,36.9,24.7,59.6H424v16h31.6
		c-1.7,22.7-10.7,43.3-24.7,59.6l-22.3-22.3l-11.3,11.3l22.3,22.3c-16.3,14-36.9,23-59.6,24.7V328h-16v31.6
		c-22.7-1.7-43.3-10.7-59.6-24.7l22.3-22.3l-11.3-11.3l-22.3,22.3c-14-16.3-23-36.9-24.7-59.6H280v-16H248.4z"/>
	<path class="st0" d="M480,384c-13.2,0-24,10.8-24,24c0,2.9,0.6,5.7,1.6,8.3C426.2,437,390,448,352,448c-23.8,0-47.1-4.3-69.1-12.8
		l-5.8,14.9C301,459.3,326.2,464,352,464c41.8,0,81.6-12.3,115.9-35.4c3.6,2.1,7.7,3.4,12.1,3.4c13.2,0,24-10.8,24-24
		S493.2,384,480,384L480,384z M480,416c-4.4,0-8-3.6-8-8s3.6-8,8-8s8,3.6,8,8S484.4,416,480,416z"/>
	<path class="st0" d="M240,64c-13.2,0-24,10.8-24,24s10.8,24,24,24s24-10.8,24-24c0-0.8-0.2-1.6-0.2-2.5C290.9,71.5,321.2,64,352,64
		c52.6,0,101.7,20.9,138.2,58.8l11.5-11.1C462.2,70.6,409,48,352,48c-33.1,0-65.8,8-95,23C252.6,66.7,246.6,64,240,64L240,64z
		 M240,96c-4.4,0-8-3.6-8-8s3.6-8,8-8s8,3.6,8,8S244.4,96,240,96z"/>
</g>
<path class="st0" d="M352,104c-83.8,0-152,68.2-152,152c0,1.2,0.1,2.4,0.1,3.6l-11.2-15.4c6.6-4.3,11.1-11.7,11.1-20.2
	c0-8.3-4.2-15.6-10.6-19.9l21-26.2c3.6-4.6,5.6-10.3,5.6-16.1c0-14.2-11.6-25.8-25.8-25.8H166c-2.7-6.6-8.1-11.7-14.7-14.2H72.4
	c-9.6,3.8-16.4,13.1-16.4,24v1.5c0,4.5,1.2,8.9,3.4,12.8l24.7,43.2C76.9,207.4,72,215.1,72,224c0,8.5,4.4,15.9,11.1,20.2l-50.7,69.7
	c-5.2,7.2-8.7,15.6-10.1,24.4l-14.6,95l1.1,2.3C10.2,438.4,44.1,504,136,504s125.8-65.6,127.2-68.4l1.1-2.3l-9.4-60.8
	c27.2,22.6,61.3,35.5,97.1,35.5l0,0c83.8,0,152-68.2,152-152S435.8,104,352,104z M73.3,152.1c-0.8-1.5-1.3-3.2-1.3-4.8v-1.5
	c0-5.4,4.4-9.8,9.8-9.8h60.5c5.4,0,9.8,4.4,9.8,9.8V168h16v-16h22.2c5.4,0,9.8,4.4,9.8,9.8c0,2.2-0.8,4.4-2.1,6.1L172.2,200h-71.5
	L73.3,152.1z M184,224c0,4.4-3.6,8-8,8H96c-4.4,0-8-3.6-8-8s3.6-8,8-8h80C180.4,216,184,219.6,184,224z M136,488
	c-73.8,0-105.4-46.7-111.7-57.5l13.8-89.8c1-6.3,3.4-12.3,7.2-17.5l54.8-75.3h71.9l54.7,75.3c3.7,5.1,6.2,11.2,7.2,17.5l13.8,89.8
	C241.4,441.3,209.8,488,136,488z M352,392c-38.5,0-75.2-16.5-101-45.3l-1.3-8.4c-1.4-8.8-4.8-17.2-10.1-24.4l-20-27.5
	c-2.4-10.3-3.6-20.5-3.6-30.3c0-75,61-136,136-136s136,61,136,136S427,392,352,392z"/>
</svg>
