<svg width="46" height="46" viewBox="0 0 46 46" fill="none" xmlns="http://www.w3.org/2000/svg">
  <circle cx="23" cy="23" r="22.4" fill="white" stroke="#019867" stroke-width="1.2"/>
  <g clip-path="url(#clip0)">
    <path d="M32.5623 16.812C32.5898 16.7844 32.5898 16.7844 32.5623 16.7569C32.5623 16.7293 32.5347 16.7018 32.5347 16.6743C32.5347 16.6467 32.5072 16.6467 32.5072 16.6192C32.5072 16.5916 32.4796 16.5641 32.4796 16.5365C32.4796 16.509 32.4521 16.509 32.4521 16.4814C32.4245 16.4539 32.4245 16.4263 32.397 16.4263L27.1635 11.1928C27.1359 11.1653 27.0808 11.1377 27.0533 11.1102C27.0257 11.1102 27.0257 11.0826 26.9982 11.0826C26.9706 11.0551 26.9431 11.0551 26.9155 11.0551C26.888 11.0551 26.888 11.0551 26.8605 11.0275C26.8329 11.0275 26.8054 11 26.7778 11C26.7503 11 26.6952 11 26.6676 11H26.6401H17.082C16.3383 11 15.6772 11.303 15.1814 11.7988C14.6856 12.2671 14.4102 12.9557 14.4102 13.6719V31.3006C14.4102 32.0443 14.7132 32.7054 15.209 33.2012C15.7048 33.697 16.3658 34 17.1096 34H29.9455C30.6892 34 31.3503 33.697 31.8461 33.2012C32.3144 32.7054 32.5898 32.0168 32.5898 31.3006V16.9497C32.5898 16.8946 32.5898 16.8395 32.5623 16.812ZM27.3287 13.3964L30.1934 16.2335H28.6233C28.2652 16.2335 27.9623 16.0958 27.7143 15.8479C27.494 15.6275 27.3287 15.297 27.3287 14.9389V13.3964ZM31.185 31.3006C31.185 31.6587 31.0473 31.9617 30.7994 32.2096C30.579 32.4299 30.2485 32.5952 29.8904 32.5952H17.082C16.7239 32.5952 16.4209 32.4575 16.173 32.2096C15.9527 31.9892 15.7874 31.6587 15.7874 31.3006V13.6719C15.7874 13.3138 15.9251 13.0108 16.173 12.7629C16.3934 12.5425 16.7239 12.3772 17.082 12.3772H25.9239V14.9389C25.9239 15.6826 26.2269 16.3437 26.7227 16.8395C27.2185 17.3353 27.8796 17.6383 28.6233 17.6383H31.185V31.3006Z" fill="#019867"/>
    <path d="M28.5958 19.5114H18.4042C18.0185 19.5114 17.688 19.8144 17.688 20.2275C17.688 20.6407 17.991 20.9437 18.4042 20.9437H28.5958C28.9814 20.9437 29.3119 20.6407 29.3119 20.2275C29.3119 19.8144 29.0089 19.5114 28.5958 19.5114Z" fill="#019867"/>
    <path d="M28.5958 24.0287H18.4042C18.0185 24.0287 17.688 24.3317 17.688 24.7449C17.688 25.1305 17.991 25.4611 18.4042 25.4611H28.5958C28.9814 25.4611 29.3119 25.1581 29.3119 24.7449C29.2844 24.3593 28.9814 24.0287 28.5958 24.0287Z" fill="#019867"/>
    <path d="M28.5958 28.5461H18.4042C18.0185 28.5461 17.688 28.8491 17.688 29.2623C17.688 29.6479 17.991 29.9784 18.4042 29.9784H28.5958C28.9814 29.9784 29.3119 29.6755 29.3119 29.2623C29.2844 28.8767 28.9814 28.5461 28.5958 28.5461Z" fill="#019867"/>
  </g>
  <defs>
    <clipPath id="clip0">
      <rect width="23" height="23" fill="white" transform="translate(12 11)"/>
    </clipPath>
  </defs>
</svg>
