<?xml version="1.0" encoding="utf-8"?>
<!-- Generator: Adobe Illustrator 22.1.0, SVG Export Plug-In . SVG Version: 6.00 Build 0)  -->
<svg version="1.1" id="Слой_1" xmlns="http://www.w3.org/2000/svg" xmlns:xlink="http://www.w3.org/1999/xlink" x="0px" y="0px"
	 viewBox="0 0 12 18" style="enable-background:new 0 0 12 18;" xml:space="preserve">
<style type="text/css">
	.st0{fill:#ffffff;}
</style>
<g>
	<g>
		<path class="st0" d="M6.8,5.5L1.5,0.2C1.4,0.1,1.2,0,1,0S0.7,0.1,0.6,0.2L0.2,0.6c-0.3,0.3-0.3,0.7,0,0.9L4.6,6l-4.5,4.5
			C0.1,10.6,0,10.7,0,10.9c0,0.2,0.1,0.3,0.2,0.5l0.4,0.4C0.7,11.9,0.9,12,1,12s0.3-0.1,0.5-0.2l5.3-5.3C6.9,6.3,7,6.2,7,6
			C7,5.8,6.9,5.7,6.8,5.5z"/>
	</g>
</g>
</svg>
