<svg width="36" height="44" viewBox="0 0 36 44" fill="none" xmlns="http://www.w3.org/2000/svg">
  <path d="M34.6616 8.90877L18.1245 0.0969388C17.8792 -0.0339982 17.5851 -0.0321606 17.3416 0.101533L1.26211 8.91337C0.998395 9.05809 0.834839 9.33466 0.834839 9.63559V21.1461C0.844487 30.608 6.45043 39.1681 15.1198 42.9588L17.3517 43.9315C17.5603 44.0224 17.7978 44.0229 18.0069 43.9324L20.5218 42.8463C29.352 39.1378 35.0967 30.495 35.0976 20.9178V9.63559C35.0976 9.33145 34.9299 9.05166 34.6616 8.90877ZM33.451 20.9178C33.4492 29.8348 28.0992 37.8808 19.8772 41.3316L19.8717 41.3343L17.6816 42.2798L15.7787 41.4496C7.70881 37.9212 2.49016 29.9538 2.48097 21.1461V10.123L17.7427 1.75869L33.451 10.129V20.9178Z" fill="#019867"/>
  <path d="M11.6686 20.6123C11.3732 20.2663 10.8536 20.2254 10.5077 20.5208C10.1617 20.8158 10.1208 21.3359 10.4162 21.6813L14.7652 26.7741C15.0555 27.1141 15.5641 27.1605 15.9105 26.8784L26.0391 18.6381C26.3919 18.3514 26.4452 17.8327 26.1581 17.4799C25.8714 17.1275 25.3527 17.0737 24.9998 17.3609L15.4952 25.0931L11.6686 20.6123Z" fill="#019867"/>
</svg>
