<?xml version="1.0" encoding="utf-8"?>
<!-- Generator: Adobe Illustrator 21.1.0, SVG Export Plug-In . SVG Version: 6.00 Build 0)  -->
<svg version="1.1" id="Layer_1" xmlns="http://www.w3.org/2000/svg" xmlns:xlink="http://www.w3.org/1999/xlink" x="0px" y="0px"
	 viewBox="0 0 58 61" style="enable-background:new 0 0 58 61;" xml:space="preserve">
<style type="text/css">
	.st0{fill:#12B1EE;}
</style>
<path class="st0" d="M57.7,55.8v3.8c0,0.7-0.6,1.3-1.3,1.3H1.6c-0.7,0-1.3-0.6-1.3-1.3v-3.8H57.7z M6.5,36.5c2.3,2,6.2,2.5,8.9,2.1
	c0.8-0.1,2-0.7,3.2-1.3c1-0.5,2-1,3.2-1.4c0-1.4,0.1-3.1,0.3-4.9H1.6c-0.7,0-1.3,0.6-1.3,1.3v2.4C2.1,34.6,4.6,34.9,6.5,36.5z
	 M46.2,1.6C46.2,1.6,46.3,1.6,46.2,1.6c0-0.1,0.1-0.1,0.1-0.2c0,0,0,0,0-0.1c0,0,0-0.1,0-0.1c0,0,0,0,0-0.1c0,0,0-0.1,0-0.1
	c0,0,0,0,0,0c0-0.1,0-0.1,0-0.2c0,0,0,0,0,0c0,0,0-0.1,0-0.1c0,0,0,0,0,0c0,0,0-0.1,0-0.1c0,0,0,0,0,0c0,0,0-0.1-0.1-0.1
	c0,0,0,0,0,0c0,0-0.1-0.1-0.1-0.1c0,0,0,0,0,0c0,0-0.1,0-0.1-0.1c0,0,0,0,0,0c0,0-0.1,0-0.1,0c0,0,0,0,0,0c0,0-0.1,0-0.1,0
	c0,0,0,0,0,0c0,0-0.1,0-0.1,0c0,0,0,0,0,0c0,0-0.1,0-0.1,0c0,0,0,0,0,0c0,0-0.1,0-0.1,0c0,0,0,0,0,0c-0.1,0-0.1,0.1-0.2,0.1
	c-3,2.1-6.6,5-9.9,8.6c-0.4,0.5-0.9,1-1.3,1.5c-0.4,0.5-0.8,1-1.3,1.5c-2.7,3.4-4.9,7.4-6.1,11.7c-0.1,0.4-0.2,0.7-0.3,1.1
	c0,0.1-0.1,0.3-0.1,0.4c-0.1,0.2-0.1,0.4-0.2,0.7c0,0.2-0.1,0.3-0.1,0.5c0,0.2-0.1,0.3-0.1,0.5c0,0.2-0.1,0.4-0.1,0.5
	c0,0.1-0.1,0.3-0.1,0.4c0,0.2-0.1,0.4-0.1,0.6c0,0.1,0,0.2-0.1,0.3c0,0.2-0.1,0.4-0.1,0.6c0,0.1,0,0.1,0,0.2c-0.1,0.5-0.2,1-0.2,1.5
	h0c-0.2,1.6-0.3,2.9-0.3,4.1h0c0,0.7,0,1.4,0.1,2.1c0,0,0,0,0,0c0,0.2,0,0.4,0.1,0.6l0,0c0.3,2.8,1.1,4.4,1.6,5.2c0,0,0,0,0,0
	c0.3,0.5,0.6,0.7,0.6,0.7c0.4,0.4,0.9,0.6,1.4,0.8c0,0,0,0,0,0c0.1,0,0.2,0,0.4,0.1c0,0,0,0,0,0c0.1,0,0.2,0,0.4,0c0,0,0,0,0,0
	c0.1,0,0.2,0,0.3,0c0,0,0.1,0,0.1,0c0.1,0,0.1,0,0.2,0c0,0,0.1,0,0.1,0c0.1,0,0.2,0,0.2-0.1c0,0,0,0,0,0h0c1.4-0.4,2.4-1.8,2.4-3.4
	c0,0,0-0.8,0-2.1l0,0c0,0,0,0,0,0c0.1-2.7,0.3-7.8,1.2-13c0,0,0,0,0,0c0-0.3,0.1-0.6,0.2-0.8c0,0,0,0,0,0c0.1-0.6,0.2-1.1,0.3-1.7
	c0,0,0,0,0-0.1c0.1-0.3,0.1-0.5,0.2-0.8c0,0,0-0.1,0-0.1c0.1-0.3,0.1-0.5,0.2-0.8c0,0,0-0.1,0-0.1c0.1-0.5,0.3-1.1,0.4-1.6
	c0,0,0-0.1,0-0.1c0.1-0.2,0.1-0.5,0.2-0.7c0,0,0-0.1,0-0.1c0.1-0.2,0.2-0.5,0.2-0.7c0,0,0-0.1,0-0.1c0.1-0.2,0.2-0.5,0.3-0.7
	c2.1-5.5,6.7-11.4,10.3-15.6C46.2,1.7,46.2,1.6,46.2,1.6z M56.4,31H35.6c-0.2,2.2-0.4,4.2-0.5,5.8c3.4,0.7,7,1.2,9.9,0.9
	c2.3-0.3,4-1,5.6-1.7c2.2-0.9,4.2-1.7,7.1-1.4v-2.3C57.7,31.6,57.1,31,56.4,31z M51.7,38.4c-1.7,0.7-3.6,1.5-6.3,1.9
	c-3.1,0.4-6.9-0.1-10.3-0.8c0,0.9,0,1.4,0,1.5c0,0,0,0,0,0c0,3.4-2.7,6.2-6,6.2c-1.4,0-2.8-0.5-3.9-1.5c-0.3-0.2-0.7-0.6-1.1-1.3
	c0,0,0,0,0-0.1c-0.8-1.3-1.6-3.1-1.9-5.8c-0.7,0.3-1.5,0.7-2.2,1c-1.4,0.7-2.8,1.4-4,1.6c-0.7,0.1-1.4,0.2-2.2,0.2
	c-3,0-6.5-0.8-8.9-2.9c-1.2-1.1-3.1-1.2-4.5-1.2v15.8h57.5V37.3c-0.1,0-0.1,0-0.2,0C55.3,36.9,53.7,37.6,51.7,38.4z"/>
</svg>
