<?xml version="1.0" encoding="utf-8"?>
<!-- Generator: Adobe Illustrator 21.1.0, SVG Export Plug-In . SVG Version: 6.00 Build 0)  -->
<svg version="1.1" id="Layer_1" xmlns:svgjs="http://svgjs.com/svgjs"
	 xmlns="http://www.w3.org/2000/svg" xmlns:xlink="http://www.w3.org/1999/xlink" x="0px" y="0px" viewBox="0 0 512 512"
	 style="enable-background:new 0 0 512 512;" xml:space="preserve">
<style type="text/css">
	.st0{fill:#12B1EE;}
</style>
<g>
	<g>
		<g>
			<path class="st0" d="M249.6,298.1c0,3.8-2.9,6.7-6.7,6.7h-42.9c-1.9,0-3.9-0.7-5.2-2.2c-2.5-2.8-2.3-6.9,0.4-9.4l35.8-32.5
				c6.1-5.4,6.7-15,1.7-21.4c-5.1-6.6-14.9-7.7-21.6-2.8c-2.7,1.9-4.9,5.4-8.3,6c-3.2,0.6-6.4-1.4-7.4-4.4
				c-1.7-4.8,2.5-7.7,5.6-10.5c5.4-5.1,12.6-7.5,19.5-7.5c7.9,0,15.9,3.3,21.6,9.6c5.1,5.4,7.5,12.6,7.5,19.5
				c0,7.9-3.3,15.9-9.6,21.6l-22.9,20.7H243C246.7,291.3,249.6,294.3,249.6,298.1z"/>
			<path class="st0" d="M317.8,282.2c0,3.8-3,6.7-6.8,6.7h-1.2v9.2c0,3.8-2.9,6.7-6.7,6.7s-6.7-2.9-6.7-6.7v-9.2h-37.9
				c-5.6,0.2-8.9-6.4-5.4-10.8c1.5-1.9,44.3-55.2,44.8-55.7c0.4-0.4,1-1,1.5-1.3c4.4-2.8,10.4,0.1,10.4,5.5v48.9h1.2
				C314.8,275.5,317.8,278.6,317.8,282.2z M296.5,245.6l-24.1,29.9h24.1V245.6z"/>
		</g>
		<path class="st0" d="M472,175.7C453.8,73.1,358.9,0,256,0C153.1,0,58.2,73.1,40,175.7c-22.6,3.5-40,23-40,46.4V247
			c0,9.7,15,9.7,15,0v-24.8c0-17.6,14.5-32,32.3-32H63v155.6H47.3c-17.8,0-32.3-14.4-32.3-32V285c0-9.7-15-9.7-15,0v28.8
			c0,25.9,21.2,47,47.3,47h16.5c7,26,46.8,20.9,46.8-6.1V181.2c0-26.9-39.8-32.1-46.8-6.1h-8.5C73.8,81.1,161.5,15,256,15
			s182.2,66.1,200.7,160.2h-8.5c-7-26-46.8-20.9-46.8,6.1v173.5c0,26.9,39.8,32.1,46.8,6.1h8.4c-13.5,71.3-78.6,117.7-149.4,120
			c-3.2-9.3-12.1-16.1-22.5-16.1h-57.3c-12.9,0-23.8,10.7-23.8,23.6s10.9,23.6,23.8,23.6h57.3c10.5,0,19.4-6.8,22.6-16.2
			c79.3-2.3,151.2-55.6,164.7-135.5c22.7-3.5,40.1-23,40.1-46.5v-91.6C512,198.7,494.6,179.3,472,175.7z M78,181.2
			c0-11.2,17.6-11.2,17.6,0v173.5c0,11.2-17.6,11.2-17.6,0V181.2z M284.6,497h-57.3c-11.3,0-11.3-17.3,0-17.3h57.3
			C295.9,479.7,295.9,497,284.6,497z M434,354.7c0,11.2-17.6,11.2-17.6,0V181.2c0-11.2,17.6-11.2,17.6,0V354.7z M497,313.8
			c0,17.6-14.5,32-32.4,32H449V190.2h15.6c17.8,0,32.4,14.4,32.4,32V313.8z"/>
		<path class="st0" d="M294.8,378.8l45.1,19.9c4.9,2.1,10.5-1.6,10.5-6.9v-50.2c19-22.2,29.5-50.3,29.5-79.5
			c0-25.7-7.9-50.3-22.9-71.2c-5.6-7.9-17.8,0.9-12.2,8.8c13.2,18.3,20.1,39.9,20.1,62.5c0,26.5-9.8,51.9-27.5,71.7
			c-1.2,1.4-1.9,3.2-1.9,5v41.5l-37.3-16.4c-1.7-0.8-3.7-0.8-5.5-0.2c-11.7,4.2-24.1,6.3-36.6,6.3c-60,0-108.8-48.4-108.8-107.8
			S196,154.3,256,154.3c22.4,0,43.9,6.7,62.2,19.3c8,5.5,16.5-6.8,8.5-12.3c-20.8-14.4-45.2-22-70.7-22
			c-68.3,0-123.8,55.1-123.8,122.8S187.7,385,256,385C269.3,385,282.3,382.9,294.8,378.8z"/>
	</g>
</g>
</svg>
