<svg width="46" height="46" viewBox="0 0 46 46" fill="none" xmlns="http://www.w3.org/2000/svg">
  <circle cx="23" cy="23" r="22.4" fill="white" stroke="#019867" stroke-width="1.2"/>
  <path d="M15.2422 30.6055H16.6484C17.0367 30.6055 17.3516 30.2775 17.3516 29.873V24.0137C17.3516 23.6092 17.0367 23.2812 16.6484 23.2812H15.2422C15.0014 23.2812 14.7663 23.3067 14.5391 23.3549V23.2812C14.5391 18.3811 18.3451 14.3945 23.0234 14.3945C27.6759 14.3945 31.4609 18.3811 31.4609 23.2812V23.3549C31.2337 23.3067 30.9986 23.2812 30.7578 23.2812H29.3516C28.9632 23.2812 28.6484 23.6092 28.6484 24.0137V29.873C28.6484 30.2775 28.9632 30.6055 29.3516 30.6055H30.0547V31.3379C30.0547 31.7417 29.7393 32.0703 29.3516 32.0703H25.715C25.4248 31.2179 24.6432 30.6055 23.7266 30.6055C22.5635 30.6055 21.6172 31.5912 21.6172 32.8027C21.6172 34.0143 22.5635 35 23.7266 35C24.6432 35 25.4248 34.3876 25.715 33.5352H29.3516C30.5147 33.5352 31.4609 32.5495 31.4609 31.3379V30.5318C33.0637 30.1916 34.2734 28.7119 34.2734 26.9434C34.2734 25.7479 33.7205 24.6845 32.8672 24.0157V20.2539C32.8672 14.5999 28.4513 10 23.0234 10C17.5697 10 13.1328 14.5999 13.1328 20.2539V24.0157C12.2795 24.6845 11.7266 25.7479 11.7266 26.9434C11.7266 28.9626 13.3037 30.6055 15.2422 30.6055ZM23.7266 33.5352C23.3389 33.5352 23.0234 33.2066 23.0234 32.8027C23.0234 32.3989 23.3389 32.0703 23.7266 32.0703C24.1143 32.0703 24.4297 32.3989 24.4297 32.8027C24.4297 33.2066 24.1143 33.5352 23.7266 33.5352ZM30.7578 29.1406H30.0547V24.7461H30.7578C31.9209 24.7461 32.8672 25.7318 32.8672 26.9434C32.8672 28.1549 31.9209 29.1406 30.7578 29.1406ZM23.0234 11.4648C26.6028 11.4648 29.6683 13.7988 30.8923 17.0822C29.0665 14.5373 26.2239 12.9297 23.0234 12.9297C19.833 12.9297 16.952 14.5294 15.0968 17.1206C16.3179 13.817 19.4102 11.4648 23.0234 11.4648ZM15.2422 24.7461H15.9453V29.1406H15.2422C14.0791 29.1406 13.1328 28.1549 13.1328 26.9434C13.1328 25.7318 14.0791 24.7461 15.2422 24.7461Z" fill="#019867"/>
</svg>
