<?xml version="1.0" encoding="utf-8"?>
<!-- Generator: Adobe Illustrator 21.1.0, SVG Export Plug-In . SVG Version: 6.00 Build 0)  -->
<svg version="1.1" id="Layer_1" xmlns:svgjs="http://svgjs.com/svgjs"
	 xmlns="http://www.w3.org/2000/svg" xmlns:xlink="http://www.w3.org/1999/xlink" x="0px" y="0px" viewBox="0 0 512 512"
	 style="enable-background:new 0 0 512 512;" xml:space="preserve">
<style type="text/css">
	.st0{fill:#12B1EE;}
</style>
<g>
	<g>
		<path class="st0" d="M401,133.5c-4.2-5.6-11.9-7-17.9-3.4L177.3,257c-11.6,7.2-17.2,21.4-13.4,34.6l22.3,78.3
			c1.9,6.7,7.8,11.1,14.7,11.1c0.4,0,0.8,0,1.1,0c7.3-0.5,13.1-6,14-13.2l5.8-42.9c0.8-5.8,3.6-11.1,7.8-15.1l169.9-158
			C404.6,146.9,405.3,139.1,401,133.5z M216,295.1c-7.6,7.1-12.6,16.7-14,27.1l-2.8,20.8L183,286.1c-1.3-4.6,0.6-9.6,4.7-12.1
			l150.8-92.9L216,295.1z M498.9,47.5c-6.4-5.5-15.3-7-23.2-3.9L21.2,219c-9,3.5-14.8,12-14.7,21.6c0,9.7,5.9,18.1,15,21.5
			l106.2,39.6L169,435c2.3,7.3,8,13,15.4,15.2c7.3,2.2,15.3,0.6,21.2-4.2l61.7-50.4c3-2.4,7.2-2.5,10.3-0.3l111.3,80.9
			c4,2.9,8.7,4.4,13.5,4.4c2.8,0,5.6-0.5,8.3-1.6c7.3-2.8,12.6-9.1,14.2-16.8l81.6-392.6C508.2,61.5,505.3,52.9,498.9,47.5z
			 M487,65.7l-81.6,392.6c-0.3,1.4-1.3,2-1.9,2.2c-0.6,0.2-1.7,0.5-2.9-0.4l-111.3-80.9c-5-3.6-10.8-5.4-16.7-5.4
			c-6.4,0-12.7,2.1-17.9,6.4l-61.7,50.4c-1.1,0.9-2.2,0.7-2.8,0.6c-0.6-0.2-1.6-0.7-2.1-2l-42.9-137.9c-0.9-2.9-3.1-5.3-6-6.4
			L28.4,243.4c-1.7-0.6-2-1.9-2-2.9c0-1,0.3-2.3,2-2.9L482.9,62.2c0,0,0,0,0,0c1.5-0.6,2.6,0.1,3.1,0.5
			C486.5,63.1,487.3,64.1,487,65.7z M424.4,257.6c-5.4-1.2-10.7,2.2-11.9,7.6l-1.5,7c-1.2,5.4,2.2,10.7,7.6,11.9
			c0.7,0.2,1.4,0.2,2.1,0.2c4.6,0,8.7-3.2,9.7-7.9l1.5-7C433.2,264,429.8,258.7,424.4,257.6z M414.4,303.5
			c-5.4-1.2-10.7,2.2-11.9,7.6l-22.9,105.7c-1.2,5.4,2.2,10.7,7.6,11.9c0.7,0.2,1.4,0.2,2.1,0.2c4.6,0,8.7-3.2,9.7-7.9L422,315.4
			C423.2,310,419.8,304.7,414.4,303.5z"/>
	</g>
</g>
</svg>
