<?xml version="1.0" encoding="utf-8"?>
<!-- Generator: Adobe Illustrator 21.1.0, SVG Export Plug-In . SVG Version: 6.00 Build 0)  -->
<svg version="1.1" id="Layer_1" xmlns="http://www.w3.org/2000/svg" xmlns:xlink="http://www.w3.org/1999/xlink" x="0px" y="0px"
	 viewBox="0 0 73 56" style="enable-background:new 0 0 73 56;" xml:space="preserve">
<style type="text/css">
	.st0{fill:#12B1EE;}
</style>
<path class="st0" d="M34.8,30.6v24c0,0.8-0.6,1.4-1.4,1.4c-0.8,0-1.4-0.6-1.4-1.4v-24c0-5.8-4.7-10.5-10.4-10.5h-1.3v0.3
	c0,0.6,0.5,1.1,1,1.1c2.1,0,3.8,1.7,3.8,3.8v2.3c0,5.4-4.4,9.8-9.7,9.8C7,37.5,0,30.4,0,21.8v-6.2C0,7,7,0,15.5,0
	c5.4,0,9.7,4.4,9.7,9.8v2.3c0,2.1-1.7,3.8-3.8,3.8c-0.6,0-1,0.5-1,1.1v0.3h1.3C28.9,17.3,34.8,23.3,34.8,30.6z M57.5,0
	c-5.4,0-9.7,4.4-9.7,9.8v2.3c0,2.1,1.7,3.8,3.8,3.8c0.6,0,1,0.5,1,1.1v0.3h-1.3c-7.3,0-13.2,6-13.2,13.3v24c0,0.8,0.6,1.4,1.4,1.4
	s1.4-0.6,1.4-1.4v-24c0-5.8,4.7-10.5,10.4-10.5h1.3v0.3c0,0.6-0.5,1.1-1,1.1c-2.1,0-3.8,1.7-3.8,3.8v2.3c0,5.4,4.4,9.8,9.7,9.8
	c8.5,0,15.5-7,15.5-15.7v-6.2C73,7,66,0,57.5,0z"/>
</svg>
