<?xml version="1.0" encoding="utf-8"?>
<!-- Generator: Adobe Illustrator 21.1.0, SVG Export Plug-In . SVG Version: 6.00 Build 0)  -->
<svg version="1.1" id="Layer_1" xmlns="http://www.w3.org/2000/svg" xmlns:xlink="http://www.w3.org/1999/xlink" x="0px" y="0px"
	 viewBox="0 0 78 59" style="enable-background:new 0 0 78 59;" xml:space="preserve">
<style type="text/css">
	.st0{fill:#12B1EE;}
</style>
<path class="st0" d="M77.4,14.5c-0.3-1.8-1.3-3.3-2.7-4.1c-2.6-1.5-6.1-0.2-9.7,1.1c-1.6,0.6-3.2,1.2-4.7,1.5
	c-2.1,0.5-4.2-0.9-5.6-2.1c0.2-3.6-0.5-6.9-4.8-8.8C45.3,0,39.3,0,39,0c-0.3,0-6.3,0-10.9,2.1c-4.3,1.9-5,5.3-4.8,8.8
	c-1.4,1.3-3.4,2.6-5.6,2.1c-1.5-0.3-3.1-0.9-4.7-1.5c-3.7-1.4-7.2-2.6-9.7-1.1c-1.4,0.8-2.3,2.2-2.7,4.1c-0.4,2.3,0.2,5.1,1.5,6.7
	c1,1.3,1.9,2,2.5,2.3c-0.1,0.4-0.2,0.9-0.2,1.4c0,3.2,3.1,5.7,6.9,5.7c3.4,0,6.2-2,6.8-4.7c1.7-0.2,4.7-0.9,6.6-2.2
	c0.7-0.5,1.3-1,1.8-1.4c0.3,0.9,0.6,2,0.8,3.5c0.6,4.7,1.4,6.6,2.3,8.5c0.3,0.8,0.7,1.6,1.1,2.6c0.6,1.8,0.8,4.6,0.9,7.1
	c0.1,2.3,0.2,4.2,0.6,5.6c0.8,2.4,1.2,8.1,1.2,8.1c0.1,0.7,0.7,1.3,1.4,1.3h8.6c0.7,0,1.4-0.6,1.4-1.3c0.1-1.6,0.5-6.2,1.2-8.1
	c0.4-1.3,0.5-3.3,0.6-5.6c0.1-2.5,0.3-5.3,0.9-7.1c0.4-1,0.7-1.8,1.1-2.6c0.9-2,1.7-3.8,2.3-8.5c0.2-1.5,0.5-2.6,0.8-3.5
	c0.5,0.4,1.1,0.9,1.8,1.4c1.9,1.4,5,2,6.6,2.2c0.6,2.7,3.4,4.7,6.8,4.7c3.8,0,6.9-2.6,6.9-5.8c0-0.5-0.1-0.9-0.2-1.4
	c0.6-0.4,1.4-1,2.4-2.3C77.2,19.6,77.8,16.8,77.4,14.5z M3.4,15c0.1-0.7,0.5-1.7,1.3-2.1c1.4-0.8,4.4,0.3,7.3,1.4
	c1.6,0.6,3.4,1.2,5,1.6c2.5,0.6,4.7-0.3,6.5-1.5c0.3,2.5,1,3.9,1.7,5.2C24.7,20,24,20.7,23,21.4c-1.3,0.9-3.6,1.5-5.2,1.7
	c-0.9-2.3-3.5-3.9-6.5-3.9c-2.1,0-3.9,0.8-5.2,2c-0.3-0.2-0.9-0.6-1.8-1.7C3.7,18.6,3.1,16.7,3.4,15z M73.7,19.4
	c-0.8,1-1.4,1.4-1.7,1.6c-1.3-1.2-3.1-2-5.2-2c-3.1,0-5.7,1.7-6.6,4c-1.6-0.2-3.9-0.8-5.2-1.7c-1-0.7-1.7-1.4-2.2-1.9
	c0.7-1.3,1.4-2.7,1.7-5.2c1.8,1.2,4,2.1,6.5,1.5c1.7-0.4,3.4-1,5-1.6c2.9-1.1,5.9-2.2,7.3-1.4c0.8,0.5,1.2,1.4,1.3,2.1
	C74.9,16.7,74.4,18.6,73.7,19.4z"/>
</svg>
