<?xml version="1.0" encoding="utf-8"?>
<!-- Generator: Adobe Illustrator 21.1.0, SVG Export Plug-In . SVG Version: 6.00 Build 0)  -->
<svg version="1.1" id="Layer_1" xmlns:svgjs="http://svgjs.com/svgjs"
	 xmlns="http://www.w3.org/2000/svg" xmlns:xlink="http://www.w3.org/1999/xlink" x="0px" y="0px" viewBox="0 0 512 512"
	 style="enable-background:new 0 0 512 512;" xml:space="preserve">
<style type="text/css">
	.st0{fill:#12B1EE;}
</style>
<g>
	<g>
		<path class="st0" d="M304.2,2.6h-97C105.6,2.6,23,85.3,23,186.9v87.4c0,75.7,46.5,143.7,116.4,171.4v56.7c0,3.8,2.3,7.3,5.8,8.9
			c1.3,0.6,2.6,0.8,3.9,0.8c2.4,0,4.7-0.9,6.5-2.5l56.2-50.9h92.4c101.6,0,184.2-82.7,184.2-184.3v-87.4
			C488.5,85.3,405.8,2.6,304.2,2.6z M469.1,274.3c0,90.9-73.9,164.9-164.8,164.9H208c-2.4,0-4.7,0.9-6.5,2.5l-42.8,38.8v-41.5
			c0-4.1-2.6-7.8-6.5-9.1C86.5,406.5,42.4,344,42.4,274.3v-87.4C42.4,96,116.3,22,207.2,22h97c90.9,0,164.8,74,164.8,164.9V274.3z
			 M383.9,298.4l-59.6-38.7c-6.5-4.2-14.3-5.7-21.9-4.1c-7.6,1.6-14.1,6.1-18.4,12.6l-2.8,4.3c-25.8-8.5-54.2-19.4-71.3-68.7l7-6.1
			c12.1-10.5,13.4-28.9,2.9-41.1l-46.6-53.7c-3.5-4-9.6-4.5-13.7-1l-29.3,25.5c-25.7,22.3-13.7,55.4-9.7,66.2c0.2,0.5,0.4,1,0.6,1.4
			c1,1.8,25.3,45.2,64.6,85.2c39.4,40.2,110.6,77.3,112.8,78.3c8.1,5.3,17.3,7.8,26.3,7.8c15.9,0,31.5-7.8,40.7-22.1l21.1-32.5
			C389.6,307.3,388.4,301.3,383.9,298.4z M349.3,333.8c-8.7,13.5-26.8,17.3-41,8.1c-0.7-0.4-71.4-37.2-108.7-75.2
			c-34.8-35.5-58-74.9-61.1-80.4c-7.7-21.5-6.3-34.8,4.5-44.2l22-19.1l40.3,46.3c3.6,4.1,3.2,10.1-0.9,13.7l-11.9,10.3
			c-2.9,2.5-4,6.5-2.9,10.2c20.3,65.9,59.7,78.9,88.5,88.4l4.2,1.4c4.2,1.4,8.8-0.2,11.2-3.9l6.9-10.6c1.4-2.2,3.6-3.7,6.1-4.2
			c2.5-0.5,5.1,0,7.3,1.4l51.5,33.4L349.3,333.8z M277.9,160.2c-5.2-1.5-10.5,1.5-12,6.7c-1.5,5.2,1.5,10.5,6.7,12
			c14.4,4.1,26,15.6,30,30.1c1.2,4.3,5.1,7.1,9.3,7.1c0.9,0,1.8-0.1,2.6-0.4c5.1-1.5,8.2-6.8,6.7-12
			C315.4,182.8,298.7,166.1,277.9,160.2z M351.7,218.1c0.9,0,1.8-0.1,2.6-0.4c5.2-1.5,8.2-6.8,6.7-12
			c-11.4-40.6-43.7-72.9-84.3-84.5c-5.1-1.5-10.5,1.5-12,6.7c-1.5,5.2,1.5,10.5,6.7,12c34.1,9.7,61.3,37,70.9,71.1
			C343.5,215.3,347.4,218.1,351.7,218.1z M272.6,76.1c-5.2-1.5-10.5,1.5-12,6.7c-1.5,5.2,1.5,10.5,6.7,12
			c57.8,16.4,103.8,62.6,120.1,120.4c1.2,4.3,5.1,7.1,9.3,7.1c0.9,0,1.8-0.1,2.6-0.4c5.1-1.5,8.2-6.8,6.7-12
			C387.9,145.7,336.8,94.4,272.6,76.1z"/>
	</g>
</g>
</svg>
