<?xml version="1.0" encoding="utf-8"?>
<!-- Generator: Adobe Illustrator 21.1.0, SVG Export Plug-In . SVG Version: 6.00 Build 0)  -->
<svg version="1.1" id="Layer_1" xmlns="http://www.w3.org/2000/svg" xmlns:xlink="http://www.w3.org/1999/xlink" x="0px" y="0px"
	 viewBox="0 0 512 512" style="enable-background:new 0 0 512 512;" xml:space="preserve">
<style type="text/css">
	.st0{fill:#12B1EE;}
</style>
<g>
	<g>
		<path class="st0" d="M488.4,339.6c-11.1-13.5-23.5-25.6-35.6-37.2c-4.2-4.1-8.6-8.3-12.9-12.5c0,0,0,0,0,0
			c-5.7-5.7-8.5-9.7-8.8-12.6c-0.3-2.9,1.7-7.2,6.2-13.6c6.7-9.6,13.9-19.2,20.8-28.5c6.2-8.3,12.5-16.8,18.6-25.4l1.4-1.9
			c11.9-16.8,24.2-34.2,30.8-55.3c1.9-6.1,3.8-15-0.9-22.9c-4.7-7.9-13.5-10.2-19.6-11.3c-3-0.5-5.9-0.6-8.5-0.6l-77.2-0.1
			c-13.4-0.2-22.6,6.2-27.7,19.2c-4,10.3-8.8,22.3-14.3,33.7c-10.6,22-24,47.2-43.5,68.3l-0.9,0.9c-1.3,1.4-3.5,3.8-4.6,4.3
			c-2.1-1.4-4.5-9.1-4.4-13.1c0-0.1,0-0.2,0-0.3l-0.1-91c0-0.5,0-0.9-0.1-1.4c-1.7-13-5.1-26-25.3-30c-0.6-0.1-1.3-0.2-2-0.2h-80.3
			c-15.1,0-23.1,7.1-29.5,14.7c-1.9,2.2-6.8,8.2-4.3,15.4c2.5,7.3,10.1,8.8,12.6,9.3c8.8,1.7,13.3,6.7,14.7,16.4
			c2.8,18.7,3.1,38.8,1.1,63c-0.6,6.5-1.6,11.5-3.3,15.6c-0.5,1.1-0.9,1.8-1.2,2.3c-0.5-0.2-1.2-0.6-2.2-1.2
			c-6.2-4.3-10.8-11-15.3-17.4c-17.9-25.8-33-54.2-46.1-87c-5.4-13.4-15.5-20.9-28.5-21.1c-24.7-0.4-47.6-0.4-69.9,0
			c-10.5,0.2-17.9,3.6-21.9,10c-4,6.5-3.9,14.8,0.4,24.6c31,70.2,59.1,121.2,91.2,165.5c22.6,31.2,45.3,52.8,71.6,68.1
			c27.6,16.1,58.6,23.9,94.7,23.9c4.1,0,8.3-0.1,12.5-0.3c22.2-1,31.3-10.1,32.3-32.1c0.6-11.7,1.8-21.1,6.2-29.3
			c1.2-2.3,2.6-3.8,3.7-4.1c1.2-0.3,3.2,0.4,5.5,2c4.2,2.8,7.8,6.6,10.8,9.9c3,3.4,6.1,6.9,9,10.2c6.3,7.2,12.8,14.6,19.6,21.7
			c15.4,16,33.2,23.4,52.9,21.8l70.7,0h0c0.2,0,0.4,0,0.7,0c8.2-0.6,15.2-5.2,19.3-12.6c5-9,4.9-20.4-0.2-30.5
			C501.4,356.2,494.5,347.1,488.4,339.6z M489.3,387c-1,1.8-2.2,2.1-2.8,2.2l-70.7,0h0c-0.3,0-0.6,0-0.8,0
			c-13.9,1.2-25.8-3.8-37.2-15.7c-6.5-6.7-12.8-14-19-21c-3-3.4-6.1-6.9-9.2-10.4c-3.9-4.3-8.6-9.2-14.7-13.3
			c-9.2-6.1-16.8-5.9-21.5-4.7c-4.7,1.2-11.4,4.7-16.5,14.2c-6.7,12.4-8.1,25.7-8.7,38.3c-0.3,7.7-1.6,9.7-2.2,10.3
			c-0.7,0.7-3,1.9-10.8,2.2c-37.5,1.8-69-5-96.2-20.9c-23.7-13.8-44.5-33.7-65.3-62.5c-31.2-43.1-58.6-93-89-161.7
			c-1.1-2.5-1.4-4-1.5-4.9c0.8-0.3,2.3-0.6,4.9-0.6c22.1-0.4,44.7-0.4,69.2,0c3.4,0.1,7.2,1.1,10.1,8.3
			c13.7,34.3,29.5,64.1,48.3,91.2c5,7.2,11.2,16.1,20.4,22.5c8.4,5.8,15.2,5.6,19.4,4.3c4.2-1.3,10.1-4.8,14-14.3
			c2.5-6.1,4.1-13.1,4.9-21.8c2.2-26,1.8-47.5-1.2-67.9c-2.1-14.6-9.5-25.1-21.1-30.5c2.1-1.1,4.4-1.6,7.6-1.6h79.3
			c4.5,1,5.3,2.2,5.6,2.6c1.3,1.7,2,5.9,2.5,9.1l0.1,90.1c-0.2,8.6,3.9,27.8,18,33.1c0.1,0,0.2,0.1,0.3,0.1
			c12.8,4.3,21.2-4.9,25.7-9.9l0.8-0.9c21.3-23.1,35.7-50,46.9-73.4c5.8-12,10.8-24.5,15-35.2c2.1-5.4,4-6.3,8.6-6.2
			c0.1,0,0.1,0,0.2,0l77.3,0.1c1.8,0,3.7,0,5.1,0.3c3.7,0.6,5.2,1.4,5.7,1.7c0.1,0.6,0,2.3-1.1,5.9c-5.6,18-16.4,33.3-27.9,49.5
			l-1.4,1.9c-6,8.4-12.3,16.9-18.3,25.1c-7,9.4-14.3,19.2-21.1,29c-14.7,20.9-13.4,34.8,4.9,53c4.3,4.3,8.8,8.6,13.1,12.8
			c12.2,11.8,23.7,22.9,34,35.4c5.4,6.6,11.5,14.5,15.9,23.3C491.1,380.7,490.5,384.9,489.3,387z M76.7,171.7c-1.5-3-3-6-4.4-9
			c-2.5-5.1-8.5-7.2-13.6-4.7c-5,2.5-7.1,8.7-4.6,13.8c1.5,3.1,3,6.1,4.5,9.2c1.8,3.6,5.3,5.7,9,5.7c1.5,0,3.1-0.4,4.6-1.1
			C77.2,183,79.2,176.7,76.7,171.7z M92.7,202.6c-2.7-5-8.9-6.8-13.8-4c-4.9,2.8-6.7,9-4,14c15.8,29.1,31.8,54.7,48.9,78.4
			c2,2.7,5,4.2,8.2,4.2c2.1,0,4.2-0.7,6-2c4.5-3.4,5.5-9.8,2.1-14.4C123.6,255.8,108,230.9,92.7,202.6z"/>
	</g>
</g>
</svg>
