<svg width="14" height="10" viewBox="0 0 14 10" fill="none" xmlns="http://www.w3.org/2000/svg">
  <path d="M11.6171 5.5995C11.3908 5.31367 11.4555 5.1865 11.6171 4.931C11.62 4.92809 13.4884 2.34625 13.6809 1.47067L13.6821 1.47009C13.7778 1.151 13.6821 0.916504 13.2195 0.916504H11.6888C11.2992 0.916504 11.1195 1.11775 11.0233 1.34292C11.0233 1.34292 10.2439 3.20842 9.14142 4.41767C8.78558 4.76709 8.62108 4.87909 8.42683 4.87909C8.33117 4.87909 8.18242 4.76709 8.18242 4.448V1.47009C8.18242 1.08742 8.07333 0.916504 7.75075 0.916504H5.34392C5.0995 0.916504 4.95425 1.095 4.95425 1.26125C4.95425 1.62409 5.5055 1.7075 5.56267 2.72834V4.94325C5.56267 5.42859 5.47458 5.51784 5.27917 5.51784C4.75883 5.51784 3.49592 3.64475 2.7475 1.501C2.59642 1.08509 2.44883 0.917087 2.05625 0.917087H0.525C0.0880833 0.917087 0 1.11834 0 1.3435C0 1.74134 0.520333 3.71942 2.41967 6.33275C3.6855 8.11659 5.46817 9.08317 7.08983 9.08317C8.06458 9.08317 8.18358 8.86851 8.18358 8.49926C8.18358 6.79476 8.0955 6.63375 8.58375 6.63375C8.81008 6.63375 9.19975 6.74576 10.1098 7.60617C11.1498 8.62642 11.3208 9.08317 11.9029 9.08317H13.4336C13.8699 9.08317 14.091 8.86851 13.9638 8.44501C13.6728 7.55426 11.7058 5.722 11.6171 5.5995Z" fill="#019867"/>
</svg>
