<?xml version="1.0" encoding="utf-8"?>
<!-- Generator: Adobe Illustrator 21.1.0, SVG Export Plug-In . SVG Version: 6.00 Build 0)  -->
<svg version="1.1" id="Capa_1" xmlns="http://www.w3.org/2000/svg" xmlns:xlink="http://www.w3.org/1999/xlink" x="0px" y="0px"
	 viewBox="0 0 384 384" style="enable-background:new 0 0 384 384;" xml:space="preserve">
<style type="text/css">
	.st0{fill:#12B1EE;}
</style>
<path class="st0" d="M192,0.5L192,0.5c-106,0-192,86.1-192,192c0,42,13.5,80.9,36.6,112.5l-23.9,71.3l73.8-23.6
	c30.4,20.1,66.6,31.7,105.6,31.7c105.9,0,192-86.1,192-192C384,86.6,297.9,0.5,192,0.5z M303.8,271.6c-4.6,13.1-23,23.9-37.7,27.1
	c-10,2.1-23.1,3.9-67.3-14.4c-56.4-23.4-92.8-80.7-95.6-84.4c-2.7-3.7-22.8-30.4-22.8-57.9s14-41,19.6-46.7
	c4.6-4.7,12.3-6.9,19.6-6.9c2.4,0,4.5,0.1,6.4,0.2c5.6,0.2,8.5,0.6,12.2,9.5c4.6,11.2,15.9,38.7,17.3,41.5c1.4,2.8,2.7,6.7,0.8,10.4
	c-1.8,3.9-3.4,5.6-6.2,8.8c-2.8,3.3-5.5,5.8-8.3,9.3c-2.6,3.1-5.5,6.3-2.3,11.9c3.3,5.5,14.5,23.9,31.2,38.7
	c21.4,19.1,38.8,25.2,45,27.8c4.6,1.9,10.2,1.5,13.5-2.1c4.3-4.6,9.6-12.3,15-19.9c3.8-5.4,8.7-6.1,13.8-4.1
	c5.2,1.8,32.6,15.3,38.3,18.2c5.6,2.8,9.4,4.2,10.7,6.5C308.4,247.4,308.4,258.5,303.8,271.6z"/>
</svg>
