<?xml version="1.0" encoding="utf-8"?>
<!-- Generator: Adobe Illustrator 21.1.0, SVG Export Plug-In . SVG Version: 6.00 Build 0)  -->
<svg version="1.1" id="Layer_1" xmlns:svgjs="http://svgjs.com/svgjs"
	 xmlns="http://www.w3.org/2000/svg" xmlns:xlink="http://www.w3.org/1999/xlink" x="0px" y="0px" viewBox="0 0 512 512"
	 style="enable-background:new 0 0 512 512;" xml:space="preserve">
<style type="text/css">
	.st0{fill:#12B1EE;}
</style>
<g>
	<g>
		<path class="st0" d="M255.5,2c-139,0-252,113-252,252c0,47.4,13.2,93.4,38.2,133.4c-10,34.9-27.9,100.8-28.1,101.5
			c-0.9,3.4,0.1,7.1,2.6,9.5c2.5,2.5,6.2,3.3,9.6,2.3l99.9-30.7c39.1,23.6,83.9,36,129.9,36c139,0,252-113,252-252
			C507.5,115,394.5,2,255.5,2z M255.5,486.6c-43.8,0-86.5-12.2-123.4-35.4c-1.6-1-3.4-1.5-5.1-1.5c-1,0-1.9,0.1-2.8,0.4L36.9,477
			c6.4-23.4,17.9-65.2,24.6-88.5c0.8-2.7,0.3-5.6-1.2-8C35.8,342.9,22.9,299.1,22.9,254c0-128.3,104.4-232.6,232.6-232.6
			c128.3,0,232.6,104.4,232.6,232.6C488.1,382.3,383.8,486.6,255.5,486.6z M420.1,313.4c-17.9-9.9-33.1-19.9-44.2-27.2
			c-8.5-5.5-14.6-9.5-19.1-11.8c-12.6-6.3-22.1-1.8-25.7,1.8c-0.5,0.5-0.9,0.9-1.2,1.5c-13.1,19.6-30.1,38.3-35.1,39.3
			c-5.8-0.9-32.8-16.2-59.6-38.6c-27.4-22.8-44.6-44.7-47.2-59.6c17.6-18.1,23.9-29.5,23.9-42.4c0-13.3-31.1-69.1-36.8-74.7
			c-5.7-5.6-18.4-6.5-37.8-2.6c-1.9,0.4-3.6,1.3-5,2.6c-2.4,2.4-57.5,58.5-31.3,126.6c28.7,74.7,102.5,161.6,196.6,175.7
			c10.7,1.6,20.7,2.4,30.1,2.4c55.3,0,88-27.8,97.2-83.1C425.7,319.4,423.7,315.4,420.1,313.4z M300.5,385
			C201.1,370,138.4,271.5,119.2,221.4c-19.1-49.6,16.1-93.9,25-103.9c7.2-1.2,14.8-1.7,17.9-1.2c6.6,9.2,29.5,52.4,30.5,60.1
			c0,5.1-1.7,12.2-21.4,31.9c-1.8,1.8-2.8,4.3-2.8,6.9c0,50.7,107,121.2,126,121.2c16.5,0,38-27.7,50.2-45.8c0.7,0,1.9,0.3,3.6,1.1
			c3.5,1.8,9.5,5.7,17.2,10.7c10.1,6.6,23.5,15.4,39.4,24.4C397.4,361.5,377.3,396.5,300.5,385z"/>
	</g>
</g>
</svg>
